<?xml version="1.0" encoding="UTF-8"?>
<svg xmlns="http://www.w3.org/2000/svg" xmlns:xlink="http://www.w3.org/1999/xlink" width="482.297pt" height="345.406pt" viewBox="0 0 482.297 345.406">
<defs>
<g>
<g id="glyph-0-0">
<path d="M 0.671875 -5.636719 C 0.671875 -6.980469 0.796875 -8.066406 1.085938 -8.898438 C 1.359375 -9.726562 1.773438 -10.367188 2.316406 -10.8125 C 2.859375 -11.261719 3.5625 -11.484375 4.390625 -11.484375 C 5 -11.484375 5.542969 -11.355469 6.003906 -11.101562 C 6.453125 -10.84375 6.835938 -10.492188 7.140625 -10.03125 C 7.441406 -9.566406 7.683594 -9.007812 7.859375 -8.335938 C 8.019531 -7.667969 8.113281 -6.757812 8.113281 -5.636719 C 8.113281 -4.296875 7.96875 -3.210938 7.699219 -2.378906 C 7.425781 -1.550781 7.011719 -0.925781 6.46875 -0.480469 C 5.925781 -0.03125 5.222656 0.175781 4.390625 0.175781 C 3.273438 0.175781 2.410156 -0.207031 1.789062 -0.992188 C 1.039062 -1.933594 0.671875 -3.480469 0.671875 -5.636719 Z M 2.109375 -5.636719 C 2.109375 -3.753906 2.316406 -2.507812 2.761719 -1.882812 C 3.195312 -1.261719 3.738281 -0.957031 4.375 -0.957031 C 5.015625 -0.957031 5.558594 -1.261719 6.003906 -1.882812 C 6.453125 -2.507812 6.675781 -3.753906 6.675781 -5.636719 C 6.675781 -7.523438 6.453125 -8.769531 6.003906 -9.390625 C 5.558594 -10 5.015625 -10.316406 4.375 -10.316406 C 3.722656 -10.316406 3.210938 -10.046875 2.828125 -9.503906 C 2.347656 -8.800781 2.109375 -7.507812 2.109375 -5.636719 Z M 2.109375 -5.636719 "/>
</g>
<g id="glyph-0-1">
<path d="M 1.453125 0 L 1.453125 -1.597656 L 3.050781 -1.597656 L 3.050781 0 Z M 1.453125 0 "/>
</g>
<g id="glyph-0-2">
<path d="M 8.035156 -1.339844 L 8.035156 0 L 0.480469 0 C 0.464844 -0.335938 0.527344 -0.65625 0.65625 -0.972656 C 0.847656 -1.484375 1.148438 -1.980469 1.566406 -2.492188 C 1.980469 -2.988281 2.605469 -3.5625 3.402344 -4.234375 C 4.648438 -5.238281 5.480469 -6.039062 5.925781 -6.644531 C 6.355469 -7.234375 6.582031 -7.792969 6.582031 -8.335938 C 6.582031 -8.878906 6.371094 -9.359375 5.972656 -9.742188 C 5.574219 -10.125 5.0625 -10.316406 4.425781 -10.316406 C 3.753906 -10.316406 3.210938 -10.109375 2.8125 -9.710938 C 2.394531 -9.296875 2.1875 -8.738281 2.1875 -8.019531 L 0.75 -8.179688 C 0.847656 -9.25 1.214844 -10.0625 1.851562 -10.636719 C 2.492188 -11.195312 3.371094 -11.484375 4.457031 -11.484375 C 5.542969 -11.484375 6.421875 -11.164062 7.058594 -10.558594 C 7.699219 -9.949219 8.019531 -9.199219 8.019531 -8.304688 C 8.019531 -7.84375 7.921875 -7.394531 7.730469 -6.949219 C 7.539062 -6.5 7.234375 -6.039062 6.804688 -5.558594 C 6.371094 -5.0625 5.652344 -4.390625 4.648438 -3.546875 C 3.800781 -2.84375 3.257812 -2.363281 3.019531 -2.109375 C 2.777344 -1.851562 2.585938 -1.597656 2.429688 -1.339844 Z M 8.035156 -1.339844 "/>
</g>
<g id="glyph-0-3">
<path d="M 5.160156 0 L 5.160156 -2.730469 L 0.207031 -2.730469 L 0.207031 -4.023438 L 5.414062 -11.4375 L 6.566406 -11.4375 L 6.566406 -4.023438 L 8.113281 -4.023438 L 8.113281 -2.730469 L 6.566406 -2.730469 L 6.566406 0 Z M 5.160156 -4.023438 L 5.160156 -9.183594 L 1.582031 -4.023438 Z M 5.160156 -4.023438 "/>
</g>
<g id="glyph-0-4">
<path d="M 7.953125 -8.640625 L 6.546875 -8.53125 C 6.421875 -9.074219 6.246094 -9.472656 6.023438 -9.726562 C 5.636719 -10.109375 5.160156 -10.316406 4.617188 -10.316406 C 4.167969 -10.316406 3.769531 -10.191406 3.433594 -9.949219 C 2.988281 -9.632812 2.652344 -9.152344 2.394531 -8.546875 C 2.140625 -7.921875 1.996094 -7.042969 1.996094 -5.894531 C 2.332031 -6.40625 2.746094 -6.773438 3.242188 -7.027344 C 3.722656 -7.285156 4.234375 -7.410156 4.777344 -7.410156 C 5.703125 -7.410156 6.5 -7.058594 7.15625 -6.371094 C 7.8125 -5.6875 8.144531 -4.792969 8.144531 -3.707031 C 8.144531 -2.988281 7.984375 -2.316406 7.683594 -1.710938 C 7.363281 -1.085938 6.949219 -0.621094 6.40625 -0.304688 C 5.863281 0.015625 5.253906 0.175781 4.566406 0.175781 C 3.386719 0.175781 2.445312 -0.238281 1.710938 -1.101562 C 0.972656 -1.949219 0.605469 -3.371094 0.605469 -5.351562 C 0.605469 -7.554688 1.007812 -9.152344 1.820312 -10.175781 C 2.523438 -11.035156 3.480469 -11.484375 4.695312 -11.484375 C 5.589844 -11.484375 6.339844 -11.230469 6.917969 -10.71875 C 7.492188 -10.207031 7.828125 -9.519531 7.953125 -8.640625 Z M 2.21875 -3.707031 C 2.21875 -3.226562 2.316406 -2.761719 2.523438 -2.316406 C 2.714844 -1.867188 3.003906 -1.535156 3.386719 -1.308594 C 3.753906 -1.070312 4.136719 -0.957031 4.550781 -0.957031 C 5.128906 -0.957031 5.636719 -1.199219 6.070312 -1.675781 C 6.484375 -2.15625 6.707031 -2.796875 6.707031 -3.625 C 6.707031 -4.410156 6.484375 -5.03125 6.070312 -5.496094 C 5.652344 -5.941406 5.128906 -6.179688 4.488281 -6.179688 C 3.847656 -6.179688 3.324219 -5.941406 2.875 -5.496094 C 2.429688 -5.03125 2.21875 -4.441406 2.21875 -3.707031 Z M 2.21875 -3.707031 "/>
</g>
<g id="glyph-0-5">
<path d="M 2.828125 -6.199219 C 2.234375 -6.40625 1.804688 -6.707031 1.515625 -7.109375 C 1.230469 -7.492188 1.101562 -7.96875 1.101562 -8.53125 C 1.101562 -9.359375 1.390625 -10.046875 1.996094 -10.621094 C 2.605469 -11.195312 3.402344 -11.484375 4.390625 -11.484375 C 5.382812 -11.484375 6.199219 -11.179688 6.804688 -10.605469 C 7.410156 -10.03125 7.714844 -9.328125 7.714844 -8.496094 C 7.714844 -7.953125 7.570312 -7.492188 7.300781 -7.109375 C 7.011719 -6.707031 6.597656 -6.40625 6.023438 -6.199219 C 6.722656 -5.972656 7.25 -5.605469 7.617188 -5.09375 C 7.984375 -4.585938 8.179688 -3.976562 8.179688 -3.273438 C 8.179688 -2.285156 7.828125 -1.46875 7.140625 -0.816406 C 6.4375 -0.144531 5.527344 0.175781 4.410156 0.175781 C 3.273438 0.175781 2.363281 -0.144531 1.675781 -0.816406 C 0.992188 -1.46875 0.65625 -2.300781 0.65625 -3.304688 C 0.65625 -4.042969 0.832031 -4.664062 1.214844 -5.175781 C 1.582031 -5.671875 2.125 -6.003906 2.828125 -6.199219 Z M 2.539062 -8.578125 C 2.539062 -8.035156 2.714844 -7.585938 3.066406 -7.25 C 3.417969 -6.898438 3.867188 -6.742188 4.425781 -6.742188 C 4.96875 -6.742188 5.398438 -6.898438 5.75 -7.25 C 6.101562 -7.585938 6.277344 -8.003906 6.277344 -8.496094 C 6.277344 -9.007812 6.085938 -9.441406 5.734375 -9.792969 C 5.382812 -10.140625 4.933594 -10.316406 4.410156 -10.316406 C 3.867188 -10.316406 3.417969 -10.140625 3.066406 -9.808594 C 2.714844 -9.457031 2.539062 -9.054688 2.539062 -8.578125 Z M 2.09375 -3.304688 C 2.09375 -2.890625 2.1875 -2.507812 2.378906 -2.140625 C 2.570312 -1.757812 2.84375 -1.46875 3.226562 -1.261719 C 3.59375 -1.054688 3.992188 -0.957031 4.425781 -0.957031 C 5.09375 -0.957031 5.636719 -1.164062 6.085938 -1.597656 C 6.515625 -2.027344 6.742188 -2.585938 6.742188 -3.257812 C 6.742188 -3.929688 6.515625 -4.472656 6.070312 -4.917969 C 5.621094 -5.367188 5.046875 -5.589844 4.375 -5.589844 C 3.707031 -5.589844 3.164062 -5.367188 2.730469 -4.933594 C 2.300781 -4.488281 2.09375 -3.945312 2.09375 -3.304688 Z M 2.09375 -3.304688 "/>
</g>
<g id="glyph-0-6">
<path d="M 5.957031 0 L 4.550781 0 L 4.550781 -8.945312 C 4.199219 -8.625 3.753906 -8.289062 3.210938 -7.96875 C 2.667969 -7.652344 2.171875 -7.410156 1.742188 -7.25 L 1.742188 -8.609375 C 2.523438 -8.976562 3.210938 -9.421875 3.800781 -9.949219 C 4.375 -10.460938 4.792969 -10.972656 5.046875 -11.484375 L 5.957031 -11.484375 Z M 5.957031 0 "/>
</g>
<g id="glyph-0-7">
<path d="M 0.671875 -3.019531 L 2.078125 -3.210938 C 2.234375 -2.410156 2.507812 -1.835938 2.890625 -1.484375 C 3.273438 -1.132812 3.753906 -0.957031 4.3125 -0.957031 C 4.96875 -0.957031 5.527344 -1.183594 5.972656 -1.644531 C 6.421875 -2.09375 6.660156 -2.667969 6.660156 -3.339844 C 6.660156 -3.976562 6.4375 -4.519531 6.023438 -4.933594 C 5.605469 -5.351562 5.0625 -5.574219 4.425781 -5.574219 C 4.152344 -5.574219 3.816406 -5.511719 3.433594 -5.414062 L 3.59375 -6.644531 C 3.691406 -6.628906 3.753906 -6.628906 3.816406 -6.628906 C 4.410156 -6.628906 4.953125 -6.773438 5.429688 -7.09375 C 5.910156 -7.410156 6.148438 -7.890625 6.148438 -8.546875 C 6.148438 -9.054688 5.972656 -9.472656 5.621094 -9.808594 C 5.269531 -10.140625 4.824219 -10.316406 4.28125 -10.316406 C 3.738281 -10.316406 3.273438 -10.140625 2.90625 -9.808594 C 2.539062 -9.457031 2.316406 -8.945312 2.21875 -8.273438 L 0.816406 -8.511719 C 0.972656 -9.457031 1.375 -10.191406 1.980469 -10.703125 C 2.585938 -11.210938 3.339844 -11.484375 4.25 -11.484375 C 4.871094 -11.484375 5.445312 -11.339844 5.972656 -11.070312 C 6.484375 -10.796875 6.882812 -10.429688 7.171875 -9.984375 C 7.460938 -9.519531 7.601562 -9.023438 7.601562 -8.511719 C 7.601562 -8.003906 7.460938 -7.554688 7.203125 -7.15625 C 6.933594 -6.742188 6.53125 -6.421875 6.023438 -6.199219 C 6.691406 -6.039062 7.203125 -5.703125 7.585938 -5.222656 C 7.96875 -4.726562 8.160156 -4.105469 8.160156 -3.371094 C 8.160156 -2.378906 7.792969 -1.535156 7.058594 -0.847656 C 6.324219 -0.144531 5.414062 0.191406 4.3125 0.191406 C 3.289062 0.191406 2.460938 -0.0976562 1.804688 -0.703125 C 1.132812 -1.292969 0.765625 -2.058594 0.671875 -3.019531 Z M 0.671875 -3.019531 "/>
</g>
<g id="glyph-0-8">
<path d="M 1.230469 0 L 1.230469 -11.4375 L 5.542969 -11.4375 C 6.292969 -11.4375 6.867188 -11.386719 7.285156 -11.324219 C 7.84375 -11.230469 8.304688 -11.035156 8.6875 -10.78125 C 9.074219 -10.527344 9.375 -10.160156 9.617188 -9.679688 C 9.839844 -9.199219 9.96875 -8.6875 9.96875 -8.128906 C 9.96875 -7.140625 9.648438 -6.324219 9.023438 -5.652344 C 8.402344 -4.984375 7.285156 -4.648438 5.671875 -4.648438 L 2.746094 -4.648438 L 2.746094 0 Z M 2.746094 -5.988281 L 5.703125 -5.988281 C 6.675781 -5.988281 7.363281 -6.164062 7.777344 -6.53125 C 8.195312 -6.898438 8.402344 -7.410156 8.402344 -8.082031 C 8.402344 -8.5625 8.273438 -8.960938 8.035156 -9.3125 C 7.777344 -9.648438 7.460938 -9.871094 7.074219 -9.984375 C 6.820312 -10.046875 6.339844 -10.078125 5.671875 -10.078125 L 2.746094 -10.078125 Z M 2.746094 -5.988281 "/>
</g>
<g id="glyph-0-9">
<path d="M 6.722656 -2.667969 L 8.179688 -2.492188 C 7.9375 -1.628906 7.507812 -0.972656 6.898438 -0.511719 C 6.277344 -0.046875 5.496094 0.175781 4.535156 0.175781 C 3.324219 0.175781 2.347656 -0.191406 1.644531 -0.925781 C 0.941406 -1.660156 0.589844 -2.714844 0.589844 -4.074219 C 0.589844 -5.460938 0.941406 -6.546875 1.660156 -7.316406 C 2.363281 -8.082031 3.304688 -8.464844 4.457031 -8.464844 C 5.558594 -8.464844 6.46875 -8.082031 7.171875 -7.332031 C 7.875 -6.582031 8.226562 -5.527344 8.226562 -4.152344 C 8.226562 -4.058594 8.210938 -3.945312 8.210938 -3.785156 L 2.027344 -3.785156 C 2.078125 -2.859375 2.332031 -2.171875 2.796875 -1.691406 C 3.257812 -1.214844 3.832031 -0.972656 4.535156 -0.972656 C 5.046875 -0.972656 5.496094 -1.101562 5.863281 -1.375 C 6.214844 -1.628906 6.5 -2.058594 6.722656 -2.667969 Z M 2.109375 -4.933594 L 6.742188 -4.933594 C 6.675781 -5.636719 6.5 -6.148438 6.214844 -6.5 C 5.765625 -7.042969 5.175781 -7.316406 4.472656 -7.316406 C 3.816406 -7.316406 3.273438 -7.09375 2.84375 -6.660156 C 2.394531 -6.230469 2.15625 -5.652344 2.109375 -4.933594 Z M 2.109375 -4.933594 "/>
</g>
<g id="glyph-0-10">
<path d="M 6.453125 -1.023438 C 5.925781 -0.574219 5.429688 -0.253906 4.953125 -0.078125 C 4.472656 0.078125 3.945312 0.175781 3.402344 0.175781 C 2.492188 0.175781 1.789062 -0.03125 1.308594 -0.480469 C 0.816406 -0.925781 0.574219 -1.484375 0.574219 -2.1875 C 0.574219 -2.585938 0.65625 -2.953125 0.847656 -3.289062 C 1.039062 -3.625 1.277344 -3.898438 1.582031 -4.105469 C 1.867188 -4.296875 2.203125 -4.457031 2.585938 -4.566406 C 2.859375 -4.632812 3.273438 -4.695312 3.832031 -4.777344 C 4.96875 -4.902344 5.796875 -5.0625 6.339844 -5.253906 C 6.339844 -5.445312 6.339844 -5.558594 6.339844 -5.621094 C 6.339844 -6.199219 6.214844 -6.597656 5.957031 -6.835938 C 5.589844 -7.15625 5.046875 -7.316406 4.34375 -7.316406 C 3.671875 -7.316406 3.195312 -7.1875 2.875 -6.964844 C 2.554688 -6.722656 2.332031 -6.308594 2.1875 -5.734375 L 0.816406 -5.925781 C 0.941406 -6.5 1.148438 -6.980469 1.4375 -7.347656 C 1.726562 -7.699219 2.125 -7.984375 2.667969 -8.179688 C 3.210938 -8.371094 3.832031 -8.464844 4.550781 -8.464844 C 5.253906 -8.464844 5.828125 -8.371094 6.277344 -8.210938 C 6.722656 -8.050781 7.042969 -7.84375 7.25 -7.585938 C 7.460938 -7.332031 7.601562 -7.027344 7.683594 -6.644531 C 7.730469 -6.390625 7.761719 -5.957031 7.761719 -5.335938 L 7.761719 -3.464844 C 7.761719 -2.15625 7.777344 -1.339844 7.84375 -0.992188 C 7.90625 -0.640625 8.019531 -0.320312 8.210938 0 L 6.742188 0 C 6.582031 -0.289062 6.484375 -0.621094 6.453125 -1.023438 Z M 6.339844 -4.152344 C 5.828125 -3.945312 5.0625 -3.769531 4.042969 -3.625 C 3.464844 -3.53125 3.050781 -3.433594 2.8125 -3.339844 C 2.570312 -3.242188 2.394531 -3.082031 2.269531 -2.890625 C 2.140625 -2.683594 2.078125 -2.460938 2.078125 -2.21875 C 2.078125 -1.835938 2.203125 -1.535156 2.492188 -1.277344 C 2.777344 -1.023438 3.195312 -0.910156 3.738281 -0.910156 C 4.28125 -0.910156 4.761719 -1.023438 5.175781 -1.261719 C 5.589844 -1.5 5.910156 -1.820312 6.117188 -2.234375 C 6.261719 -2.554688 6.339844 -3.019531 6.339844 -3.640625 Z M 6.339844 -4.152344 "/>
</g>
<g id="glyph-0-11">
<path d="M 1.039062 0 L 1.039062 -8.289062 L 2.300781 -8.289062 L 2.300781 -7.027344 C 2.621094 -7.601562 2.90625 -7.984375 3.195312 -8.179688 C 3.464844 -8.371094 3.769531 -8.464844 4.089844 -8.464844 C 4.566406 -8.464844 5.046875 -8.304688 5.542969 -8.019531 L 5.046875 -6.707031 C 4.695312 -6.898438 4.359375 -7.011719 4.023438 -7.011719 C 3.707031 -7.011719 3.433594 -6.917969 3.195312 -6.742188 C 2.9375 -6.546875 2.761719 -6.292969 2.667969 -5.972656 C 2.507812 -5.460938 2.445312 -4.917969 2.445312 -4.328125 L 2.445312 0 Z M 1.039062 0 "/>
</g>
<g id="glyph-0-12">
<path d="M 0.496094 -2.476562 L 1.882812 -2.683594 C 1.949219 -2.125 2.171875 -1.691406 2.523438 -1.40625 C 2.875 -1.117188 3.386719 -0.972656 4.023438 -0.972656 C 4.664062 -0.972656 5.144531 -1.101562 5.460938 -1.359375 C 5.765625 -1.613281 5.925781 -1.933594 5.925781 -2.285156 C 5.925781 -2.605469 5.78125 -2.84375 5.511719 -3.035156 C 5.320312 -3.164062 4.839844 -3.324219 4.074219 -3.515625 C 3.050781 -3.769531 2.332031 -3.992188 1.933594 -4.183594 C 1.535156 -4.375 1.230469 -4.632812 1.023438 -4.96875 C 0.816406 -5.304688 0.71875 -5.671875 0.71875 -6.085938 C 0.71875 -6.453125 0.796875 -6.789062 0.972656 -7.109375 C 1.132812 -7.425781 1.375 -7.683594 1.660156 -7.890625 C 1.882812 -8.050781 2.171875 -8.179688 2.554688 -8.289062 C 2.9375 -8.402344 3.339844 -8.464844 3.769531 -8.464844 C 4.410156 -8.464844 4.984375 -8.371094 5.480469 -8.179688 C 5.972656 -7.984375 6.339844 -7.746094 6.582031 -7.425781 C 6.804688 -7.109375 6.964844 -6.675781 7.058594 -6.148438 L 5.6875 -5.957031 C 5.621094 -6.371094 5.429688 -6.707031 5.144531 -6.949219 C 4.839844 -7.1875 4.425781 -7.316406 3.882812 -7.316406 C 3.226562 -7.316406 2.761719 -7.203125 2.492188 -6.996094 C 2.203125 -6.773438 2.078125 -6.53125 2.078125 -6.246094 C 2.078125 -6.054688 2.125 -5.894531 2.253906 -5.75 C 2.363281 -5.589844 2.539062 -5.480469 2.796875 -5.382812 C 2.921875 -5.320312 3.339844 -5.207031 4.023438 -5.015625 C 5.015625 -4.761719 5.71875 -4.535156 6.101562 -4.375 C 6.484375 -4.199219 6.804688 -3.945312 7.027344 -3.625 C 7.25 -3.304688 7.363281 -2.90625 7.363281 -2.429688 C 7.363281 -1.949219 7.21875 -1.515625 6.949219 -1.101562 C 6.675781 -0.6875 6.277344 -0.382812 5.765625 -0.160156 C 5.253906 0.0625 4.664062 0.175781 4.023438 0.175781 C 2.9375 0.175781 2.125 -0.03125 1.566406 -0.480469 C 0.992188 -0.925781 0.640625 -1.582031 0.496094 -2.476562 Z M 0.496094 -2.476562 "/>
</g>
<g id="glyph-0-13">
<path d="M 0.527344 -4.136719 C 0.527344 -5.671875 0.941406 -6.804688 1.804688 -7.554688 C 2.507812 -8.160156 3.386719 -8.464844 4.410156 -8.464844 C 5.542969 -8.464844 6.46875 -8.082031 7.203125 -7.347656 C 7.921875 -6.597656 8.289062 -5.574219 8.289062 -4.265625 C 8.289062 -3.195312 8.128906 -2.347656 7.8125 -1.742188 C 7.492188 -1.132812 7.011719 -0.65625 6.40625 -0.320312 C 5.796875 0 5.128906 0.175781 4.410156 0.175781 C 3.242188 0.175781 2.300781 -0.191406 1.597656 -0.925781 C 0.878906 -1.660156 0.527344 -2.730469 0.527344 -4.136719 Z M 1.980469 -4.136719 C 1.980469 -3.082031 2.203125 -2.285156 2.667969 -1.757812 C 3.113281 -1.230469 3.707031 -0.972656 4.410156 -0.972656 C 5.109375 -0.972656 5.6875 -1.230469 6.148438 -1.757812 C 6.613281 -2.285156 6.851562 -3.097656 6.851562 -4.183594 C 6.851562 -5.207031 6.613281 -5.972656 6.148438 -6.515625 C 5.671875 -7.042969 5.09375 -7.316406 4.410156 -7.316406 C 3.707031 -7.316406 3.113281 -7.042969 2.667969 -6.515625 C 2.203125 -5.988281 1.980469 -5.191406 1.980469 -4.136719 Z M 1.980469 -4.136719 "/>
</g>
<g id="glyph-0-14">
<path d="M 1.054688 0 L 1.054688 -8.289062 L 2.316406 -8.289062 L 2.316406 -7.109375 C 2.921875 -8.003906 3.800781 -8.464844 4.953125 -8.464844 C 5.445312 -8.464844 5.910156 -8.371094 6.324219 -8.195312 C 6.742188 -8.019531 7.058594 -7.777344 7.265625 -7.492188 C 7.476562 -7.203125 7.617188 -6.851562 7.699219 -6.453125 C 7.746094 -6.199219 7.777344 -5.734375 7.777344 -5.09375 L 7.777344 0 L 6.371094 0 L 6.371094 -5.03125 C 6.371094 -5.605469 6.308594 -6.023438 6.214844 -6.308594 C 6.101562 -6.597656 5.910156 -6.820312 5.636719 -6.996094 C 5.351562 -7.15625 5.03125 -7.25 4.664062 -7.25 C 4.058594 -7.25 3.53125 -7.058594 3.097656 -6.675781 C 2.667969 -6.292969 2.460938 -5.574219 2.460938 -4.519531 L 2.460938 0 Z M 1.054688 0 "/>
</g>
<g id="glyph-0-15">
</g>
<g id="glyph-0-16">
<path d="M 8.433594 -6.722656 L 0.894531 -6.722656 L 0.894531 -8.035156 L 8.433594 -8.035156 Z M 8.433594 -3.257812 L 0.894531 -3.257812 L 0.894531 -4.566406 L 8.433594 -4.566406 Z M 8.433594 -3.257812 "/>
</g>
<g id="glyph-0-17">
<path d="M 0.878906 -2.652344 L 2.21875 -2.761719 C 2.332031 -2.125 2.554688 -1.675781 2.875 -1.390625 C 3.195312 -1.101562 3.609375 -0.957031 4.121094 -0.957031 C 4.535156 -0.957031 4.917969 -1.054688 5.238281 -1.246094 C 5.558594 -1.4375 5.828125 -1.710938 6.039062 -2.042969 C 6.246094 -2.363281 6.421875 -2.8125 6.566406 -3.386719 C 6.707031 -3.945312 6.789062 -4.519531 6.789062 -5.09375 C 6.789062 -5.160156 6.773438 -5.253906 6.773438 -5.382812 C 6.484375 -4.933594 6.101562 -4.566406 5.621094 -4.296875 C 5.144531 -4.007812 4.617188 -3.882812 4.042969 -3.882812 C 3.097656 -3.882812 2.300781 -4.214844 1.644531 -4.902344 C 0.992188 -5.589844 0.671875 -6.5 0.671875 -7.617188 C 0.671875 -8.769531 1.007812 -9.710938 1.691406 -10.414062 C 2.363281 -11.117188 3.226562 -11.484375 4.265625 -11.484375 C 5 -11.484375 5.671875 -11.277344 6.292969 -10.878906 C 6.898438 -10.476562 7.378906 -9.902344 7.699219 -9.167969 C 8.019531 -8.417969 8.179688 -7.347656 8.179688 -5.957031 C 8.179688 -4.488281 8.019531 -3.324219 7.699219 -2.460938 C 7.378906 -1.597656 6.917969 -0.941406 6.292969 -0.496094 C 5.652344 -0.046875 4.917969 0.175781 4.089844 0.175781 C 3.195312 0.175781 2.460938 -0.0625 1.882812 -0.558594 C 1.308594 -1.039062 0.972656 -1.742188 0.878906 -2.652344 Z M 6.628906 -7.683594 C 6.628906 -8.480469 6.40625 -9.121094 5.972656 -9.597656 C 5.542969 -10.078125 5.03125 -10.316406 4.425781 -10.316406 C 3.800781 -10.316406 3.257812 -10.0625 2.796875 -9.550781 C 2.332031 -9.039062 2.109375 -8.371094 2.109375 -7.570312 C 2.109375 -6.835938 2.316406 -6.246094 2.761719 -5.796875 C 3.195312 -5.335938 3.738281 -5.109375 4.390625 -5.109375 C 5.03125 -5.109375 5.574219 -5.335938 5.988281 -5.796875 C 6.40625 -6.246094 6.628906 -6.882812 6.628906 -7.683594 Z M 6.628906 -7.683594 "/>
</g>
<g id="glyph-0-18">
<path d="M 0.671875 -3.003906 L 2.140625 -3.113281 C 2.234375 -2.394531 2.492188 -1.851562 2.890625 -1.5 C 3.289062 -1.132812 3.769531 -0.957031 4.328125 -0.957031 C 5 -0.957031 5.574219 -1.214844 6.054688 -1.726562 C 6.515625 -2.234375 6.757812 -2.90625 6.757812 -3.753906 C 6.757812 -4.550781 6.515625 -5.175781 6.070312 -5.636719 C 5.621094 -6.101562 5.03125 -6.339844 4.3125 -6.339844 C 3.867188 -6.339844 3.449219 -6.230469 3.082031 -6.023438 C 2.714844 -5.8125 2.429688 -5.558594 2.234375 -5.238281 L 0.910156 -5.398438 L 2.011719 -11.277344 L 7.699219 -11.277344 L 7.699219 -9.933594 L 3.148438 -9.933594 L 2.523438 -6.867188 C 3.210938 -7.347656 3.929688 -7.585938 4.679688 -7.585938 C 5.671875 -7.585938 6.515625 -7.234375 7.203125 -6.546875 C 7.890625 -5.847656 8.242188 -4.96875 8.242188 -3.882812 C 8.242188 -2.84375 7.9375 -1.949219 7.332031 -1.199219 C 6.597656 -0.273438 5.605469 0.175781 4.328125 0.175781 C 3.289062 0.175781 2.445312 -0.113281 1.789062 -0.6875 C 1.117188 -1.261719 0.75 -2.027344 0.671875 -3.003906 Z M 0.671875 -3.003906 "/>
</g>
<g id="glyph-0-19">
<path d="M 1.183594 0 L 1.183594 -11.4375 L 3.464844 -11.4375 L 6.164062 -3.339844 C 6.421875 -2.570312 6.597656 -2.011719 6.707031 -1.644531 C 6.835938 -2.058594 7.042969 -2.667969 7.316406 -3.480469 L 10.0625 -11.4375 L 12.089844 -11.4375 L 12.089844 0 L 10.636719 0 L 10.636719 -9.566406 L 7.316406 0 L 5.957031 0 L 2.652344 -9.726562 L 2.652344 0 Z M 1.183594 0 "/>
</g>
<g id="glyph-0-20">
<path d="M 1.261719 0 L 1.261719 -11.4375 L 6.324219 -11.4375 C 7.347656 -11.4375 8.113281 -11.324219 8.640625 -11.117188 C 9.167969 -10.910156 9.597656 -10.542969 9.917969 -10.03125 C 10.238281 -9.519531 10.398438 -8.945312 10.398438 -8.320312 C 10.398438 -7.492188 10.125 -6.804688 9.597656 -6.261719 C 9.074219 -5.703125 8.257812 -5.351562 7.171875 -5.207031 C 7.570312 -5.015625 7.875 -4.824219 8.082031 -4.632812 C 8.53125 -4.214844 8.945312 -3.722656 9.34375 -3.113281 L 11.324219 0 L 9.421875 0 L 7.921875 -2.378906 C 7.476562 -3.050781 7.109375 -3.578125 6.820312 -3.945312 C 6.53125 -4.3125 6.277344 -4.566406 6.054688 -4.710938 C 5.828125 -4.855469 5.589844 -4.953125 5.367188 -5.015625 C 5.191406 -5.046875 4.902344 -5.078125 4.519531 -5.078125 L 2.761719 -5.078125 L 2.761719 0 Z M 2.761719 -6.390625 L 6.023438 -6.390625 C 6.707031 -6.390625 7.25 -6.453125 7.636719 -6.597656 C 8.019531 -6.742188 8.320312 -6.964844 8.53125 -7.285156 C 8.722656 -7.601562 8.832031 -7.9375 8.832031 -8.320312 C 8.832031 -8.847656 8.625 -9.296875 8.242188 -9.648438 C 7.84375 -10 7.21875 -10.175781 6.390625 -10.175781 L 2.761719 -10.175781 Z M 2.761719 -6.390625 "/>
</g>
<g id="glyph-0-21">
<path d="M 4.503906 0 L 0.0625 -11.4375 L 1.710938 -11.4375 L 4.679688 -3.128906 C 4.902344 -2.460938 5.109375 -1.835938 5.285156 -1.261719 C 5.445312 -1.867188 5.652344 -2.492188 5.894531 -3.128906 L 8.992188 -11.4375 L 10.527344 -11.4375 L 6.054688 0 Z M 4.503906 0 "/>
</g>
<g id="glyph-1-0">
<path d="M 1.539062 0 L 1.539062 -14.296875 L 6.46875 -14.296875 C 7.566406 -14.296875 8.40625 -14.214844 9.003906 -14.097656 C 9.824219 -13.894531 10.523438 -13.535156 11.101562 -13.058594 C 11.859375 -12.417969 12.417969 -11.601562 12.796875 -10.621094 C 13.15625 -9.625 13.355469 -8.503906 13.355469 -7.226562 C 13.355469 -6.128906 13.21875 -5.171875 12.976562 -4.332031 C 12.71875 -3.492188 12.398438 -2.796875 12 -2.257812 C 11.601562 -1.695312 11.160156 -1.277344 10.679688 -0.957031 C 10.203125 -0.640625 9.644531 -0.398438 8.984375 -0.238281 C 8.304688 -0.078125 7.546875 0 6.6875 0 Z M 3.433594 -1.675781 L 6.488281 -1.675781 C 7.425781 -1.675781 8.164062 -1.757812 8.703125 -1.9375 C 9.222656 -2.117188 9.664062 -2.375 9.984375 -2.695312 C 10.421875 -3.132812 10.78125 -3.734375 11.019531 -4.492188 C 11.261719 -5.25 11.402344 -6.167969 11.402344 -7.246094 C 11.402344 -8.746094 11.140625 -9.902344 10.660156 -10.703125 C 10.183594 -11.5 9.582031 -12.039062 8.882812 -12.320312 C 8.367188 -12.5 7.546875 -12.597656 6.429688 -12.597656 L 3.433594 -12.597656 Z M 3.433594 -1.675781 "/>
</g>
<g id="glyph-1-1">
<path d="M 1.296875 0 L 1.296875 -10.363281 L 2.875 -10.363281 L 2.875 -8.785156 C 3.273438 -9.503906 3.632812 -9.984375 3.992188 -10.222656 C 4.332031 -10.460938 4.710938 -10.582031 5.109375 -10.582031 C 5.710938 -10.582031 6.308594 -10.382812 6.929688 -10.023438 L 6.308594 -8.386719 C 5.871094 -8.625 5.449219 -8.765625 5.03125 -8.765625 C 4.632812 -8.765625 4.292969 -8.644531 3.992188 -8.425781 C 3.671875 -8.1875 3.453125 -7.867188 3.335938 -7.46875 C 3.132812 -6.828125 3.054688 -6.148438 3.054688 -5.410156 L 3.054688 0 Z M 1.296875 0 "/>
</g>
<g id="glyph-1-2">
<path d="M 8.40625 -3.335938 L 10.222656 -3.113281 C 9.921875 -2.035156 9.382812 -1.21875 8.625 -0.640625 C 7.847656 -0.0585938 6.867188 0.21875 5.671875 0.21875 C 4.152344 0.21875 2.933594 -0.238281 2.054688 -1.15625 C 1.179688 -2.078125 0.738281 -3.394531 0.738281 -5.089844 C 0.738281 -6.828125 1.179688 -8.1875 2.078125 -9.144531 C 2.953125 -10.101562 4.132812 -10.582031 5.570312 -10.582031 C 6.949219 -10.582031 8.085938 -10.101562 8.964844 -9.164062 C 9.84375 -8.226562 10.28125 -6.90625 10.28125 -5.191406 C 10.28125 -5.070312 10.261719 -4.929688 10.261719 -4.730469 L 2.535156 -4.730469 C 2.59375 -3.574219 2.914062 -2.714844 3.492188 -2.117188 C 4.074219 -1.515625 4.792969 -1.21875 5.671875 -1.21875 C 6.308594 -1.21875 6.867188 -1.378906 7.328125 -1.71875 C 7.765625 -2.035156 8.125 -2.574219 8.40625 -3.335938 Z M 2.636719 -6.167969 L 8.425781 -6.167969 C 8.34375 -7.046875 8.125 -7.6875 7.765625 -8.125 C 7.207031 -8.804688 6.46875 -9.144531 5.589844 -9.144531 C 4.773438 -9.144531 4.09375 -8.863281 3.554688 -8.324219 C 2.996094 -7.785156 2.695312 -7.066406 2.636719 -6.167969 Z M 2.636719 -6.167969 "/>
</g>
<g id="glyph-1-3">
<path d="M 8.066406 -1.277344 C 7.40625 -0.71875 6.789062 -0.320312 6.1875 -0.101562 C 5.589844 0.101562 4.929688 0.21875 4.253906 0.21875 C 3.113281 0.21875 2.234375 -0.0390625 1.636719 -0.597656 C 1.019531 -1.15625 0.71875 -1.855469 0.71875 -2.734375 C 0.71875 -3.234375 0.820312 -3.695312 1.058594 -4.113281 C 1.296875 -4.53125 1.597656 -4.871094 1.976562 -5.132812 C 2.335938 -5.371094 2.753906 -5.570312 3.234375 -5.710938 C 3.574219 -5.789062 4.09375 -5.871094 4.792969 -5.96875 C 6.210938 -6.128906 7.246094 -6.328125 7.925781 -6.570312 C 7.925781 -6.808594 7.925781 -6.949219 7.925781 -7.027344 C 7.925781 -7.746094 7.765625 -8.246094 7.445312 -8.546875 C 6.988281 -8.945312 6.308594 -9.144531 5.429688 -9.144531 C 4.59375 -9.144531 3.992188 -8.984375 3.59375 -8.703125 C 3.195312 -8.40625 2.914062 -7.886719 2.734375 -7.167969 L 1.019531 -7.40625 C 1.179688 -8.125 1.4375 -8.726562 1.796875 -9.183594 C 2.15625 -9.625 2.65625 -9.984375 3.335938 -10.222656 C 4.011719 -10.460938 4.792969 -10.582031 5.691406 -10.582031 C 6.570312 -10.582031 7.289062 -10.460938 7.847656 -10.261719 C 8.40625 -10.0625 8.804688 -9.804688 9.0625 -9.484375 C 9.324219 -9.164062 9.503906 -8.785156 9.601562 -8.304688 C 9.664062 -7.984375 9.703125 -7.445312 9.703125 -6.667969 L 9.703125 -4.332031 C 9.703125 -2.695312 9.722656 -1.675781 9.804688 -1.238281 C 9.882812 -0.796875 10.023438 -0.398438 10.261719 0 L 8.425781 0 C 8.226562 -0.359375 8.105469 -0.777344 8.066406 -1.277344 Z M 7.925781 -5.191406 C 7.289062 -4.929688 6.328125 -4.710938 5.050781 -4.53125 C 4.332031 -4.414062 3.8125 -4.292969 3.515625 -4.171875 C 3.214844 -4.054688 2.996094 -3.851562 2.835938 -3.613281 C 2.675781 -3.355469 2.59375 -3.074219 2.59375 -2.773438 C 2.59375 -2.296875 2.753906 -1.917969 3.113281 -1.597656 C 3.472656 -1.277344 3.992188 -1.136719 4.671875 -1.136719 C 5.351562 -1.136719 5.949219 -1.277344 6.46875 -1.578125 C 6.988281 -1.875 7.386719 -2.277344 7.648438 -2.796875 C 7.828125 -3.195312 7.925781 -3.773438 7.925781 -4.550781 Z M 7.925781 -5.191406 "/>
</g>
<g id="glyph-1-4">
<path d="M 1.316406 0 L 1.316406 -10.363281 L 2.894531 -10.363281 L 2.894531 -8.90625 C 3.214844 -9.402344 3.632812 -9.804688 4.171875 -10.121094 C 4.710938 -10.421875 5.332031 -10.582031 6.03125 -10.582031 C 6.789062 -10.582031 7.40625 -10.421875 7.90625 -10.101562 C 8.386719 -9.78125 8.746094 -9.324219 8.945312 -8.765625 C 9.761719 -9.960938 10.820312 -10.582031 12.140625 -10.582031 C 13.175781 -10.582031 13.957031 -10.28125 14.515625 -9.722656 C 15.074219 -9.164062 15.355469 -8.285156 15.355469 -7.109375 L 15.355469 0 L 13.597656 0 L 13.597656 -6.527344 C 13.597656 -7.207031 13.535156 -7.707031 13.417969 -8.027344 C 13.296875 -8.34375 13.097656 -8.585938 12.796875 -8.785156 C 12.5 -8.964844 12.160156 -9.0625 11.761719 -9.0625 C 11.019531 -9.0625 10.421875 -8.804688 9.941406 -8.324219 C 9.464844 -7.847656 9.222656 -7.066406 9.222656 -6.007812 L 9.222656 0 L 7.46875 0 L 7.46875 -6.726562 C 7.46875 -7.507812 7.308594 -8.085938 7.027344 -8.484375 C 6.75 -8.863281 6.269531 -9.0625 5.628906 -9.0625 C 5.132812 -9.0625 4.671875 -8.925781 4.253906 -8.664062 C 3.832031 -8.40625 3.535156 -8.027344 3.355469 -7.527344 C 3.15625 -7.027344 3.074219 -6.308594 3.074219 -5.371094 L 3.074219 0 Z M 1.316406 0 "/>
</g>
<g id="glyph-1-5">
<path d="M 0.660156 -5.171875 C 0.660156 -7.085938 1.179688 -8.503906 2.257812 -9.445312 C 3.132812 -10.203125 4.234375 -10.582031 5.511719 -10.582031 C 6.929688 -10.582031 8.085938 -10.101562 9.003906 -9.183594 C 9.902344 -8.246094 10.363281 -6.96875 10.363281 -5.332031 C 10.363281 -3.992188 10.164062 -2.933594 9.761719 -2.175781 C 9.363281 -1.417969 8.765625 -0.820312 8.007812 -0.398438 C 7.246094 0 6.410156 0.21875 5.511719 0.21875 C 4.054688 0.21875 2.875 -0.238281 1.996094 -1.15625 C 1.097656 -2.078125 0.660156 -3.414062 0.660156 -5.171875 Z M 2.476562 -5.171875 C 2.476562 -3.851562 2.753906 -2.855469 3.335938 -2.195312 C 3.894531 -1.539062 4.632812 -1.21875 5.511719 -1.21875 C 6.390625 -1.21875 7.109375 -1.539062 7.6875 -2.195312 C 8.265625 -2.855469 8.566406 -3.875 8.566406 -5.230469 C 8.566406 -6.507812 8.265625 -7.46875 7.6875 -8.144531 C 7.085938 -8.804688 6.367188 -9.144531 5.511719 -9.144531 C 4.632812 -9.144531 3.894531 -8.804688 3.335938 -8.144531 C 2.753906 -7.488281 2.476562 -6.488281 2.476562 -5.171875 Z M 2.476562 -5.171875 "/>
</g>
<g id="glyph-1-6">
<path d="M 1.296875 -12.257812 L 1.296875 -14.296875 L 3.054688 -14.296875 L 3.054688 -12.257812 Z M -0.898438 3.992188 L -0.558594 2.496094 C -0.199219 2.574219 0.0390625 2.636719 0.238281 2.636719 C 0.597656 2.636719 0.859375 2.515625 1.039062 2.277344 C 1.199219 2.035156 1.296875 1.457031 1.296875 0.5 L 1.296875 -10.363281 L 3.054688 -10.363281 L 3.054688 0.539062 C 3.054688 1.816406 2.875 2.695312 2.554688 3.214844 C 2.136719 3.851562 1.4375 4.171875 0.460938 4.171875 C 0 4.171875 -0.460938 4.113281 -0.898438 3.992188 Z M -0.898438 3.992188 "/>
</g>
<g id="glyph-1-7">
</g>
<g id="glyph-1-8">
<path d="M 0.898438 -4.59375 L 2.675781 -4.75 C 2.753906 -4.03125 2.953125 -3.433594 3.273438 -2.976562 C 3.574219 -2.515625 4.054688 -2.15625 4.710938 -1.875 C 5.351562 -1.597656 6.089844 -1.457031 6.90625 -1.457031 C 7.625 -1.457031 8.246094 -1.558594 8.804688 -1.777344 C 9.363281 -1.976562 9.761719 -2.277344 10.042969 -2.65625 C 10.300781 -3.015625 10.441406 -3.433594 10.441406 -3.875 C 10.441406 -4.3125 10.300781 -4.710938 10.042969 -5.050781 C 9.78125 -5.371094 9.363281 -5.648438 8.765625 -5.890625 C 8.386719 -6.050781 7.546875 -6.269531 6.230469 -6.589844 C 4.910156 -6.90625 3.992188 -7.207031 3.472656 -7.488281 C 2.796875 -7.847656 2.277344 -8.285156 1.9375 -8.804688 C 1.597656 -9.324219 1.4375 -9.921875 1.4375 -10.601562 C 1.4375 -11.320312 1.636719 -11.980469 2.054688 -12.617188 C 2.457031 -13.238281 3.054688 -13.714844 3.851562 -14.035156 C 4.632812 -14.355469 5.511719 -14.535156 6.46875 -14.535156 C 7.527344 -14.535156 8.464844 -14.355469 9.265625 -14.015625 C 10.0625 -13.675781 10.703125 -13.175781 11.140625 -12.519531 C 11.582031 -11.839844 11.800781 -11.101562 11.839844 -10.261719 L 10.023438 -10.121094 C 9.921875 -11.019531 9.601562 -11.699219 9.042969 -12.179688 C 8.484375 -12.636719 7.648438 -12.878906 6.546875 -12.878906 C 5.390625 -12.878906 4.570312 -12.660156 4.054688 -12.238281 C 3.535156 -11.820312 3.273438 -11.320312 3.273438 -10.722656 C 3.273438 -10.203125 3.453125 -9.78125 3.8125 -9.464844 C 4.171875 -9.125 5.132812 -8.785156 6.667969 -8.425781 C 8.207031 -8.066406 9.265625 -7.765625 9.84375 -7.527344 C 10.660156 -7.128906 11.28125 -6.648438 11.679688 -6.070312 C 12.078125 -5.46875 12.277344 -4.792969 12.277344 -4.03125 C 12.277344 -3.273438 12.058594 -2.554688 11.621094 -1.875 C 11.179688 -1.199219 10.542969 -0.679688 9.742188 -0.320312 C 8.925781 0.0390625 8.007812 0.21875 6.988281 0.21875 C 5.691406 0.21875 4.613281 0.0390625 3.734375 -0.320312 C 2.855469 -0.679688 2.175781 -1.257812 1.675781 -2.015625 C 1.179688 -2.773438 0.917969 -3.632812 0.898438 -4.59375 Z M 0.898438 -4.59375 "/>
</g>
<g id="glyph-1-9">
<path d="M 8.105469 0 L 8.105469 -1.515625 C 7.289062 -0.359375 6.1875 0.21875 4.8125 0.21875 C 4.191406 0.21875 3.613281 0.101562 3.09375 -0.121094 C 2.574219 -0.339844 2.175781 -0.640625 1.917969 -1 C 1.65625 -1.359375 1.476562 -1.777344 1.378906 -2.296875 C 1.296875 -2.636719 1.277344 -3.175781 1.277344 -3.933594 L 1.277344 -10.363281 L 3.035156 -10.363281 L 3.035156 -4.613281 C 3.035156 -3.695312 3.054688 -3.074219 3.132812 -2.753906 C 3.253906 -2.296875 3.472656 -1.9375 3.832031 -1.675781 C 4.191406 -1.398438 4.632812 -1.277344 5.152344 -1.277344 C 5.671875 -1.277344 6.167969 -1.398438 6.648438 -1.675781 C 7.109375 -1.9375 7.425781 -2.296875 7.625 -2.773438 C 7.804688 -3.234375 7.90625 -3.914062 7.90625 -4.8125 L 7.90625 -10.363281 L 9.664062 -10.363281 L 9.664062 0 Z M 8.105469 0 "/>
</g>
<g id="glyph-1-10">
<path d="M 8.066406 -3.792969 L 9.804688 -3.574219 C 9.601562 -2.375 9.125 -1.4375 8.34375 -0.777344 C 7.566406 -0.101562 6.609375 0.21875 5.492188 0.21875 C 4.054688 0.21875 2.914062 -0.238281 2.054688 -1.15625 C 1.199219 -2.078125 0.777344 -3.394531 0.777344 -5.132812 C 0.777344 -6.25 0.957031 -7.226562 1.335938 -8.066406 C 1.695312 -8.90625 2.257812 -9.523438 3.015625 -9.941406 C 3.773438 -10.363281 4.59375 -10.582031 5.492188 -10.582031 C 6.609375 -10.582031 7.527344 -10.28125 8.246094 -9.722656 C 8.964844 -9.164062 9.421875 -8.34375 9.625 -7.308594 L 7.925781 -7.046875 C 7.765625 -7.726562 7.46875 -8.246094 7.066406 -8.605469 C 6.648438 -8.964844 6.148438 -9.144531 5.570312 -9.144531 C 4.671875 -9.144531 3.953125 -8.824219 3.394531 -8.1875 C 2.835938 -7.546875 2.574219 -6.546875 2.574219 -5.191406 C 2.574219 -3.792969 2.835938 -2.773438 3.375 -2.15625 C 3.894531 -1.515625 4.59375 -1.21875 5.46875 -1.21875 C 6.148438 -1.21875 6.726562 -1.417969 7.1875 -1.835938 C 7.648438 -2.257812 7.945312 -2.914062 8.066406 -3.792969 Z M 8.066406 -3.792969 "/>
</g>
<g id="glyph-1-11">
<path d="M 0.617188 -3.09375 L 2.355469 -3.355469 C 2.4375 -2.65625 2.714844 -2.117188 3.15625 -1.757812 C 3.59375 -1.398438 4.234375 -1.21875 5.03125 -1.21875 C 5.828125 -1.21875 6.429688 -1.378906 6.828125 -1.695312 C 7.207031 -2.015625 7.40625 -2.414062 7.40625 -2.855469 C 7.40625 -3.253906 7.226562 -3.554688 6.886719 -3.792969 C 6.648438 -3.953125 6.050781 -4.152344 5.089844 -4.390625 C 3.8125 -4.710938 2.914062 -4.992188 2.414062 -5.230469 C 1.917969 -5.46875 1.539062 -5.789062 1.277344 -6.210938 C 1.019531 -6.628906 0.898438 -7.085938 0.898438 -7.605469 C 0.898438 -8.066406 1 -8.484375 1.21875 -8.882812 C 1.417969 -9.285156 1.71875 -9.601562 2.078125 -9.863281 C 2.355469 -10.0625 2.714844 -10.222656 3.195312 -10.363281 C 3.671875 -10.5 4.171875 -10.582031 4.710938 -10.582031 C 5.511719 -10.582031 6.230469 -10.460938 6.847656 -10.222656 C 7.46875 -9.984375 7.925781 -9.683594 8.226562 -9.285156 C 8.503906 -8.882812 8.703125 -8.34375 8.824219 -7.6875 L 7.109375 -7.445312 C 7.027344 -7.964844 6.789062 -8.386719 6.429688 -8.683594 C 6.050781 -8.984375 5.53125 -9.144531 4.851562 -9.144531 C 4.03125 -9.144531 3.453125 -9.003906 3.113281 -8.746094 C 2.753906 -8.464844 2.59375 -8.164062 2.59375 -7.804688 C 2.59375 -7.566406 2.65625 -7.367188 2.816406 -7.1875 C 2.953125 -6.988281 3.175781 -6.847656 3.492188 -6.726562 C 3.652344 -6.648438 4.171875 -6.507812 5.03125 -6.269531 C 6.269531 -5.949219 7.148438 -5.671875 7.625 -5.46875 C 8.105469 -5.25 8.503906 -4.929688 8.785156 -4.53125 C 9.0625 -4.132812 9.203125 -3.632812 9.203125 -3.035156 C 9.203125 -2.4375 9.023438 -1.898438 8.683594 -1.378906 C 8.34375 -0.859375 7.847656 -0.480469 7.207031 -0.199219 C 6.570312 0.078125 5.828125 0.21875 5.03125 0.21875 C 3.671875 0.21875 2.65625 -0.0390625 1.957031 -0.597656 C 1.238281 -1.15625 0.796875 -1.976562 0.617188 -3.09375 Z M 0.617188 -3.09375 "/>
</g>
<g id="glyph-1-12">
<path d="M 1.578125 0 L 1.578125 -14.296875 L 7.90625 -14.296875 C 9.183594 -14.296875 10.140625 -14.15625 10.800781 -13.894531 C 11.460938 -13.636719 12 -13.175781 12.398438 -12.539062 C 12.796875 -11.898438 12.996094 -11.179688 12.996094 -10.402344 C 12.996094 -9.363281 12.660156 -8.503906 12 -7.828125 C 11.339844 -7.128906 10.320312 -6.6875 8.964844 -6.507812 C 9.464844 -6.269531 9.84375 -6.03125 10.101562 -5.789062 C 10.660156 -5.269531 11.179688 -4.652344 11.679688 -3.894531 L 14.15625 0 L 11.78125 0 L 9.902344 -2.976562 C 9.34375 -3.8125 8.882812 -4.472656 8.523438 -4.929688 C 8.164062 -5.390625 7.847656 -5.710938 7.566406 -5.890625 C 7.289062 -6.070312 6.988281 -6.1875 6.707031 -6.269531 C 6.488281 -6.308594 6.128906 -6.347656 5.648438 -6.347656 L 3.453125 -6.347656 L 3.453125 0 Z M 3.453125 -7.984375 L 7.527344 -7.984375 C 8.386719 -7.984375 9.0625 -8.066406 9.542969 -8.246094 C 10.023438 -8.425781 10.402344 -8.703125 10.660156 -9.105469 C 10.902344 -9.503906 11.039062 -9.921875 11.039062 -10.402344 C 11.039062 -11.0625 10.78125 -11.621094 10.300781 -12.058594 C 9.804688 -12.5 9.023438 -12.71875 7.984375 -12.71875 L 3.453125 -12.71875 Z M 3.453125 -7.984375 "/>
</g>
<g id="glyph-1-13">
<path d="M 5.152344 -1.578125 L 5.410156 -0.0195312 C 4.890625 0.0585938 4.453125 0.121094 4.074219 0.121094 C 3.433594 0.121094 2.933594 0.0195312 2.59375 -0.160156 C 2.234375 -0.359375 1.996094 -0.617188 1.855469 -0.957031 C 1.695312 -1.277344 1.636719 -1.976562 1.636719 -3.035156 L 1.636719 -8.984375 L 0.359375 -8.984375 L 0.359375 -10.363281 L 1.636719 -10.363281 L 1.636719 -12.917969 L 3.375 -13.976562 L 3.375 -10.363281 L 5.152344 -10.363281 L 5.152344 -8.984375 L 3.375 -8.984375 L 3.375 -2.933594 C 3.375 -2.414062 3.394531 -2.097656 3.472656 -1.957031 C 3.535156 -1.816406 3.632812 -1.695312 3.773438 -1.617188 C 3.914062 -1.539062 4.113281 -1.496094 4.371094 -1.496094 C 4.570312 -1.496094 4.832031 -1.515625 5.152344 -1.578125 Z M 5.152344 -1.578125 "/>
</g>
<g id="glyph-2-0">
<path d="M 0 -1.578125 L -14.296875 -1.578125 L -14.296875 -7.90625 C -14.296875 -9.183594 -14.15625 -10.140625 -13.894531 -10.800781 C -13.636719 -11.460938 -13.175781 -12 -12.539062 -12.398438 C -11.898438 -12.796875 -11.179688 -12.996094 -10.402344 -12.996094 C -9.363281 -12.996094 -8.503906 -12.660156 -7.828125 -12 C -7.128906 -11.339844 -6.6875 -10.320312 -6.507812 -8.964844 C -6.269531 -9.464844 -6.03125 -9.84375 -5.789062 -10.101562 C -5.269531 -10.660156 -4.652344 -11.179688 -3.894531 -11.679688 L 0 -14.15625 L 0 -11.78125 L -2.976562 -9.902344 C -3.8125 -9.34375 -4.472656 -8.882812 -4.929688 -8.523438 C -5.390625 -8.164062 -5.710938 -7.847656 -5.890625 -7.566406 C -6.070312 -7.289062 -6.1875 -6.988281 -6.269531 -6.707031 C -6.308594 -6.488281 -6.347656 -6.128906 -6.347656 -5.648438 L -6.347656 -3.453125 L 0 -3.453125 Z M -7.984375 -3.453125 L -7.984375 -7.527344 C -7.984375 -8.386719 -8.066406 -9.0625 -8.246094 -9.542969 C -8.425781 -10.023438 -8.703125 -10.402344 -9.105469 -10.660156 C -9.503906 -10.902344 -9.921875 -11.039062 -10.402344 -11.039062 C -11.0625 -11.039062 -11.621094 -10.78125 -12.058594 -10.300781 C -12.5 -9.804688 -12.71875 -9.023438 -12.71875 -7.984375 L -12.71875 -3.453125 Z M -7.984375 -3.453125 "/>
</g>
<g id="glyph-2-1">
<path d="M -3.335938 -8.40625 L -3.113281 -10.222656 C -2.035156 -9.921875 -1.21875 -9.382812 -0.640625 -8.625 C -0.0585938 -7.847656 0.21875 -6.867188 0.21875 -5.671875 C 0.21875 -4.152344 -0.238281 -2.933594 -1.15625 -2.054688 C -2.078125 -1.179688 -3.394531 -0.738281 -5.089844 -0.738281 C -6.828125 -0.738281 -8.1875 -1.179688 -9.144531 -2.078125 C -10.101562 -2.953125 -10.582031 -4.132812 -10.582031 -5.570312 C -10.582031 -6.949219 -10.101562 -8.085938 -9.164062 -8.964844 C -8.226562 -9.84375 -6.90625 -10.28125 -5.191406 -10.28125 C -5.070312 -10.28125 -4.929688 -10.261719 -4.730469 -10.261719 L -4.730469 -2.535156 C -3.574219 -2.59375 -2.714844 -2.914062 -2.117188 -3.492188 C -1.515625 -4.074219 -1.21875 -4.792969 -1.21875 -5.671875 C -1.21875 -6.308594 -1.378906 -6.867188 -1.71875 -7.328125 C -2.035156 -7.765625 -2.574219 -8.125 -3.335938 -8.40625 Z M -6.167969 -2.636719 L -6.167969 -8.425781 C -7.046875 -8.34375 -7.6875 -8.125 -8.125 -7.765625 C -8.804688 -7.207031 -9.144531 -6.46875 -9.144531 -5.589844 C -9.144531 -4.773438 -8.863281 -4.09375 -8.324219 -3.554688 C -7.785156 -2.996094 -7.066406 -2.695312 -6.167969 -2.636719 Z M -6.167969 -2.636719 "/>
</g>
<g id="glyph-2-2">
<path d="M -1.277344 -8.066406 C -0.71875 -7.40625 -0.320312 -6.789062 -0.101562 -6.1875 C 0.101562 -5.589844 0.21875 -4.929688 0.21875 -4.253906 C 0.21875 -3.113281 -0.0390625 -2.234375 -0.597656 -1.636719 C -1.15625 -1.019531 -1.855469 -0.71875 -2.734375 -0.71875 C -3.234375 -0.71875 -3.695312 -0.820312 -4.113281 -1.058594 C -4.53125 -1.296875 -4.871094 -1.597656 -5.132812 -1.976562 C -5.371094 -2.335938 -5.570312 -2.753906 -5.710938 -3.234375 C -5.789062 -3.574219 -5.871094 -4.09375 -5.96875 -4.792969 C -6.128906 -6.210938 -6.328125 -7.246094 -6.570312 -7.925781 C -6.808594 -7.925781 -6.949219 -7.925781 -7.027344 -7.925781 C -7.746094 -7.925781 -8.246094 -7.765625 -8.546875 -7.445312 C -8.945312 -6.988281 -9.144531 -6.308594 -9.144531 -5.429688 C -9.144531 -4.59375 -8.984375 -3.992188 -8.703125 -3.59375 C -8.40625 -3.195312 -7.886719 -2.914062 -7.167969 -2.734375 L -7.40625 -1.019531 C -8.125 -1.179688 -8.726562 -1.4375 -9.183594 -1.796875 C -9.625 -2.15625 -9.984375 -2.65625 -10.222656 -3.335938 C -10.460938 -4.011719 -10.582031 -4.792969 -10.582031 -5.691406 C -10.582031 -6.570312 -10.460938 -7.289062 -10.261719 -7.847656 C -10.0625 -8.40625 -9.804688 -8.804688 -9.484375 -9.0625 C -9.164062 -9.324219 -8.785156 -9.503906 -8.304688 -9.601562 C -7.984375 -9.664062 -7.445312 -9.703125 -6.667969 -9.703125 L -4.332031 -9.703125 C -2.695312 -9.703125 -1.675781 -9.722656 -1.238281 -9.804688 C -0.796875 -9.882812 -0.398438 -10.023438 0 -10.261719 L 0 -8.425781 C -0.359375 -8.226562 -0.777344 -8.105469 -1.277344 -8.066406 Z M -5.191406 -7.925781 C -4.929688 -7.289062 -4.710938 -6.328125 -4.53125 -5.050781 C -4.414062 -4.332031 -4.292969 -3.8125 -4.171875 -3.515625 C -4.054688 -3.214844 -3.851562 -2.996094 -3.613281 -2.835938 C -3.355469 -2.675781 -3.074219 -2.59375 -2.773438 -2.59375 C -2.296875 -2.59375 -1.917969 -2.753906 -1.597656 -3.113281 C -1.277344 -3.472656 -1.136719 -3.992188 -1.136719 -4.671875 C -1.136719 -5.351562 -1.277344 -5.949219 -1.578125 -6.46875 C -1.875 -6.988281 -2.277344 -7.386719 -2.796875 -7.648438 C -3.195312 -7.828125 -3.773438 -7.925781 -4.550781 -7.925781 Z M -5.191406 -7.925781 "/>
</g>
<g id="glyph-2-3">
<path d="M 0 -1.277344 L -14.296875 -1.277344 L -14.296875 -3.035156 L 0 -3.035156 Z M 0 -1.277344 "/>
</g>
<g id="glyph-2-4">
</g>
<g id="glyph-2-5">
<path d="M -4.59375 -0.898438 L -4.75 -2.675781 C -4.03125 -2.753906 -3.433594 -2.953125 -2.976562 -3.273438 C -2.515625 -3.574219 -2.15625 -4.054688 -1.875 -4.710938 C -1.597656 -5.351562 -1.457031 -6.089844 -1.457031 -6.90625 C -1.457031 -7.625 -1.558594 -8.246094 -1.777344 -8.804688 C -1.976562 -9.363281 -2.277344 -9.761719 -2.65625 -10.042969 C -3.015625 -10.300781 -3.433594 -10.441406 -3.875 -10.441406 C -4.3125 -10.441406 -4.710938 -10.300781 -5.050781 -10.042969 C -5.371094 -9.78125 -5.648438 -9.363281 -5.890625 -8.765625 C -6.050781 -8.386719 -6.269531 -7.546875 -6.589844 -6.230469 C -6.90625 -4.910156 -7.207031 -3.992188 -7.488281 -3.472656 C -7.847656 -2.796875 -8.285156 -2.277344 -8.804688 -1.9375 C -9.324219 -1.597656 -9.921875 -1.4375 -10.601562 -1.4375 C -11.320312 -1.4375 -11.980469 -1.636719 -12.617188 -2.054688 C -13.238281 -2.457031 -13.714844 -3.054688 -14.035156 -3.851562 C -14.355469 -4.632812 -14.535156 -5.511719 -14.535156 -6.46875 C -14.535156 -7.527344 -14.355469 -8.464844 -14.015625 -9.265625 C -13.675781 -10.0625 -13.175781 -10.703125 -12.519531 -11.140625 C -11.839844 -11.582031 -11.101562 -11.800781 -10.261719 -11.839844 L -10.121094 -10.023438 C -11.019531 -9.921875 -11.699219 -9.601562 -12.179688 -9.042969 C -12.636719 -8.484375 -12.878906 -7.648438 -12.878906 -6.546875 C -12.878906 -5.390625 -12.660156 -4.570312 -12.238281 -4.054688 C -11.820312 -3.535156 -11.320312 -3.273438 -10.722656 -3.273438 C -10.203125 -3.273438 -9.78125 -3.453125 -9.464844 -3.8125 C -9.125 -4.171875 -8.785156 -5.132812 -8.425781 -6.667969 C -8.066406 -8.207031 -7.765625 -9.265625 -7.527344 -9.84375 C -7.128906 -10.660156 -6.648438 -11.28125 -6.070312 -11.679688 C -5.46875 -12.078125 -4.792969 -12.277344 -4.03125 -12.277344 C -3.273438 -12.277344 -2.554688 -12.058594 -1.875 -11.621094 C -1.199219 -11.179688 -0.679688 -10.542969 -0.320312 -9.742188 C 0.0390625 -8.925781 0.21875 -8.007812 0.21875 -6.988281 C 0.21875 -5.691406 0.0390625 -4.613281 -0.320312 -3.734375 C -0.679688 -2.855469 -1.257812 -2.175781 -2.015625 -1.675781 C -2.773438 -1.179688 -3.632812 -0.917969 -4.59375 -0.898438 Z M -4.59375 -0.898438 "/>
</g>
<g id="glyph-2-6">
<path d="M 0 -8.105469 L -1.515625 -8.105469 C -0.359375 -7.289062 0.21875 -6.1875 0.21875 -4.8125 C 0.21875 -4.191406 0.101562 -3.613281 -0.121094 -3.09375 C -0.339844 -2.574219 -0.640625 -2.175781 -1 -1.917969 C -1.359375 -1.65625 -1.777344 -1.476562 -2.296875 -1.378906 C -2.636719 -1.296875 -3.175781 -1.277344 -3.933594 -1.277344 L -10.363281 -1.277344 L -10.363281 -3.035156 L -4.613281 -3.035156 C -3.695312 -3.035156 -3.074219 -3.054688 -2.753906 -3.132812 C -2.296875 -3.253906 -1.9375 -3.472656 -1.675781 -3.832031 C -1.398438 -4.191406 -1.277344 -4.632812 -1.277344 -5.152344 C -1.277344 -5.671875 -1.398438 -6.167969 -1.675781 -6.648438 C -1.9375 -7.109375 -2.296875 -7.425781 -2.773438 -7.625 C -3.234375 -7.804688 -3.914062 -7.90625 -4.8125 -7.90625 L -10.363281 -7.90625 L -10.363281 -9.664062 L 0 -9.664062 Z M 0 -8.105469 "/>
</g>
<g id="glyph-2-7">
<path d="M -3.792969 -8.066406 L -3.574219 -9.804688 C -2.375 -9.601562 -1.4375 -9.125 -0.777344 -8.34375 C -0.101562 -7.566406 0.21875 -6.609375 0.21875 -5.492188 C 0.21875 -4.054688 -0.238281 -2.914062 -1.15625 -2.054688 C -2.078125 -1.199219 -3.394531 -0.777344 -5.132812 -0.777344 C -6.25 -0.777344 -7.226562 -0.957031 -8.066406 -1.335938 C -8.90625 -1.695312 -9.523438 -2.257812 -9.941406 -3.015625 C -10.363281 -3.773438 -10.582031 -4.59375 -10.582031 -5.492188 C -10.582031 -6.609375 -10.28125 -7.527344 -9.722656 -8.246094 C -9.164062 -8.964844 -8.34375 -9.421875 -7.308594 -9.625 L -7.046875 -7.925781 C -7.726562 -7.765625 -8.246094 -7.46875 -8.605469 -7.066406 C -8.964844 -6.648438 -9.144531 -6.148438 -9.144531 -5.570312 C -9.144531 -4.671875 -8.824219 -3.953125 -8.1875 -3.394531 C -7.546875 -2.835938 -6.546875 -2.574219 -5.191406 -2.574219 C -3.792969 -2.574219 -2.773438 -2.835938 -2.15625 -3.375 C -1.515625 -3.894531 -1.21875 -4.59375 -1.21875 -5.46875 C -1.21875 -6.148438 -1.417969 -6.726562 -1.835938 -7.1875 C -2.257812 -7.648438 -2.914062 -7.945312 -3.792969 -8.066406 Z M -3.792969 -8.066406 "/>
</g>
<g id="glyph-2-8">
<path d="M -3.09375 -0.617188 L -3.355469 -2.355469 C -2.65625 -2.4375 -2.117188 -2.714844 -1.757812 -3.15625 C -1.398438 -3.59375 -1.21875 -4.234375 -1.21875 -5.03125 C -1.21875 -5.828125 -1.378906 -6.429688 -1.695312 -6.828125 C -2.015625 -7.207031 -2.414062 -7.40625 -2.855469 -7.40625 C -3.253906 -7.40625 -3.554688 -7.226562 -3.792969 -6.886719 C -3.953125 -6.648438 -4.152344 -6.050781 -4.390625 -5.089844 C -4.710938 -3.8125 -4.992188 -2.914062 -5.230469 -2.414062 C -5.46875 -1.917969 -5.789062 -1.539062 -6.210938 -1.277344 C -6.628906 -1.019531 -7.085938 -0.898438 -7.605469 -0.898438 C -8.066406 -0.898438 -8.484375 -1 -8.882812 -1.21875 C -9.285156 -1.417969 -9.601562 -1.71875 -9.863281 -2.078125 C -10.0625 -2.355469 -10.222656 -2.714844 -10.363281 -3.195312 C -10.5 -3.671875 -10.582031 -4.171875 -10.582031 -4.710938 C -10.582031 -5.511719 -10.460938 -6.230469 -10.222656 -6.847656 C -9.984375 -7.46875 -9.683594 -7.925781 -9.285156 -8.226562 C -8.882812 -8.503906 -8.34375 -8.703125 -7.6875 -8.824219 L -7.445312 -7.109375 C -7.964844 -7.027344 -8.386719 -6.789062 -8.683594 -6.429688 C -8.984375 -6.050781 -9.144531 -5.53125 -9.144531 -4.851562 C -9.144531 -4.03125 -9.003906 -3.453125 -8.746094 -3.113281 C -8.464844 -2.753906 -8.164062 -2.59375 -7.804688 -2.59375 C -7.566406 -2.59375 -7.367188 -2.65625 -7.1875 -2.816406 C -6.988281 -2.953125 -6.847656 -3.175781 -6.726562 -3.492188 C -6.648438 -3.652344 -6.507812 -4.171875 -6.269531 -5.03125 C -5.949219 -6.269531 -5.671875 -7.148438 -5.46875 -7.625 C -5.25 -8.105469 -4.929688 -8.503906 -4.53125 -8.785156 C -4.132812 -9.0625 -3.632812 -9.203125 -3.035156 -9.203125 C -2.4375 -9.203125 -1.898438 -9.023438 -1.378906 -8.683594 C -0.859375 -8.34375 -0.480469 -7.847656 -0.199219 -7.207031 C 0.078125 -6.570312 0.21875 -5.828125 0.21875 -5.03125 C 0.21875 -3.671875 -0.0390625 -2.65625 -0.597656 -1.957031 C -1.15625 -1.238281 -1.976562 -0.796875 -3.09375 -0.617188 Z M -3.09375 -0.617188 "/>
</g>
<g id="glyph-2-9">
<path d="M -1.578125 -5.152344 L -0.0195312 -5.410156 C 0.0585938 -4.890625 0.121094 -4.453125 0.121094 -4.074219 C 0.121094 -3.433594 0.0195312 -2.933594 -0.160156 -2.59375 C -0.359375 -2.234375 -0.617188 -1.996094 -0.957031 -1.855469 C -1.277344 -1.695312 -1.976562 -1.636719 -3.035156 -1.636719 L -8.984375 -1.636719 L -8.984375 -0.359375 L -10.363281 -0.359375 L -10.363281 -1.636719 L -12.917969 -1.636719 L -13.976562 -3.375 L -10.363281 -3.375 L -10.363281 -5.152344 L -8.984375 -5.152344 L -8.984375 -3.375 L -2.933594 -3.375 C -2.414062 -3.375 -2.097656 -3.394531 -1.957031 -3.472656 C -1.816406 -3.535156 -1.695312 -3.632812 -1.617188 -3.773438 C -1.539062 -3.914062 -1.496094 -4.113281 -1.496094 -4.371094 C -1.496094 -4.570312 -1.515625 -4.832031 -1.578125 -5.152344 Z M -1.578125 -5.152344 "/>
</g>
<g id="glyph-3-0">
<path d="M 11.46875 0 L 8.960938 0 L 7.96875 -2.605469 L 3.386719 -2.605469 L 2.445312 0 L 0 0 L 4.457031 -11.4375 L 6.898438 -11.4375 Z M 7.21875 -4.519531 L 5.652344 -8.769531 L 4.105469 -4.519531 Z M 7.21875 -4.519531 "/>
</g>
<g id="glyph-3-1">
<path d="M 1.164062 -11.4375 L 5.734375 -11.4375 C 6.628906 -11.4375 7.316406 -11.386719 7.761719 -11.324219 C 8.210938 -11.246094 8.609375 -11.085938 8.960938 -10.84375 C 9.3125 -10.605469 9.597656 -10.285156 9.839844 -9.886719 C 10.0625 -9.488281 10.191406 -9.039062 10.191406 -8.5625 C 10.191406 -8.019531 10.03125 -7.523438 9.742188 -7.074219 C 9.457031 -6.628906 9.054688 -6.292969 8.578125 -6.070312 C 9.28125 -5.863281 9.808594 -5.511719 10.191406 -5.03125 C 10.558594 -4.550781 10.75 -3.976562 10.75 -3.324219 C 10.75 -2.796875 10.621094 -2.285156 10.382812 -1.789062 C 10.125 -1.292969 9.808594 -0.894531 9.390625 -0.605469 C 8.976562 -0.320312 8.449219 -0.144531 7.84375 -0.078125 C 7.460938 -0.03125 6.53125 0 5.0625 0 L 1.164062 0 Z M 3.480469 -9.535156 L 3.480469 -6.882812 L 5 -6.882812 C 5.894531 -6.882812 6.4375 -6.898438 6.660156 -6.933594 C 7.058594 -6.964844 7.378906 -7.109375 7.601562 -7.332031 C 7.828125 -7.554688 7.9375 -7.84375 7.9375 -8.226562 C 7.9375 -8.578125 7.828125 -8.863281 7.636719 -9.089844 C 7.441406 -9.3125 7.15625 -9.441406 6.773438 -9.488281 C 6.546875 -9.519531 5.894531 -9.535156 4.808594 -9.535156 Z M 3.480469 -4.984375 L 3.480469 -1.933594 L 5.621094 -1.933594 C 6.453125 -1.933594 6.980469 -1.949219 7.203125 -1.996094 C 7.539062 -2.058594 7.8125 -2.203125 8.035156 -2.445312 C 8.242188 -2.683594 8.355469 -3.003906 8.355469 -3.417969 C 8.355469 -3.769531 8.257812 -4.058594 8.097656 -4.296875 C 7.9375 -4.535156 7.699219 -4.710938 7.378906 -4.824219 C 7.058594 -4.917969 6.390625 -4.984375 5.335938 -4.984375 Z M 3.480469 -4.984375 "/>
</g>
<g id="glyph-3-2">
<path d="M 8.480469 -4.199219 L 10.71875 -3.496094 C 10.367188 -2.253906 9.808594 -1.324219 9.007812 -0.71875 C 8.210938 -0.113281 7.1875 0.175781 5.972656 0.175781 C 4.441406 0.175781 3.195312 -0.335938 2.21875 -1.375 C 1.230469 -2.394531 0.75 -3.816406 0.75 -5.621094 C 0.75 -7.507812 1.230469 -8.992188 2.21875 -10.046875 C 3.210938 -11.101562 4.503906 -11.628906 6.101562 -11.628906 C 7.507812 -11.628906 8.640625 -11.210938 9.519531 -10.382812 C 10.03125 -9.886719 10.429688 -9.183594 10.6875 -8.289062 L 8.402344 -7.730469 C 8.257812 -8.320312 7.96875 -8.785156 7.554688 -9.136719 C 7.125 -9.472656 6.597656 -9.648438 5.988281 -9.648438 C 5.128906 -9.648438 4.441406 -9.34375 3.914062 -8.738281 C 3.386719 -8.128906 3.128906 -7.140625 3.128906 -5.78125 C 3.128906 -4.34375 3.386719 -3.304688 3.914062 -2.699219 C 4.425781 -2.078125 5.109375 -1.773438 5.941406 -1.773438 C 6.546875 -1.773438 7.074219 -1.964844 7.523438 -2.363281 C 7.96875 -2.746094 8.289062 -3.371094 8.480469 -4.199219 Z M 8.480469 -4.199219 "/>
</g>
<g id="glyph-3-3">
<path d="M 1.148438 -11.4375 L 5.367188 -11.4375 C 6.324219 -11.4375 7.042969 -11.355469 7.554688 -11.210938 C 8.226562 -11.019531 8.785156 -10.667969 9.265625 -10.160156 C 9.742188 -9.648438 10.09375 -9.039062 10.351562 -8.304688 C 10.605469 -7.570312 10.734375 -6.675781 10.734375 -5.605469 C 10.734375 -4.664062 10.605469 -3.847656 10.382812 -3.179688 C 10.09375 -2.347656 9.695312 -1.660156 9.167969 -1.148438 C 8.753906 -0.765625 8.210938 -0.464844 7.539062 -0.238281 C 7.027344 -0.078125 6.339844 0 5.496094 0 L 1.148438 0 Z M 3.464844 -9.503906 L 3.464844 -1.933594 L 5.191406 -1.933594 C 5.828125 -1.933594 6.292969 -1.964844 6.582031 -2.027344 C 6.949219 -2.125 7.25 -2.285156 7.507812 -2.507812 C 7.761719 -2.730469 7.953125 -3.097656 8.113281 -3.609375 C 8.273438 -4.121094 8.355469 -4.808594 8.355469 -5.703125 C 8.355469 -6.582031 8.273438 -7.25 8.113281 -7.730469 C 7.953125 -8.210938 7.746094 -8.578125 7.460938 -8.847656 C 7.171875 -9.105469 6.820312 -9.296875 6.390625 -9.390625 C 6.070312 -9.457031 5.429688 -9.503906 4.503906 -9.503906 Z M 3.464844 -9.503906 "/>
</g>
<g id="glyph-3-4">
<path d="M 1.164062 0 L 1.164062 -11.4375 L 9.648438 -11.4375 L 9.648438 -9.503906 L 3.464844 -9.503906 L 3.464844 -6.964844 L 9.214844 -6.964844 L 9.214844 -5.03125 L 3.464844 -5.03125 L 3.464844 -1.933594 L 9.855469 -1.933594 L 9.855469 0 Z M 1.164062 0 "/>
</g>
<g id="glyph-3-5">
<path d="M 1.183594 0 L 1.183594 -11.4375 L 9.007812 -11.4375 L 9.007812 -9.503906 L 3.480469 -9.503906 L 3.480469 -6.789062 L 8.257812 -6.789062 L 8.257812 -4.855469 L 3.480469 -4.855469 L 3.480469 0 Z M 1.183594 0 "/>
</g>
</g>
<clipPath id="clip-0">
<path clip-rule="nonzero" d="M 0.0625 0 L 481.53125 0 L 481.53125 344.8125 L 0.0625 344.8125 Z M 0.0625 0 "/>
</clipPath>
<clipPath id="clip-1">
<path clip-rule="nonzero" d="M 71 7.1875 L 73 7.1875 L 73 293.296875 L 71 293.296875 Z M 71 7.1875 "/>
</clipPath>
<clipPath id="clip-2">
<path clip-rule="nonzero" d="M 161 7.1875 L 162 7.1875 L 162 293.296875 L 161 293.296875 Z M 161 7.1875 "/>
</clipPath>
<clipPath id="clip-3">
<path clip-rule="nonzero" d="M 250 7.1875 L 252 7.1875 L 252 293.296875 L 250 293.296875 Z M 250 7.1875 "/>
</clipPath>
<clipPath id="clip-4">
<path clip-rule="nonzero" d="M 339 7.1875 L 341 7.1875 L 341 293.296875 L 339 293.296875 Z M 339 7.1875 "/>
</clipPath>
<clipPath id="clip-5">
<path clip-rule="nonzero" d="M 429 7.1875 L 431 7.1875 L 431 293.296875 L 429 293.296875 Z M 429 7.1875 "/>
</clipPath>
<clipPath id="clip-6">
<path clip-rule="nonzero" d="M 58.710938 265 L 474.34375 265 L 474.34375 267 L 58.710938 267 Z M 58.710938 265 "/>
</clipPath>
<clipPath id="clip-7">
<path clip-rule="nonzero" d="M 58.710938 212 L 474.34375 212 L 474.34375 214 L 58.710938 214 Z M 58.710938 212 "/>
</clipPath>
<clipPath id="clip-8">
<path clip-rule="nonzero" d="M 58.710938 160 L 474.34375 160 L 474.34375 162 L 58.710938 162 Z M 58.710938 160 "/>
</clipPath>
<clipPath id="clip-9">
<path clip-rule="nonzero" d="M 58.710938 107 L 474.34375 107 L 474.34375 109 L 58.710938 109 Z M 58.710938 107 "/>
</clipPath>
<clipPath id="clip-10">
<path clip-rule="nonzero" d="M 58.710938 55 L 474.34375 55 L 474.34375 57 L 58.710938 57 Z M 58.710938 55 "/>
</clipPath>
</defs>
<g clip-path="url(#clip-0)">
<path fill-rule="nonzero" fill="rgb(100%, 100%, 100%)" fill-opacity="1" d="M 0.0625 344.8125 L 481.53125 344.8125 L 481.53125 0 L 0.0625 0 Z M 0.0625 344.8125 "/>
</g>
<path fill-rule="nonzero" fill="rgb(100%, 100%, 100%)" fill-opacity="1" d="M 58.710938 293.296875 L 474.34375 293.296875 L 474.34375 7.1875 L 58.710938 7.1875 Z M 58.710938 293.296875 "/>
<g clip-path="url(#clip-1)">
<path fill="none" stroke-width="0.7" stroke-linecap="square" stroke-linejoin="round" stroke="rgb(69.018555%, 69.018555%, 69.018555%)" stroke-opacity="0.28" stroke-miterlimit="10" d="M 72.178002 51.604738 L 72.178002 338.20614 " transform="matrix(0.998283, 0, 0, -0.998283, 0.0630983, 344.81302)"/>
</g>
<path fill="none" stroke-width="0.8" stroke-linecap="butt" stroke-linejoin="round" stroke="rgb(0%, 0%, 0%)" stroke-opacity="1" stroke-miterlimit="10" d="M 72.178002 51.604738 L 72.178002 48.106545 " transform="matrix(0.998283, 0, 0, -0.998283, 0.0630983, 344.81302)"/>
<g fill="rgb(0%, 0%, 0%)" fill-opacity="1">
<use xlink:href="#glyph-0-0" x="61.003398" y="311.716836"/>
<use xlink:href="#glyph-0-1" x="69.884126" y="311.716836"/>
<use xlink:href="#glyph-0-0" x="74.32449" y="311.716836"/>
</g>
<g clip-path="url(#clip-2)">
<path fill="none" stroke-width="0.7" stroke-linecap="square" stroke-linejoin="round" stroke="rgb(69.018555%, 69.018555%, 69.018555%)" stroke-opacity="0.28" stroke-miterlimit="10" d="M 161.714527 51.604738 L 161.714527 338.20614 " transform="matrix(0.998283, 0, 0, -0.998283, 0.0630983, 344.81302)"/>
</g>
<path fill="none" stroke-width="0.8" stroke-linecap="butt" stroke-linejoin="round" stroke="rgb(0%, 0%, 0%)" stroke-opacity="1" stroke-miterlimit="10" d="M 161.714527 51.604738 L 161.714527 48.106545 " transform="matrix(0.998283, 0, 0, -0.998283, 0.0630983, 344.81302)"/>
<g fill="rgb(0%, 0%, 0%)" fill-opacity="1">
<use xlink:href="#glyph-0-0" x="150.387583" y="311.716836"/>
<use xlink:href="#glyph-0-1" x="159.268311" y="311.716836"/>
<use xlink:href="#glyph-0-2" x="163.708674" y="311.716836"/>
</g>
<g clip-path="url(#clip-3)">
<path fill="none" stroke-width="0.7" stroke-linecap="square" stroke-linejoin="round" stroke="rgb(69.018555%, 69.018555%, 69.018555%)" stroke-opacity="0.28" stroke-miterlimit="10" d="M 251.251053 51.604738 L 251.251053 338.20614 " transform="matrix(0.998283, 0, 0, -0.998283, 0.0630983, 344.81302)"/>
</g>
<path fill="none" stroke-width="0.8" stroke-linecap="butt" stroke-linejoin="round" stroke="rgb(0%, 0%, 0%)" stroke-opacity="1" stroke-miterlimit="10" d="M 251.251053 51.604738 L 251.251053 48.106545 " transform="matrix(0.998283, 0, 0, -0.998283, 0.0630983, 344.81302)"/>
<g fill="rgb(0%, 0%, 0%)" fill-opacity="1">
<use xlink:href="#glyph-0-0" x="239.770869" y="311.716836"/>
<use xlink:href="#glyph-0-1" x="248.651597" y="311.716836"/>
<use xlink:href="#glyph-0-3" x="253.091961" y="311.716836"/>
</g>
<g clip-path="url(#clip-4)">
<path fill="none" stroke-width="0.7" stroke-linecap="square" stroke-linejoin="round" stroke="rgb(69.018555%, 69.018555%, 69.018555%)" stroke-opacity="0.28" stroke-miterlimit="10" d="M 340.791491 51.604738 L 340.791491 338.20614 " transform="matrix(0.998283, 0, 0, -0.998283, 0.0630983, 344.81302)"/>
</g>
<path fill="none" stroke-width="0.8" stroke-linecap="butt" stroke-linejoin="round" stroke="rgb(0%, 0%, 0%)" stroke-opacity="1" stroke-miterlimit="10" d="M 340.791491 51.604738 L 340.791491 48.106545 " transform="matrix(0.998283, 0, 0, -0.998283, 0.0630983, 344.81302)"/>
<g fill="rgb(0%, 0%, 0%)" fill-opacity="1">
<use xlink:href="#glyph-0-0" x="329.154155" y="311.716836"/>
<use xlink:href="#glyph-0-1" x="338.034883" y="311.716836"/>
<use xlink:href="#glyph-0-4" x="342.475247" y="311.716836"/>
</g>
<g clip-path="url(#clip-5)">
<path fill="none" stroke-width="0.7" stroke-linecap="square" stroke-linejoin="round" stroke="rgb(69.018555%, 69.018555%, 69.018555%)" stroke-opacity="0.28" stroke-miterlimit="10" d="M 430.328017 51.604738 L 430.328017 338.20614 " transform="matrix(0.998283, 0, 0, -0.998283, 0.0630983, 344.81302)"/>
</g>
<path fill="none" stroke-width="0.8" stroke-linecap="butt" stroke-linejoin="round" stroke="rgb(0%, 0%, 0%)" stroke-opacity="1" stroke-miterlimit="10" d="M 430.328017 51.604738 L 430.328017 48.106545 " transform="matrix(0.998283, 0, 0, -0.998283, 0.0630983, 344.81302)"/>
<g fill="rgb(0%, 0%, 0%)" fill-opacity="1">
<use xlink:href="#glyph-0-0" x="418.53844" y="311.716836"/>
<use xlink:href="#glyph-0-1" x="427.419167" y="311.716836"/>
<use xlink:href="#glyph-0-5" x="431.859531" y="311.716836"/>
</g>
<g fill="rgb(13.33313%, 13.33313%, 13.33313%)" fill-opacity="1">
<use xlink:href="#glyph-1-0" x="151.677365" y="333.429496"/>
<use xlink:href="#glyph-1-1" x="166.092575" y="333.429496"/>
<use xlink:href="#glyph-1-2" x="172.741141" y="333.429496"/>
<use xlink:href="#glyph-1-3" x="183.842051" y="333.429496"/>
<use xlink:href="#glyph-1-4" x="194.94296" y="333.429496"/>
<use xlink:href="#glyph-1-0" x="211.574359" y="333.429496"/>
<use xlink:href="#glyph-1-5" x="225.989569" y="333.429496"/>
<use xlink:href="#glyph-1-6" x="237.090479" y="333.429496"/>
<use xlink:href="#glyph-1-5" x="241.522856" y="333.429496"/>
<use xlink:href="#glyph-1-7" x="252.623766" y="333.429496"/>
<use xlink:href="#glyph-1-8" x="258.174221" y="333.429496"/>
<use xlink:href="#glyph-1-9" x="271.491319" y="333.429496"/>
<use xlink:href="#glyph-1-10" x="282.592229" y="333.429496"/>
<use xlink:href="#glyph-1-10" x="292.575061" y="333.429496"/>
<use xlink:href="#glyph-1-2" x="302.557893" y="333.429496"/>
<use xlink:href="#glyph-1-11" x="313.658803" y="333.429496"/>
<use xlink:href="#glyph-1-11" x="323.641635" y="333.429496"/>
<use xlink:href="#glyph-1-7" x="333.624468" y="333.429496"/>
<use xlink:href="#glyph-1-12" x="339.174922" y="333.429496"/>
<use xlink:href="#glyph-1-3" x="353.590132" y="333.429496"/>
<use xlink:href="#glyph-1-13" x="364.691042" y="333.429496"/>
<use xlink:href="#glyph-1-2" x="370.241497" y="333.429496"/>
</g>
<g clip-path="url(#clip-6)">
<path fill="none" stroke-width="0.7" stroke-linecap="square" stroke-linejoin="round" stroke="rgb(69.018555%, 69.018555%, 69.018555%)" stroke-opacity="0.28" stroke-miterlimit="10" d="M 58.748697 79.343765 L 475.096279 79.343765 " transform="matrix(0.998283, 0, 0, -0.998283, 0.0630983, 344.81302)"/>
</g>
<path fill="none" stroke-width="0.8" stroke-linecap="butt" stroke-linejoin="round" stroke="rgb(0%, 0%, 0%)" stroke-opacity="1" stroke-miterlimit="10" d="M 58.748697 79.343765 L 55.246591 79.343765 " transform="matrix(0.998283, 0, 0, -0.998283, 0.0630983, 344.81302)"/>
<g fill="rgb(0%, 0%, 0%)" fill-opacity="1">
<use xlink:href="#glyph-0-0" x="29.493686" y="271.3238"/>
<use xlink:href="#glyph-0-1" x="38.374414" y="271.3238"/>
<use xlink:href="#glyph-0-0" x="42.814778" y="271.3238"/>
</g>
<g clip-path="url(#clip-7)">
<path fill="none" stroke-width="0.7" stroke-linecap="square" stroke-linejoin="round" stroke="rgb(69.018555%, 69.018555%, 69.018555%)" stroke-opacity="0.28" stroke-miterlimit="10" d="M 58.748697 131.871443 L 475.096279 131.871443 " transform="matrix(0.998283, 0, 0, -0.998283, 0.0630983, 344.81302)"/>
</g>
<path fill="none" stroke-width="0.8" stroke-linecap="butt" stroke-linejoin="round" stroke="rgb(0%, 0%, 0%)" stroke-opacity="1" stroke-miterlimit="10" d="M 58.748697 131.871443 L 55.246591 131.871443 " transform="matrix(0.998283, 0, 0, -0.998283, 0.0630983, 344.81302)"/>
<g fill="rgb(0%, 0%, 0%)" fill-opacity="1">
<use xlink:href="#glyph-0-0" x="29.493686" y="218.884581"/>
<use xlink:href="#glyph-0-1" x="38.374414" y="218.884581"/>
<use xlink:href="#glyph-0-6" x="42.814778" y="218.884581"/>
</g>
<g clip-path="url(#clip-8)">
<path fill="none" stroke-width="0.7" stroke-linecap="square" stroke-linejoin="round" stroke="rgb(69.018555%, 69.018555%, 69.018555%)" stroke-opacity="0.28" stroke-miterlimit="10" d="M 58.748697 184.399121 L 475.096279 184.399121 " transform="matrix(0.998283, 0, 0, -0.998283, 0.0630983, 344.81302)"/>
</g>
<path fill="none" stroke-width="0.8" stroke-linecap="butt" stroke-linejoin="round" stroke="rgb(0%, 0%, 0%)" stroke-opacity="1" stroke-miterlimit="10" d="M 58.748697 184.399121 L 55.246591 184.399121 " transform="matrix(0.998283, 0, 0, -0.998283, 0.0630983, 344.81302)"/>
<g fill="rgb(0%, 0%, 0%)" fill-opacity="1">
<use xlink:href="#glyph-0-0" x="29.493686" y="166.445761"/>
<use xlink:href="#glyph-0-1" x="38.374414" y="166.445761"/>
<use xlink:href="#glyph-0-2" x="42.814778" y="166.445761"/>
</g>
<g clip-path="url(#clip-9)">
<path fill="none" stroke-width="0.7" stroke-linecap="square" stroke-linejoin="round" stroke="rgb(69.018555%, 69.018555%, 69.018555%)" stroke-opacity="0.28" stroke-miterlimit="10" d="M 58.748697 236.930711 L 475.096279 236.930711 " transform="matrix(0.998283, 0, 0, -0.998283, 0.0630983, 344.81302)"/>
</g>
<path fill="none" stroke-width="0.8" stroke-linecap="butt" stroke-linejoin="round" stroke="rgb(0%, 0%, 0%)" stroke-opacity="1" stroke-miterlimit="10" d="M 58.748697 236.930711 L 55.246591 236.930711 " transform="matrix(0.998283, 0, 0, -0.998283, 0.0630983, 344.81302)"/>
<g fill="rgb(0%, 0%, 0%)" fill-opacity="1">
<use xlink:href="#glyph-0-0" x="29.493686" y="114.006941"/>
<use xlink:href="#glyph-0-1" x="38.374414" y="114.006941"/>
<use xlink:href="#glyph-0-7" x="42.814778" y="114.006941"/>
</g>
<g clip-path="url(#clip-10)">
<path fill="none" stroke-width="0.7" stroke-linecap="square" stroke-linejoin="round" stroke="rgb(69.018555%, 69.018555%, 69.018555%)" stroke-opacity="0.28" stroke-miterlimit="10" d="M 58.748697 289.458389 L 475.096279 289.458389 " transform="matrix(0.998283, 0, 0, -0.998283, 0.0630983, 344.81302)"/>
</g>
<path fill="none" stroke-width="0.8" stroke-linecap="butt" stroke-linejoin="round" stroke="rgb(0%, 0%, 0%)" stroke-opacity="1" stroke-miterlimit="10" d="M 58.748697 289.458389 L 55.246591 289.458389 " transform="matrix(0.998283, 0, 0, -0.998283, 0.0630983, 344.81302)"/>
<g fill="rgb(0%, 0%, 0%)" fill-opacity="1">
<use xlink:href="#glyph-0-0" x="29.493686" y="61.56812"/>
<use xlink:href="#glyph-0-1" x="38.374414" y="61.56812"/>
<use xlink:href="#glyph-0-3" x="42.814778" y="61.56812"/>
</g>
<g fill="rgb(13.33313%, 13.33313%, 13.33313%)" fill-opacity="1">
<use xlink:href="#glyph-2-0" x="21.538666" y="235.142622"/>
<use xlink:href="#glyph-2-1" x="21.538666" y="220.727412"/>
<use xlink:href="#glyph-2-2" x="21.538666" y="209.626502"/>
<use xlink:href="#glyph-2-3" x="21.538666" y="198.525592"/>
<use xlink:href="#glyph-2-4" x="21.538666" y="194.093215"/>
<use xlink:href="#glyph-2-5" x="21.538666" y="188.54276"/>
<use xlink:href="#glyph-2-6" x="21.538666" y="175.225662"/>
<use xlink:href="#glyph-2-7" x="21.538666" y="164.124752"/>
<use xlink:href="#glyph-2-7" x="21.538666" y="154.14192"/>
<use xlink:href="#glyph-2-1" x="21.538666" y="144.159087"/>
<use xlink:href="#glyph-2-8" x="21.538666" y="133.058178"/>
<use xlink:href="#glyph-2-8" x="21.538666" y="123.075345"/>
<use xlink:href="#glyph-2-4" x="21.538666" y="113.092513"/>
<use xlink:href="#glyph-2-0" x="21.538666" y="107.542058"/>
<use xlink:href="#glyph-2-2" x="21.538666" y="93.126848"/>
<use xlink:href="#glyph-2-9" x="21.538666" y="82.025939"/>
<use xlink:href="#glyph-2-1" x="21.538666" y="76.475484"/>
</g>
<path fill="none" stroke-width="2.2" stroke-linecap="butt" stroke-linejoin="round" stroke="rgb(46.273804%, 72.547913%, 0%)" stroke-opacity="1" stroke-dasharray="8.14 3.52" stroke-miterlimit="10" d="M 99.040525 78.823341 L 434.804452 308.890186 " transform="matrix(0.998283, 0, 0, -0.998283, 0.0630983, 344.81302)"/>
<path fill="none" stroke-width="0.8" stroke-linecap="square" stroke-linejoin="miter" stroke="rgb(0%, 0%, 0%)" stroke-opacity="1" stroke-miterlimit="10" d="M 58.748697 51.604738 L 58.748697 338.20614 " transform="matrix(0.998283, 0, 0, -0.998283, 0.0630983, 344.81302)"/>
<path fill="none" stroke-width="0.8" stroke-linecap="square" stroke-linejoin="miter" stroke="rgb(0%, 0%, 0%)" stroke-opacity="1" stroke-miterlimit="10" d="M 58.748697 51.604738 L 475.096279 51.604738 " transform="matrix(0.998283, 0, 0, -0.998283, 0.0630983, 344.81302)"/>
<path fill-rule="nonzero" fill="rgb(46.273804%, 72.547913%, 0%)" fill-opacity="0.95" stroke-width="1.5" stroke-linecap="butt" stroke-linejoin="round" stroke="rgb(46.273804%, 72.547913%, 0%)" stroke-opacity="0.95" stroke-miterlimit="10" d="M 0.00132459 -9.35434 C 2.482146 -9.35434 4.86123 -8.368272 6.61424 -6.615263 C 8.367249 -4.85834 9.353317 -2.479256 9.353317 0.00156545 C 9.353317 2.482387 8.367249 4.861471 6.61424 6.614481 C 4.86123 8.36749 2.482146 9.353558 0.00132459 9.353558 C -2.479497 9.353558 -4.858581 8.36749 -6.615504 6.614481 C -8.368513 4.861471 -9.354581 2.482387 -9.354581 0.00156545 C -9.354581 -2.479256 -8.368513 -4.85834 -6.615504 -6.615263 C -4.858581 -8.368272 -2.479497 -9.35434 0.00132459 -9.35434 Z M 0.00132459 -9.35434 " transform="matrix(0.998283, 0, 0, -0.998283, 98.932271, 265.607032)"/>
<path fill-rule="nonzero" fill="rgb(46.273804%, 72.547913%, 0%)" fill-opacity="0.95" stroke-width="1.5" stroke-linecap="butt" stroke-linejoin="round" stroke="rgb(46.273804%, 72.547913%, 0%)" stroke-opacity="0.95" stroke-miterlimit="10" d="M -0.000452187 -9.355588 C 2.480369 -9.355588 4.859454 -8.36952 6.612463 -6.612597 C 8.369386 -4.859588 9.355453 -2.480503 9.355453 0.000318025 C 9.355453 2.48114 8.369386 4.860224 6.612463 6.613233 C 4.859454 8.370156 2.480369 9.352311 -0.000452187 9.352311 C -2.481274 9.352311 -4.860358 8.370156 -6.613367 6.613233 C -8.37029 4.860224 -9.352445 2.48114 -9.352445 0.000318025 C -9.352445 -2.480503 -8.37029 -4.859588 -6.613367 -6.612597 C -4.860358 -8.36952 -2.481274 -9.355588 -0.000452187 -9.355588 Z M -0.000452187 -9.355588 " transform="matrix(0.998283, 0, 0, -0.998283, 237.477014, 165.972974)"/>
<path fill-rule="nonzero" fill="rgb(46.273804%, 72.547913%, 0%)" fill-opacity="0.95" stroke-width="1.5" stroke-linecap="butt" stroke-linejoin="round" stroke="rgb(46.273804%, 72.547913%, 0%)" stroke-opacity="0.95" stroke-miterlimit="10" d="M -0.000576088 -9.352204 C 2.480245 -9.352204 4.85933 -8.370049 6.616252 -6.613127 C 8.369262 -4.860117 9.35533 -2.481033 9.35533 -0.000211289 C 9.35533 2.48061 8.369262 4.859695 6.616252 6.612704 C 4.85933 8.369626 2.480245 9.355694 -0.000576088 9.355694 C -2.481398 9.355694 -4.860482 8.369626 -6.613491 6.612704 C -8.370414 4.859695 -9.352569 2.48061 -9.352569 -0.000211289 C -9.352569 -2.481033 -8.370414 -4.860117 -6.613491 -6.613127 C -4.860482 -8.370049 -2.481398 -9.352204 -0.000576088 -9.352204 Z M -0.000576088 -9.352204 " transform="matrix(0.998283, 0, 0, -0.998283, 393.899013, 55.851352)"/>
<path fill-rule="nonzero" fill="rgb(46.273804%, 72.547913%, 0%)" fill-opacity="0.95" stroke-width="1.5" stroke-linecap="butt" stroke-linejoin="round" stroke="rgb(46.273804%, 72.547913%, 0%)" stroke-opacity="0.95" stroke-miterlimit="10" d="M 0.00115623 -9.355113 C 2.481978 -9.355113 4.861062 -8.369045 6.614072 -6.616035 C 8.367081 -4.859113 9.353149 -2.480028 9.353149 0.000793029 C 9.353149 2.481615 8.367081 4.860699 6.614072 6.613708 C 4.861062 8.366718 2.481978 9.352786 0.00115623 9.352786 C -2.479665 9.352786 -4.85875 8.366718 -6.615672 6.613708 C -8.368682 4.860699 -9.354749 2.481615 -9.354749 0.000793029 C -9.354749 -2.480028 -8.368682 -4.859113 -6.615672 -6.616035 C -4.85875 -8.369045 -2.479665 -9.355113 0.00115623 -9.355113 Z M 0.00115623 -9.355113 " transform="matrix(0.998283, 0, 0, -0.998283, 335.799627, 118.778135)"/>
<path fill-rule="nonzero" fill="rgb(46.273804%, 72.547913%, 0%)" fill-opacity="0.95" stroke-width="1.5" stroke-linecap="butt" stroke-linejoin="round" stroke="rgb(46.273804%, 72.547913%, 0%)" stroke-opacity="0.95" stroke-miterlimit="10" d="M -0.00146167 -9.352907 C 2.47936 -9.352907 4.858444 -8.366839 6.615367 -6.61383 C 8.368376 -4.86082 9.354444 -2.481736 9.354444 -0.000914401 C 9.354444 2.479907 8.368376 4.858991 6.615367 6.615914 C 4.858444 8.368923 2.47936 9.354991 -0.00146167 9.354991 C -2.482283 9.354991 -4.861367 8.368923 -6.614377 6.615914 C -8.367386 4.858991 -9.353454 2.479907 -9.353454 -0.000914401 C -9.353454 -2.481736 -8.367386 -4.86082 -6.614377 -6.61383 C -4.861367 -8.366839 -2.482283 -9.352907 -0.00146167 -9.352907 Z M -0.00146167 -9.352907 " transform="matrix(0.998283, 0, 0, -0.998283, 322.392084, 113.534243)"/>
<path fill-rule="nonzero" fill="rgb(46.273804%, 72.547913%, 0%)" fill-opacity="0.95" stroke-width="1.5" stroke-linecap="butt" stroke-linejoin="round" stroke="rgb(46.273804%, 72.547913%, 0%)" stroke-opacity="0.95" stroke-miterlimit="10" d="M -0.000848319 -9.355091 C 2.479973 -9.355091 4.859057 -8.369023 6.61598 -6.616013 C 8.368989 -4.859091 9.355057 -2.480007 9.355057 0.000814927 C 9.355057 2.481636 8.368989 4.860721 6.61598 6.61373 C 4.859057 8.36674 2.479973 9.352808 -0.000848319 9.352808 C -2.48167 9.352808 -4.860754 8.36674 -6.613764 6.61373 C -8.366773 4.860721 -9.352841 2.481636 -9.352841 0.000814927 C -9.352841 -2.480007 -8.366773 -4.859091 -6.613764 -6.616013 C -4.860754 -8.369023 -2.48167 -9.355091 -0.000848319 -9.355091 Z M -0.000848319 -9.355091 " transform="matrix(0.998283, 0, 0, -0.998283, 434.121941, 34.875814)"/>
<path fill-rule="nonzero" fill="rgb(100%, 100%, 100%)" fill-opacity="0.92" stroke-width="0.8" stroke-linecap="butt" stroke-linejoin="miter" stroke="rgb(0%, 0%, 0%)" stroke-opacity="0.92" stroke-miterlimit="10" d="M 67.075492 296.102608 L 194.806495 296.102608 C 198.007302 296.102608 199.607706 297.703012 199.607706 300.903819 L 199.607706 332.473642 C 199.607706 335.674449 198.007302 337.274853 194.806495 337.274853 L 67.075492 337.274853 C 63.874684 337.274853 62.274281 335.674449 62.274281 332.473642 L 62.274281 300.903819 C 62.274281 297.703012 63.874684 296.102608 67.075492 296.102608 Z M 67.075492 296.102608 " transform="matrix(0.998283, 0, 0, -0.998283, 0.0630983, 344.81302)"/>
<g fill="rgb(13.33313%, 13.33313%, 13.33313%)" fill-opacity="1">
<use xlink:href="#glyph-0-8" x="67.021848" y="24.343137"/>
<use xlink:href="#glyph-0-9" x="77.675527" y="24.343137"/>
<use xlink:href="#glyph-0-10" x="86.556255" y="24.343137"/>
<use xlink:href="#glyph-0-11" x="95.436982" y="24.343137"/>
<use xlink:href="#glyph-0-12" x="100.755835" y="24.343137"/>
<use xlink:href="#glyph-0-13" x="108.742101" y="24.343137"/>
<use xlink:href="#glyph-0-14" x="117.622829" y="24.343137"/>
<use xlink:href="#glyph-0-15" x="126.503557" y="24.343137"/>
<use xlink:href="#glyph-0-11" x="130.943921" y="24.343137"/>
<use xlink:href="#glyph-0-15" x="136.262774" y="24.343137"/>
<use xlink:href="#glyph-0-16" x="140.703137" y="24.343137"/>
<use xlink:href="#glyph-0-15" x="150.031096" y="24.343137"/>
<use xlink:href="#glyph-0-0" x="154.47146" y="24.343137"/>
<use xlink:href="#glyph-0-1" x="163.352188" y="24.343137"/>
<use xlink:href="#glyph-0-17" x="167.792551" y="24.343137"/>
<use xlink:href="#glyph-0-17" x="176.673279" y="24.343137"/>
<use xlink:href="#glyph-0-18" x="185.554007" y="24.343137"/>
</g>
<g fill="rgb(13.33313%, 13.33313%, 13.33313%)" fill-opacity="1">
<use xlink:href="#glyph-0-19" x="67.021848" y="41.24507"/>
<use xlink:href="#glyph-0-19" x="80.326967" y="41.24507"/>
<use xlink:href="#glyph-0-20" x="93.632086" y="41.24507"/>
</g>
<g fill="rgb(13.33313%, 13.33313%, 13.33313%)" fill-opacity="1">
<use xlink:href="#glyph-0-21" x="104.883487" y="41.24507"/>
<use xlink:href="#glyph-0-15" x="115.537166" y="41.24507"/>
<use xlink:href="#glyph-0-16" x="119.97753" y="41.24507"/>
<use xlink:href="#glyph-0-15" x="129.305489" y="41.24507"/>
<use xlink:href="#glyph-0-0" x="133.745852" y="41.24507"/>
<use xlink:href="#glyph-0-1" x="142.62658" y="41.24507"/>
<use xlink:href="#glyph-0-0" x="147.066944" y="41.24507"/>
<use xlink:href="#glyph-0-0" x="155.947672" y="41.24507"/>
<use xlink:href="#glyph-0-7" x="164.828399" y="41.24507"/>
</g>
<g fill="rgb(0%, 0%, 0%)" fill-opacity="1">
<use xlink:href="#glyph-3-0" x="93.160897" y="269.74841"/>
</g>
<g fill="rgb(0%, 0%, 0%)" fill-opacity="1">
<use xlink:href="#glyph-3-1" x="231.705739" y="170.114452"/>
</g>
<g fill="rgb(0%, 0%, 0%)" fill-opacity="1">
<use xlink:href="#glyph-3-2" x="388.126739" y="59.992829"/>
</g>
<g fill="rgb(0%, 0%, 0%)" fill-opacity="1">
<use xlink:href="#glyph-3-3" x="330.027653" y="122.919613"/>
</g>
<g fill="rgb(0%, 0%, 0%)" fill-opacity="1">
<use xlink:href="#glyph-3-4" x="317.064945" y="117.675631"/>
</g>
<g fill="rgb(0%, 0%, 0%)" fill-opacity="1">
<use xlink:href="#glyph-3-5" x="429.239038" y="39.016902"/>
</g>
</svg>
