<?xml version="1.0" encoding="UTF-8"?>
<svg xmlns="http://www.w3.org/2000/svg" xmlns:xlink="http://www.w3.org/1999/xlink" width="216.65pt" height="176.53pt" viewBox="0 0 216.65 176.53">
<defs>
<g>
<g id="glyph-0-0">
<path d="M 6.015625 -1.625 C 6.015625 -2.4375 5.234375 -3.09375 4.234375 -3.203125 C 5.125 -3.375 5.75 -3.953125 5.75 -4.609375 C 5.75 -5.40625 4.890625 -6.125 3.703125 -6.125 L 0.375 -6.125 L 0.375 -5.84375 L 0.578125 -5.84375 C 1.265625 -5.84375 1.28125 -5.75 1.28125 -5.421875 L 1.28125 -0.703125 C 1.28125 -0.375 1.265625 -0.28125 0.578125 -0.28125 L 0.375 -0.28125 L 0.375 0 L 3.953125 0 C 5.171875 0 6.015625 -0.796875 6.015625 -1.625 Z M 4.890625 -4.609375 C 4.890625 -3.921875 4.28125 -3.296875 3.4375 -3.296875 L 2.03125 -3.296875 L 2.03125 -5.484375 C 2.03125 -5.78125 2.046875 -5.84375 2.46875 -5.84375 L 3.640625 -5.84375 C 4.515625 -5.84375 4.890625 -5.140625 4.890625 -4.609375 Z M 5.125 -1.65625 C 5.125 -0.953125 4.578125 -0.28125 3.65625 -0.28125 L 2.46875 -0.28125 C 2.046875 -0.28125 2.03125 -0.34375 2.03125 -0.640625 L 2.03125 -3.078125 L 3.734375 -3.078125 C 4.765625 -3.078125 5.125 -2.203125 5.125 -1.65625 Z M 5.125 -1.65625 "/>
</g>
<g id="glyph-0-1">
<path d="M 4.453125 -0.796875 L 4.453125 -1.296875 L 4.203125 -1.296875 L 4.203125 -0.8125 C 4.203125 -0.703125 4.203125 -0.265625 3.890625 -0.265625 C 3.5625 -0.265625 3.5625 -0.6875 3.5625 -0.828125 L 3.5625 -2.40625 C 3.5625 -2.921875 3.5625 -3.21875 3.15625 -3.59375 C 2.828125 -3.890625 2.390625 -4.015625 1.953125 -4.015625 C 1.1875 -4.015625 0.5625 -3.640625 0.5625 -3.0625 C 0.5625 -2.796875 0.75 -2.640625 0.984375 -2.640625 C 1.234375 -2.640625 1.40625 -2.8125 1.40625 -3.046875 C 1.40625 -3.4375 1 -3.484375 1 -3.484375 C 1.234375 -3.71875 1.671875 -3.796875 1.921875 -3.796875 C 2.390625 -3.796875 2.890625 -3.453125 2.890625 -2.65625 L 2.890625 -2.375 C 2.40625 -2.34375 1.734375 -2.3125 1.140625 -2.015625 C 0.5 -1.703125 0.296875 -1.234375 0.296875 -0.875 C 0.296875 -0.140625 1.171875 0.09375 1.765625 0.09375 C 2.515625 0.09375 2.859375 -0.390625 2.984375 -0.640625 C 3.015625 -0.265625 3.28125 0.046875 3.671875 0.046875 C 3.890625 0.046875 4.453125 -0.078125 4.453125 -0.796875 Z M 2.890625 -1.265625 C 2.890625 -0.390625 2.21875 -0.125 1.828125 -0.125 C 1.40625 -0.125 1.015625 -0.4375 1.015625 -0.875 C 1.015625 -1.46875 1.53125 -2.09375 2.890625 -2.15625 Z M 2.890625 -1.265625 "/>
</g>
<g id="glyph-0-2">
<path d="M 3.34375 -3.40625 C 3.34375 -3.6875 3.078125 -3.96875 2.671875 -3.96875 C 2.140625 -3.96875 1.765625 -3.59375 1.546875 -3.03125 L 1.546875 -3.96875 L 0.265625 -3.859375 L 0.265625 -3.59375 C 0.875 -3.59375 0.953125 -3.53125 0.953125 -3.078125 L 0.953125 -0.6875 C 0.953125 -0.28125 0.859375 -0.28125 0.265625 -0.28125 L 0.265625 0 C 0.75 -0.015625 0.859375 -0.03125 1.3125 -0.03125 L 2.453125 0 L 2.453125 -0.28125 L 2.28125 -0.28125 C 1.625 -0.28125 1.59375 -0.375 1.59375 -0.703125 L 1.59375 -2.046875 C 1.59375 -2.421875 1.6875 -3.734375 2.71875 -3.734375 C 2.703125 -3.71875 2.5625 -3.609375 2.5625 -3.40625 C 2.5625 -3.15625 2.75 -3 2.953125 -3 C 3.140625 -3 3.34375 -3.140625 3.34375 -3.40625 Z M 3.34375 -3.40625 "/>
</g>
<g id="glyph-0-3">
<path d="M 3.0625 -1.109375 L 3.0625 -1.625 L 2.8125 -1.625 L 2.8125 -1.140625 C 2.8125 -0.46875 2.53125 -0.15625 2.21875 -0.15625 C 1.609375 -0.15625 1.609375 -0.9375 1.609375 -1.109375 L 1.609375 -3.59375 L 2.921875 -3.59375 L 2.921875 -3.859375 L 1.609375 -3.859375 L 1.609375 -5.515625 L 1.359375 -5.515625 C 1.359375 -4.765625 1.046875 -3.84375 0.171875 -3.8125 L 0.171875 -3.59375 L 0.953125 -3.59375 L 0.953125 -1.109375 C 0.953125 -0.109375 1.671875 0.09375 2.15625 0.09375 C 2.75 0.09375 3.0625 -0.46875 3.0625 -1.109375 Z M 3.0625 -1.109375 "/>
</g>
<g id="glyph-0-4">
<path d="M 3.828125 -1.0625 C 3.828125 -1.125 3.78125 -1.1875 3.703125 -1.1875 C 3.609375 -1.1875 3.59375 -1.125 3.578125 -1.078125 C 3.28125 -0.171875 2.46875 -0.15625 2.34375 -0.15625 C 1.90625 -0.15625 1.546875 -0.390625 1.34375 -0.703125 C 1.046875 -1.140625 1.03125 -1.671875 1.03125 -2.046875 L 3.59375 -2.046875 C 3.78125 -2.046875 3.828125 -2.046875 3.828125 -2.25 C 3.828125 -3.171875 3.328125 -4.015625 2.171875 -4.015625 C 1.109375 -4.015625 0.265625 -3.078125 0.265625 -1.96875 C 0.265625 -0.796875 1.203125 0.09375 2.296875 0.09375 C 3.390625 0.09375 3.828125 -0.859375 3.828125 -1.0625 Z M 3.21875 -2.265625 L 1.046875 -2.265625 C 1.125 -3.65625 1.921875 -3.796875 2.171875 -3.796875 C 2.671875 -3.796875 3.203125 -3.421875 3.21875 -2.265625 Z M 3.21875 -2.265625 "/>
</g>
<g id="glyph-0-5">
<path d="M 4.90625 0 L 4.90625 -0.28125 C 4.453125 -0.28125 4.21875 -0.28125 4.21875 -0.5625 L 4.21875 -2.28125 C 4.21875 -3.015625 4.21875 -3.28125 3.96875 -3.59375 C 3.765625 -3.84375 3.421875 -3.96875 2.96875 -3.96875 C 2.140625 -3.96875 1.75 -3.34375 1.625 -3.09375 L 1.609375 -3.09375 L 1.609375 -3.96875 L 0.3125 -3.859375 L 0.3125 -3.59375 C 0.921875 -3.59375 1 -3.53125 1 -3.078125 L 1 -0.6875 C 1 -0.28125 0.90625 -0.28125 0.3125 -0.28125 L 0.3125 0 C 0.734375 -0.015625 0.90625 -0.03125 1.34375 -0.03125 C 1.765625 -0.03125 1.890625 -0.015625 2.359375 0 L 2.359375 -0.28125 C 1.765625 -0.28125 1.671875 -0.28125 1.671875 -0.6875 L 1.671875 -2.328125 C 1.671875 -3.28125 2.34375 -3.734375 2.90625 -3.734375 C 3.4375 -3.734375 3.546875 -3.296875 3.546875 -2.765625 L 3.546875 -0.6875 C 3.546875 -0.28125 3.453125 -0.28125 2.859375 -0.28125 L 2.859375 0 C 3.28125 -0.015625 3.453125 -0.03125 3.890625 -0.03125 C 4.3125 -0.03125 4.4375 -0.015625 4.90625 0 Z M 4.90625 0 "/>
</g>
<g id="glyph-0-6">
<path d="M 4.84375 0 L 4.84375 -0.28125 C 4.234375 -0.28125 4.15625 -0.34375 4.15625 -0.78125 L 4.15625 -6.21875 L 2.828125 -6.125 L 2.828125 -5.84375 C 3.4375 -5.84375 3.515625 -5.78125 3.515625 -5.34375 L 3.515625 -3.4375 C 3.46875 -3.484375 3.0625 -3.96875 2.375 -3.96875 C 1.265625 -3.96875 0.3125 -3.078125 0.3125 -1.921875 C 0.3125 -0.8125 1.203125 0.09375 2.265625 0.09375 C 2.921875 0.09375 3.328125 -0.28125 3.484375 -0.46875 L 3.484375 0.09375 Z M 3.484375 -1.078125 C 3.484375 -0.921875 3.484375 -0.890625 3.359375 -0.703125 C 3.078125 -0.296875 2.65625 -0.125 2.3125 -0.125 C 1.921875 -0.125 1.5625 -0.34375 1.328125 -0.71875 C 1.09375 -1.109375 1.078125 -1.625 1.078125 -1.921875 C 1.078125 -2.34375 1.125 -2.8125 1.359375 -3.171875 C 1.5625 -3.46875 1.921875 -3.734375 2.40625 -3.734375 C 2.78125 -3.734375 3.140625 -3.546875 3.375 -3.203125 C 3.484375 -3.0625 3.484375 -3.0625 3.484375 -2.890625 Z M 3.484375 -1.078125 "/>
</g>
<g id="glyph-0-7">
<path d="M 5.359375 -2.3125 L 5.109375 -2.3125 C 5.015625 -1.40625 4.890625 -0.28125 3.28125 -0.28125 L 2.5 -0.28125 C 2.078125 -0.28125 2.0625 -0.34375 2.0625 -0.640625 L 2.0625 -5.40625 C 2.0625 -5.734375 2.09375 -5.84375 2.921875 -5.84375 L 3.203125 -5.84375 L 3.203125 -6.125 C 2.890625 -6.09375 2.078125 -6.09375 1.71875 -6.09375 C 1.296875 -6.09375 0.75 -6.09375 0.34375 -6.125 L 0.34375 -5.84375 L 0.546875 -5.84375 C 1.234375 -5.84375 1.25 -5.75 1.25 -5.421875 L 1.25 -0.703125 C 1.25 -0.375 1.234375 -0.28125 0.546875 -0.28125 L 0.34375 -0.28125 L 0.34375 0 L 5.109375 0 Z M 5.359375 -2.3125 "/>
</g>
<g id="glyph-0-8">
<path d="M 2.265625 0 L 2.265625 -0.28125 C 1.6875 -0.28125 1.65625 -0.328125 1.65625 -0.671875 L 1.65625 -3.96875 L 0.359375 -3.859375 L 0.359375 -3.59375 C 0.9375 -3.59375 1.015625 -3.53125 1.015625 -3.09375 L 1.015625 -0.6875 C 1.015625 -0.28125 0.921875 -0.28125 0.328125 -0.28125 L 0.328125 0 C 0.71875 -0.015625 0.921875 -0.03125 1.3125 -0.03125 C 1.453125 -0.03125 1.828125 -0.03125 2.265625 0 Z M 1.765625 -5.40625 C 1.765625 -5.671875 1.546875 -5.890625 1.28125 -5.890625 C 1.015625 -5.890625 0.796875 -5.671875 0.796875 -5.40625 C 0.796875 -5.140625 1.015625 -4.921875 1.28125 -4.921875 C 1.546875 -4.921875 1.765625 -5.140625 1.765625 -5.40625 Z M 1.765625 -5.40625 "/>
</g>
<g id="glyph-0-9">
<path d="M 3.828125 -1.0625 C 3.828125 -1.171875 3.734375 -1.171875 3.703125 -1.171875 C 3.609375 -1.171875 3.609375 -1.15625 3.546875 -1 C 3.34375 -0.390625 2.84375 -0.15625 2.390625 -0.15625 C 1.8125 -0.15625 1.078125 -0.625 1.078125 -1.953125 C 1.078125 -3.34375 1.796875 -3.765625 2.328125 -3.765625 C 2.453125 -3.765625 2.9375 -3.75 3.265625 -3.53125 C 3.078125 -3.484375 2.890625 -3.359375 2.890625 -3.109375 C 2.890625 -2.875 3.078125 -2.6875 3.3125 -2.6875 C 3.546875 -2.6875 3.734375 -2.84375 3.734375 -3.125 C 3.734375 -3.671875 3.109375 -4.015625 2.3125 -4.015625 C 1.171875 -4.015625 0.3125 -3.0625 0.3125 -1.9375 C 0.3125 -0.78125 1.234375 0.09375 2.296875 0.09375 C 3.546875 0.09375 3.828125 -0.984375 3.828125 -1.0625 Z M 3.828125 -1.0625 "/>
</g>
<g id="glyph-0-10">
<path d="M 3.3125 -1.140625 C 3.3125 -1.546875 3.140625 -1.796875 2.9375 -2 C 2.640625 -2.296875 2.3125 -2.359375 1.65625 -2.484375 C 1.421875 -2.53125 0.765625 -2.640625 0.765625 -3.15625 C 0.765625 -3.4375 0.96875 -3.828125 1.78125 -3.828125 C 2.75 -3.828125 2.8125 -3.078125 2.828125 -2.859375 C 2.84375 -2.75 2.84375 -2.6875 2.953125 -2.6875 C 3.078125 -2.6875 3.078125 -2.75 3.078125 -2.921875 L 3.078125 -3.78125 C 3.078125 -3.9375 3.078125 -4.015625 2.984375 -4.015625 C 2.9375 -4.015625 2.921875 -4.015625 2.796875 -3.90625 C 2.78125 -3.890625 2.703125 -3.8125 2.640625 -3.765625 C 2.375 -3.96875 2.09375 -4.015625 1.78125 -4.015625 C 0.59375 -4.015625 0.3125 -3.359375 0.3125 -2.90625 C 0.3125 -2.625 0.4375 -2.390625 0.640625 -2.1875 C 0.9375 -1.90625 1.28125 -1.84375 1.734375 -1.765625 C 2.203125 -1.671875 2.34375 -1.65625 2.546875 -1.5 C 2.640625 -1.421875 2.859375 -1.25 2.859375 -0.921875 C 2.859375 -0.125 1.953125 -0.125 1.828125 -0.125 C 0.921875 -0.125 0.6875 -0.890625 0.578125 -1.375 C 0.546875 -1.46875 0.53125 -1.515625 0.4375 -1.515625 C 0.3125 -1.515625 0.3125 -1.4375 0.3125 -1.28125 L 0.3125 -0.140625 C 0.3125 0.015625 0.3125 0.09375 0.40625 0.09375 C 0.46875 0.09375 0.46875 0.09375 0.640625 -0.078125 C 0.671875 -0.140625 0.765625 -0.25 0.8125 -0.296875 C 1.1875 0.078125 1.609375 0.09375 1.828125 0.09375 C 2.9375 0.09375 3.3125 -0.546875 3.3125 -1.140625 Z M 3.3125 -1.140625 "/>
</g>
<g id="glyph-0-11">
<path d="M 6.5625 0 L 6.5625 -0.28125 L 6.359375 -0.28125 C 5.671875 -0.28125 5.65625 -0.375 5.65625 -0.703125 L 5.65625 -5.421875 C 5.65625 -5.75 5.671875 -5.84375 6.359375 -5.84375 L 6.5625 -5.84375 L 6.5625 -6.125 C 6.15625 -6.09375 5.65625 -6.09375 5.25 -6.09375 C 4.828125 -6.09375 4.328125 -6.09375 3.921875 -6.125 L 3.921875 -5.84375 L 4.140625 -5.84375 C 4.828125 -5.84375 4.84375 -5.75 4.84375 -5.421875 L 4.84375 -3.328125 L 2.0625 -3.328125 L 2.0625 -5.421875 C 2.0625 -5.75 2.078125 -5.84375 2.765625 -5.84375 L 2.984375 -5.84375 L 2.984375 -6.125 C 2.578125 -6.09375 2.078125 -6.09375 1.65625 -6.09375 C 1.25 -6.09375 0.75 -6.09375 0.34375 -6.125 L 0.34375 -5.84375 L 0.546875 -5.84375 C 1.234375 -5.84375 1.25 -5.75 1.25 -5.421875 L 1.25 -0.703125 C 1.25 -0.375 1.234375 -0.28125 0.546875 -0.28125 L 0.34375 -0.28125 L 0.34375 0 C 0.75 -0.03125 1.25 -0.03125 1.65625 -0.03125 C 2.078125 -0.03125 2.578125 -0.03125 2.984375 0 L 2.984375 -0.28125 L 2.765625 -0.28125 C 2.078125 -0.28125 2.0625 -0.375 2.0625 -0.703125 L 2.0625 -3.046875 L 4.84375 -3.046875 L 4.84375 -0.703125 C 4.84375 -0.375 4.828125 -0.28125 4.140625 -0.28125 L 3.921875 -0.28125 L 3.921875 0 C 4.328125 -0.03125 4.828125 -0.03125 5.25 -0.03125 C 5.65625 -0.03125 6.15625 -0.03125 6.5625 0 Z M 6.5625 0 "/>
</g>
<g id="glyph-0-12">
<path d="M 4.65625 -3.59375 L 4.65625 -3.859375 C 4.375 -3.84375 4.09375 -3.84375 3.984375 -3.84375 C 3.734375 -3.84375 3.453125 -3.84375 3.203125 -3.859375 L 3.203125 -3.59375 C 3.609375 -3.5625 3.609375 -3.25 3.609375 -3.203125 C 3.609375 -3.109375 3.578125 -3.015625 3.546875 -2.953125 L 2.640625 -0.8125 L 1.625 -3.171875 C 1.578125 -3.296875 1.578125 -3.359375 1.578125 -3.359375 C 1.578125 -3.59375 1.890625 -3.59375 2.078125 -3.59375 L 2.078125 -3.859375 L 1.078125 -3.84375 C 1.046875 -3.84375 0.53125 -3.84375 0.1875 -3.859375 L 0.1875 -3.59375 C 0.59375 -3.59375 0.765625 -3.5625 0.875 -3.328125 L 2.28125 0 L 2.0625 0.53125 C 1.859375 1 1.609375 1.609375 1.015625 1.609375 C 0.796875 1.609375 0.640625 1.5 0.625 1.484375 C 0.6875 1.46875 0.9375 1.40625 0.9375 1.09375 C 0.9375 0.859375 0.765625 0.71875 0.5625 0.71875 C 0.34375 0.71875 0.171875 0.859375 0.171875 1.109375 C 0.171875 1.5 0.5625 1.84375 1.015625 1.84375 C 1.609375 1.84375 1.984375 1.3125 2.203125 0.828125 L 3.828125 -2.96875 C 3.921875 -3.203125 4.09375 -3.5625 4.65625 -3.59375 Z M 4.65625 -3.59375 "/>
</g>
<g id="glyph-0-13">
<path d="M 4.46875 -3.609375 C 4.46875 -3.78125 4.34375 -4.0625 3.984375 -4.0625 C 3.734375 -4.0625 3.328125 -3.96875 3.015625 -3.640625 C 2.765625 -3.84375 2.421875 -3.96875 2.046875 -3.96875 C 1.1875 -3.96875 0.546875 -3.359375 0.546875 -2.640625 C 0.546875 -2.1875 0.8125 -1.859375 0.953125 -1.734375 C 0.9375 -1.71875 0.6875 -1.40625 0.6875 -0.984375 C 0.6875 -0.6875 0.828125 -0.359375 1.078125 -0.203125 C 0.625 -0.046875 0.265625 0.28125 0.265625 0.703125 C 0.265625 1.34375 1.140625 1.84375 2.296875 1.84375 C 3.40625 1.84375 4.34375 1.375 4.34375 0.6875 C 4.34375 0.3125 4.171875 -0.078125 3.84375 -0.296875 C 3.34375 -0.609375 2.8125 -0.609375 1.96875 -0.609375 C 1.78125 -0.609375 1.5 -0.609375 1.421875 -0.625 C 1.171875 -0.6875 1 -0.921875 1 -1.203125 C 1 -1.359375 1.046875 -1.484375 1.125 -1.609375 C 1.34375 -1.46875 1.625 -1.328125 2.03125 -1.328125 C 2.890625 -1.328125 3.53125 -1.9375 3.53125 -2.640625 C 3.53125 -3.078125 3.28125 -3.390625 3.171875 -3.515625 C 3.53125 -3.84375 3.953125 -3.84375 4.046875 -3.84375 C 4.015625 -3.8125 3.9375 -3.765625 3.9375 -3.609375 C 3.9375 -3.5 4 -3.34375 4.203125 -3.34375 C 4.328125 -3.34375 4.46875 -3.421875 4.46875 -3.609375 Z M 2.84375 -2.640625 C 2.84375 -2.4375 2.84375 -1.5625 2.03125 -1.5625 C 1.234375 -1.5625 1.234375 -2.453125 1.234375 -2.640625 C 1.234375 -2.890625 1.25 -3.1875 1.40625 -3.40625 C 1.546875 -3.59375 1.78125 -3.71875 2.03125 -3.71875 C 2.84375 -3.71875 2.84375 -2.859375 2.84375 -2.640625 Z M 3.84375 0.6875 C 3.84375 1.203125 3.140625 1.609375 2.3125 1.609375 C 1.421875 1.609375 0.765625 1.1875 0.765625 0.6875 C 0.765625 0.546875 0.859375 -0.046875 1.625 -0.046875 L 2.453125 -0.046875 C 2.734375 -0.046875 3.84375 -0.03125 3.84375 0.6875 Z M 3.84375 0.6875 "/>
</g>
<g id="glyph-0-14">
<path d="M 6.5625 -5.84375 L 6.5625 -6.125 C 6.078125 -6.109375 5.953125 -6.09375 5.515625 -6.09375 C 5.078125 -6.09375 4.953125 -6.109375 4.453125 -6.125 L 4.453125 -5.84375 C 5.375 -5.84375 5.375 -5.421875 5.375 -5.171875 L 5.375 -2.0625 C 5.375 -0.84375 4.5 -0.078125 3.59375 -0.078125 C 3.078125 -0.078125 2.0625 -0.390625 2.0625 -2.015625 L 2.0625 -5.421875 C 2.0625 -5.75 2.078125 -5.84375 2.765625 -5.84375 L 2.984375 -5.84375 L 2.984375 -6.125 C 2.578125 -6.09375 2.078125 -6.09375 1.65625 -6.09375 C 1.25 -6.09375 0.75 -6.09375 0.34375 -6.125 L 0.34375 -5.84375 L 0.546875 -5.84375 C 1.234375 -5.84375 1.25 -5.75 1.25 -5.421875 L 1.25 -2.0625 C 1.25 -0.75 2.34375 0.203125 3.578125 0.203125 C 4.890625 0.203125 5.65625 -1.03125 5.65625 -1.921875 L 5.65625 -5.15625 C 5.65625 -5.421875 5.65625 -5.84375 6.5625 -5.84375 Z M 6.5625 -5.84375 "/>
</g>
<g id="glyph-0-15">
<path d="M 4.671875 -3.59375 L 4.671875 -3.859375 C 4.40625 -3.84375 3.984375 -3.84375 3.984375 -3.84375 C 3.734375 -3.84375 3.453125 -3.84375 3.203125 -3.859375 L 3.203125 -3.59375 C 3.46875 -3.5625 3.609375 -3.4375 3.609375 -3.203125 C 3.609375 -3.109375 3.609375 -3.09375 3.5625 -3 L 2.640625 -0.734375 L 1.609375 -3.1875 C 1.59375 -3.234375 1.5625 -3.296875 1.5625 -3.359375 C 1.5625 -3.59375 1.890625 -3.59375 2.0625 -3.59375 L 2.0625 -3.859375 C 1.671875 -3.84375 1.46875 -3.84375 1.078125 -3.84375 C 0.765625 -3.84375 0.5 -3.84375 0.171875 -3.859375 L 0.171875 -3.59375 C 0.59375 -3.59375 0.765625 -3.59375 0.90625 -3.25 L 2.21875 -0.078125 C 2.265625 0.078125 2.34375 0.09375 2.421875 0.09375 C 2.5 0.09375 2.578125 0.078125 2.640625 -0.078125 L 3.859375 -3.015625 C 4.046875 -3.46875 4.359375 -3.578125 4.671875 -3.59375 Z M 4.671875 -3.59375 "/>
</g>
<g id="glyph-0-16">
<path d="M 1.765625 -0.484375 C 1.765625 -0.75 1.546875 -0.96875 1.28125 -0.96875 C 1 -0.96875 0.796875 -0.75 0.796875 -0.484375 C 0.796875 -0.21875 1 0 1.28125 0 C 1.546875 0 1.765625 -0.21875 1.765625 -0.484375 Z M 1.765625 -0.484375 "/>
</g>
<g id="glyph-0-17">
<path d="M 3.0625 2.140625 C 3.0625 2.09375 3.03125 2.0625 2.984375 2 C 1.828125 0.9375 1.46875 -0.671875 1.46875 -2.25 C 1.46875 -3.625 1.734375 -5.3125 3 -6.515625 C 3.046875 -6.5625 3.0625 -6.578125 3.0625 -6.625 C 3.0625 -6.6875 3.015625 -6.734375 2.953125 -6.734375 C 2.84375 -6.734375 2.03125 -6.078125 1.546875 -5.109375 C 1.125 -4.25 0.90625 -3.3125 0.90625 -2.25 C 0.90625 -1.609375 0.984375 -0.578125 1.484375 0.46875 C 2.015625 1.578125 2.84375 2.234375 2.953125 2.234375 C 3.015625 2.234375 3.0625 2.203125 3.0625 2.140625 Z M 3.0625 2.140625 "/>
</g>
<g id="glyph-0-18">
<path d="M 4.59375 -1.65625 C 4.59375 -2.171875 4.40625 -2.5625 4.203125 -2.828125 C 3.8125 -3.328125 3.40625 -3.421875 2.828125 -3.5625 L 2.03125 -3.75 C 1.3125 -3.921875 1.078125 -4.5 1.078125 -4.890625 C 1.078125 -5.5 1.5625 -6.078125 2.328125 -6.078125 C 3.484375 -6.078125 3.953125 -5.203125 4.078125 -4.3125 C 4.09375 -4.140625 4.109375 -4.09375 4.21875 -4.09375 C 4.34375 -4.09375 4.34375 -4.15625 4.34375 -4.34375 L 4.34375 -6.078125 C 4.34375 -6.25 4.34375 -6.328125 4.234375 -6.328125 C 4.171875 -6.328125 4.15625 -6.3125 4.09375 -6.203125 C 3.984375 -6.046875 4.078125 -6.15625 3.78125 -5.6875 C 3.625 -5.875 3.15625 -6.328125 2.3125 -6.328125 C 1.265625 -6.328125 0.515625 -5.5 0.515625 -4.59375 C 0.515625 -3.890625 0.9375 -3.46875 0.984375 -3.421875 C 1.375 -3.015625 1.546875 -2.984375 2.609375 -2.71875 C 3.34375 -2.5625 3.421875 -2.53125 3.71875 -2.234375 C 3.71875 -2.234375 4.03125 -1.890625 4.03125 -1.359375 C 4.03125 -0.75 3.59375 -0.078125 2.765625 -0.078125 C 2.078125 -0.078125 0.828125 -0.375 0.765625 -1.84375 C 0.75 -1.984375 0.75 -2.03125 0.640625 -2.03125 C 0.515625 -2.03125 0.515625 -1.96875 0.515625 -1.78125 L 0.515625 -0.046875 C 0.515625 0.125 0.515625 0.203125 0.625 0.203125 C 0.6875 0.203125 0.6875 0.1875 0.75 0.078125 C 0.875 -0.078125 0.78125 0.03125 1.078125 -0.4375 C 1.625 0.109375 2.34375 0.203125 2.78125 0.203125 C 3.875 0.203125 4.59375 -0.703125 4.59375 -1.65625 Z M 4.59375 -1.65625 "/>
</g>
<g id="glyph-0-19">
<path d="M 2.671875 -2.25 C 2.671875 -2.984375 2.5625 -3.96875 2.09375 -4.96875 C 1.5625 -6.078125 0.734375 -6.734375 0.625 -6.734375 C 0.53125 -6.734375 0.515625 -6.65625 0.515625 -6.625 C 0.515625 -6.578125 0.53125 -6.5625 0.59375 -6.5 C 1.125 -6.03125 2.109375 -4.8125 2.109375 -2.25 C 2.109375 -0.96875 1.875 0.8125 0.578125 2.03125 C 0.5625 2.046875 0.515625 2.09375 0.515625 2.140625 C 0.515625 2.15625 0.53125 2.234375 0.625 2.234375 C 0.734375 2.234375 1.546875 1.59375 2.03125 0.609375 C 2.453125 -0.25 2.671875 -1.171875 2.671875 -2.25 Z M 2.671875 -2.25 "/>
</g>
<g id="glyph-0-20">
<path d="M 6.765625 0 L 6.765625 -0.28125 C 6.203125 -0.28125 6.078125 -0.359375 5.796875 -0.765625 L 3.6875 -3.75 L 5.375 -5.296875 C 5.9375 -5.828125 6.5 -5.84375 6.640625 -5.84375 L 6.640625 -6.125 C 6.390625 -6.09375 5.9375 -6.09375 5.84375 -6.09375 L 4.734375 -6.125 L 4.734375 -5.84375 C 4.984375 -5.84375 5.125 -5.71875 5.125 -5.546875 C 5.125 -5.484375 5.09375 -5.40625 5.046875 -5.34375 L 2.0625 -2.578125 L 2.0625 -5.421875 C 2.0625 -5.75 2.078125 -5.84375 2.765625 -5.84375 L 2.984375 -5.84375 L 2.984375 -6.125 C 2.578125 -6.09375 2.078125 -6.09375 1.65625 -6.09375 C 1.25 -6.09375 0.75 -6.09375 0.34375 -6.125 L 0.34375 -5.84375 L 0.546875 -5.84375 C 1.234375 -5.84375 1.25 -5.75 1.25 -5.421875 L 1.25 -0.703125 C 1.25 -0.375 1.234375 -0.28125 0.546875 -0.28125 L 0.34375 -0.28125 L 0.34375 0 C 0.75 -0.03125 1.25 -0.03125 1.65625 -0.03125 C 2.078125 -0.03125 2.578125 -0.03125 2.984375 0 L 2.984375 -0.28125 L 2.765625 -0.28125 C 2.078125 -0.28125 2.0625 -0.375 2.0625 -0.703125 L 2.0625 -2.25 L 3.15625 -3.25 L 4.828125 -0.875 C 4.90625 -0.765625 4.984375 -0.640625 4.984375 -0.53125 C 4.984375 -0.28125 4.640625 -0.28125 4.46875 -0.28125 L 4.46875 0 C 4.875 -0.03125 5.3125 -0.03125 5.71875 -0.03125 C 5.953125 -0.03125 6.3125 -0.03125 6.765625 0 Z M 6.765625 0 "/>
</g>
<g id="glyph-0-21">
<path d="M 4.34375 -1.90625 C 4.34375 -3.078125 3.40625 -4.015625 2.3125 -4.015625 C 1.171875 -4.015625 0.265625 -3.0625 0.265625 -1.90625 C 0.265625 -0.796875 1.1875 0.09375 2.296875 0.09375 C 3.4375 0.09375 4.34375 -0.8125 4.34375 -1.90625 Z M 3.5625 -1.984375 C 3.5625 -1.65625 3.5625 -1.140625 3.34375 -0.75 C 3.09375 -0.328125 2.6875 -0.15625 2.3125 -0.15625 C 1.859375 -0.15625 1.484375 -0.375 1.28125 -0.71875 C 1.046875 -1.109375 1.03125 -1.578125 1.03125 -1.984375 C 1.03125 -2.328125 1.03125 -2.828125 1.25 -3.203125 C 1.53125 -3.65625 1.96875 -3.796875 2.296875 -3.796875 C 2.8125 -3.796875 3.171875 -3.5 3.359375 -3.203125 C 3.5625 -2.828125 3.5625 -2.375 3.5625 -1.984375 Z M 3.5625 -1.984375 "/>
</g>
<g id="glyph-0-22">
<path d="M 8.046875 0 L 8.046875 -0.28125 L 7.84375 -0.28125 C 7.15625 -0.28125 7.140625 -0.375 7.140625 -0.703125 L 7.140625 -5.421875 C 7.140625 -5.75 7.15625 -5.84375 7.84375 -5.84375 L 8.046875 -5.84375 L 8.046875 -6.125 L 6.546875 -6.125 C 6.359375 -6.125 6.296875 -6.125 6.234375 -5.96875 L 4.21875 -0.875 L 2.21875 -5.921875 C 2.140625 -6.109375 2.140625 -6.125 1.890625 -6.125 L 0.390625 -6.125 L 0.390625 -5.84375 L 0.59375 -5.84375 C 1.28125 -5.84375 1.296875 -5.75 1.296875 -5.421875 L 1.296875 -0.953125 C 1.296875 -0.703125 1.296875 -0.28125 0.390625 -0.28125 L 0.390625 0 C 0.875 -0.015625 1 -0.03125 1.4375 -0.03125 C 1.875 -0.03125 2.015625 -0.015625 2.5 0 L 2.5 -0.28125 C 1.578125 -0.28125 1.578125 -0.703125 1.578125 -0.953125 L 1.578125 -5.75 L 1.59375 -5.765625 L 3.796875 -0.203125 C 3.84375 -0.078125 3.875 0 3.984375 0 C 4.078125 0 4.125 -0.078125 4.15625 -0.15625 L 6.40625 -5.828125 L 6.40625 -0.703125 C 6.40625 -0.375 6.390625 -0.28125 5.703125 -0.28125 L 5.5 -0.28125 L 5.5 0 C 6.03125 -0.03125 6.640625 -0.03125 6.765625 -0.03125 C 6.828125 -0.03125 7.484375 -0.03125 8.046875 0 Z M 8.046875 0 "/>
</g>
<g id="glyph-0-23">
<path d="M 6.140625 -2.078125 C 6.140625 -2.171875 6.140625 -2.25 6.015625 -2.25 C 5.890625 -2.25 5.890625 -2.1875 5.890625 -2.109375 C 5.8125 -0.75 4.734375 -0.078125 3.8125 -0.078125 C 3.046875 -0.078125 1.421875 -0.5625 1.421875 -3.0625 C 1.421875 -5.5625 3.0625 -6.046875 3.796875 -6.046875 C 4.6875 -6.046875 5.625 -5.375 5.84375 -3.921875 C 5.859375 -3.796875 5.875 -3.765625 5.984375 -3.765625 C 6.140625 -3.765625 6.140625 -3.796875 6.140625 -3.984375 L 6.140625 -6.09375 C 6.140625 -6.25 6.140625 -6.328125 6.03125 -6.328125 C 5.96875 -6.328125 5.9375 -6.296875 5.890625 -6.21875 L 5.421875 -5.546875 C 5.140625 -5.828125 4.625 -6.328125 3.71875 -6.328125 C 1.984375 -6.328125 0.515625 -4.875 0.515625 -3.0625 C 0.515625 -1.21875 2 0.203125 3.71875 0.203125 C 5.203125 0.203125 6.140625 -1.03125 6.140625 -2.078125 Z M 6.140625 -2.078125 "/>
</g>
<g id="glyph-0-24">
<path d="M 6.734375 -5.84375 L 6.734375 -6.125 C 6.40625 -6.09375 6.15625 -6.09375 5.84375 -6.09375 L 4.84375 -6.125 L 4.84375 -5.84375 C 5.28125 -5.84375 5.484375 -5.625 5.484375 -5.40625 C 5.484375 -5.328125 5.46875 -5.3125 5.4375 -5.21875 L 3.71875 -0.875 L 1.921875 -5.40625 C 1.890625 -5.515625 1.890625 -5.578125 1.890625 -5.578125 C 1.890625 -5.84375 2.34375 -5.84375 2.59375 -5.84375 L 2.59375 -6.125 C 2.203125 -6.09375 1.734375 -6.09375 1.328125 -6.09375 L 0.171875 -6.125 L 0.171875 -5.84375 C 0.828125 -5.84375 0.9375 -5.8125 1.0625 -5.5 L 3.234375 0 C 3.28125 0.140625 3.3125 0.203125 3.453125 0.203125 C 3.59375 0.203125 3.625 0.140625 3.671875 0.015625 L 5.75 -5.25 C 5.9375 -5.71875 6.3125 -5.84375 6.734375 -5.84375 Z M 6.734375 -5.84375 "/>
</g>
<g id="glyph-0-25">
<path d="M 4.90625 0 L 4.90625 -0.28125 C 4.453125 -0.28125 4.21875 -0.28125 4.21875 -0.5625 L 4.21875 -2.28125 C 4.21875 -3.015625 4.21875 -3.28125 3.96875 -3.59375 C 3.765625 -3.84375 3.421875 -3.96875 2.96875 -3.96875 C 2.375 -3.96875 1.921875 -3.65625 1.65625 -3.140625 L 1.640625 -3.140625 L 1.640625 -6.21875 L 0.3125 -6.125 L 0.3125 -5.84375 C 0.921875 -5.84375 1 -5.78125 1 -5.34375 L 1 -0.6875 C 1 -0.28125 0.90625 -0.28125 0.3125 -0.28125 L 0.3125 0 C 0.734375 -0.015625 0.90625 -0.03125 1.34375 -0.03125 C 1.765625 -0.03125 1.890625 -0.015625 2.359375 0 L 2.359375 -0.28125 C 1.765625 -0.28125 1.671875 -0.28125 1.671875 -0.6875 L 1.671875 -2.328125 C 1.671875 -3.28125 2.34375 -3.734375 2.90625 -3.734375 C 3.4375 -3.734375 3.546875 -3.296875 3.546875 -2.765625 L 3.546875 -0.6875 C 3.546875 -0.28125 3.453125 -0.28125 2.859375 -0.28125 L 2.859375 0 C 3.28125 -0.015625 3.453125 -0.03125 3.890625 -0.03125 C 4.3125 -0.03125 4.4375 -0.015625 4.90625 0 Z M 4.90625 0 "/>
</g>
<g id="glyph-0-26">
<path d="M 2.34375 0 L 2.34375 -0.28125 C 1.75 -0.28125 1.65625 -0.28125 1.65625 -0.6875 L 1.65625 -6.21875 L 0.328125 -6.125 L 0.328125 -5.84375 C 0.9375 -5.84375 1.015625 -5.78125 1.015625 -5.34375 L 1.015625 -0.6875 C 1.015625 -0.28125 0.921875 -0.28125 0.328125 -0.28125 L 0.328125 0 C 0.75 -0.015625 0.921875 -0.03125 1.328125 -0.03125 C 1.75 -0.03125 1.90625 -0.015625 2.34375 0 Z M 2.34375 0 "/>
</g>
<g id="glyph-0-27">
<path d="M 9.296875 -5.84375 L 9.296875 -6.125 C 9.015625 -6.09375 8.734375 -6.09375 8.453125 -6.09375 L 7.390625 -6.125 L 7.390625 -5.84375 C 7.953125 -5.84375 8.15625 -5.5625 8.15625 -5.359375 C 8.15625 -5.3125 8.140625 -5.28125 8.125 -5.21875 L 6.734375 -1.03125 L 5.25 -5.4375 C 5.25 -5.46875 5.21875 -5.53125 5.21875 -5.5625 C 5.21875 -5.84375 5.734375 -5.84375 5.96875 -5.84375 L 5.96875 -6.125 C 5.5625 -6.09375 5.125 -6.09375 4.71875 -6.09375 C 4.21875 -6.09375 4.15625 -6.09375 3.609375 -6.125 L 3.609375 -5.84375 C 4.0625 -5.84375 4.234375 -5.828125 4.328125 -5.671875 C 4.40625 -5.5625 4.59375 -4.953125 4.59375 -4.953125 C 4.59375 -4.953125 4.5625 -4.859375 4.5625 -4.828125 L 3.296875 -1.03125 L 1.828125 -5.40625 C 1.78125 -5.53125 1.78125 -5.546875 1.78125 -5.5625 C 1.78125 -5.84375 2.296875 -5.84375 2.53125 -5.84375 L 2.53125 -6.125 C 2.140625 -6.09375 1.6875 -6.09375 1.28125 -6.09375 C 0.796875 -6.09375 0.71875 -6.09375 0.171875 -6.125 L 0.171875 -5.84375 C 0.6875 -5.84375 0.859375 -5.84375 0.984375 -5.5 L 2.8125 0.015625 C 2.859375 0.140625 2.90625 0.203125 3.015625 0.203125 C 3.078125 0.203125 3.15625 0.171875 3.203125 0.015625 L 4.734375 -4.5625 L 6.25 -0.015625 C 6.3125 0.140625 6.328125 0.203125 6.453125 0.203125 C 6.5625 0.203125 6.59375 0.140625 6.640625 0.015625 L 8.390625 -5.203125 C 8.515625 -5.609375 8.765625 -5.84375 9.296875 -5.84375 Z M 9.296875 -5.84375 "/>
</g>
<g id="glyph-0-28">
<path d="M 4.078125 -3.0625 C 4.078125 -3.328125 3.859375 -3.546875 3.59375 -3.546875 C 3.3125 -3.546875 3.109375 -3.328125 3.109375 -3.0625 C 3.109375 -2.796875 3.3125 -2.578125 3.59375 -2.578125 C 3.859375 -2.578125 4.078125 -2.796875 4.078125 -3.0625 Z M 4.078125 -3.0625 "/>
</g>
<g id="glyph-0-29">
<path d="M 4.140625 -1.796875 C 4.140625 -2.875 3.375 -3.765625 2.390625 -3.765625 C 1.96875 -3.765625 1.53125 -3.625 1.203125 -3.296875 L 1.203125 -5.0625 C 1.484375 -4.984375 1.765625 -4.9375 2.03125 -4.9375 C 3.140625 -4.9375 3.78125 -5.734375 3.78125 -5.859375 C 3.78125 -5.9375 3.734375 -5.96875 3.6875 -5.96875 C 3.6875 -5.96875 3.65625 -5.96875 3.5625 -5.921875 C 3.140625 -5.765625 2.734375 -5.6875 2.359375 -5.6875 C 1.96875 -5.6875 1.5625 -5.765625 1.15625 -5.921875 C 1.0625 -5.96875 1.046875 -5.96875 1.046875 -5.96875 C 0.9375 -5.96875 0.9375 -5.890625 0.9375 -5.734375 L 0.9375 -3.09375 C 0.9375 -2.9375 0.9375 -2.828125 1.0625 -2.828125 C 1.125 -2.828125 1.15625 -2.875 1.203125 -2.953125 C 1.484375 -3.328125 1.90625 -3.546875 2.375 -3.546875 C 3.34375 -3.546875 3.34375 -2.15625 3.34375 -1.84375 C 3.34375 -1.5625 3.34375 -1 3.078125 -0.59375 C 2.84375 -0.21875 2.46875 -0.046875 2.109375 -0.046875 C 1.59375 -0.046875 0.984375 -0.390625 0.765625 -1.046875 C 0.765625 -1.046875 0.828125 -1.03125 0.890625 -1.03125 C 1.078125 -1.03125 1.34375 -1.140625 1.34375 -1.46875 C 1.34375 -1.75 1.140625 -1.90625 0.890625 -1.90625 C 0.703125 -1.90625 0.453125 -1.796875 0.453125 -1.4375 C 0.453125 -0.625 1.140625 0.203125 2.140625 0.203125 C 3.21875 0.203125 4.140625 -0.6875 4.140625 -1.796875 Z M 4.140625 -1.796875 "/>
</g>
<g id="glyph-1-0">
<path d="M 9.65625 0 L 9.65625 -0.4375 L 8.6875 -0.4375 L 8.6875 -5.71875 L 9.65625 -5.71875 L 9.65625 -6.15625 L 7.65625 -6.15625 C 7.46875 -6.15625 7.34375 -6.15625 7.234375 -5.921875 L 5.03125 -1.171875 L 2.828125 -5.921875 C 2.71875 -6.15625 2.59375 -6.15625 2.40625 -6.15625 L 0.40625 -6.15625 L 0.40625 -5.71875 L 1.375 -5.71875 L 1.375 -0.703125 C 1.375 -0.5 1.359375 -0.5 1.109375 -0.46875 C 0.890625 -0.4375 0.875 -0.4375 0.640625 -0.4375 L 0.40625 -0.4375 L 0.40625 0 C 0.984375 -0.03125 1.234375 -0.03125 1.625 -0.03125 C 2.015625 -0.03125 2.265625 -0.03125 2.859375 0 L 2.859375 -0.4375 L 2.625 -0.4375 C 2.375 -0.4375 2.359375 -0.4375 2.140625 -0.46875 C 1.890625 -0.5 1.890625 -0.5 1.890625 -0.703125 L 1.890625 -5.59375 L 4.375 -0.234375 C 4.40625 -0.15625 4.484375 0 4.6875 0 C 4.890625 0 4.953125 -0.140625 5 -0.234375 L 7.53125 -5.703125 L 7.546875 -5.703125 L 7.546875 -0.4375 L 6.578125 -0.4375 L 6.578125 0 C 6.890625 -0.03125 7.75 -0.03125 8.109375 -0.03125 C 8.46875 -0.03125 9.34375 -0.03125 9.65625 0 Z M 9.65625 0 "/>
</g>
<g id="glyph-1-1">
<path d="M 5.109375 -0.21875 C 5.109375 -0.4375 4.953125 -0.4375 4.875 -0.4375 C 4.296875 -0.453125 4.296875 -0.53125 4.296875 -0.75 L 4.296875 -2.671875 C 4.296875 -3.46875 3.65625 -4.0625 2.265625 -4.0625 C 1.765625 -4.0625 0.609375 -4.046875 0.609375 -3.21875 C 0.609375 -2.8125 0.921875 -2.625 1.1875 -2.625 C 1.5 -2.625 1.78125 -2.84375 1.78125 -3.203125 C 1.78125 -3.46875 1.625 -3.625 1.59375 -3.65625 C 1.6875 -3.671875 1.90625 -3.703125 2.234375 -3.703125 C 2.875 -3.703125 3.25 -3.375 3.25 -2.671875 L 3.25 -2.390625 C 1.765625 -2.390625 0.25 -2 0.25 -1 C 0.25 -0.109375 1.375 0.046875 2.015625 0.046875 C 2.703125 0.046875 3.171875 -0.234375 3.40625 -0.65625 C 3.40625 -0.4375 3.40625 0 4.375 0 L 4.8125 0 C 4.984375 0 5.109375 0 5.109375 -0.21875 Z M 3.25 -1.25 C 3.25 -0.3125 2.203125 -0.3125 2.171875 -0.3125 C 1.71875 -0.3125 1.34375 -0.59375 1.34375 -1 C 1.34375 -1.296875 1.5 -2 3.25 -2.078125 Z M 3.25 -1.25 "/>
</g>
<g id="glyph-1-2">
<path d="M 5.65625 0 L 5.65625 -0.4375 C 5.109375 -0.4375 5.046875 -0.4375 5.046875 -0.796875 L 5.046875 -4.03125 L 3.375 -3.96875 L 3.375 -3.53125 C 3.921875 -3.53125 3.984375 -3.53125 3.984375 -3.171875 L 3.984375 -1.46875 C 3.984375 -0.75 3.53125 -0.3125 2.828125 -0.3125 C 2.140625 -0.3125 2.109375 -0.5 2.109375 -0.984375 L 2.109375 -4.03125 L 0.453125 -3.96875 L 0.453125 -3.53125 C 0.984375 -3.53125 1.0625 -3.53125 1.0625 -3.171875 L 1.0625 -1.109375 C 1.0625 -0.125 1.828125 0.046875 2.703125 0.046875 C 2.984375 0.046875 3.59375 0.046875 4.046875 -0.625 L 4.046875 0.046875 Z M 5.65625 0 "/>
</g>
<g id="glyph-1-3">
<path d="M 8.59375 0 L 8.59375 -0.4375 L 7.984375 -0.4375 L 7.984375 -2.734375 C 7.984375 -3.796875 7.359375 -4.03125 6.5625 -4.03125 C 5.625 -4.03125 5.171875 -3.46875 5 -3.1875 C 4.8125 -4 4.015625 -4.03125 3.625 -4.03125 C 2.515625 -4.03125 2.078125 -3.234375 2.015625 -3.09375 L 2 -3.09375 L 2 -4.03125 L 0.453125 -3.96875 L 0.453125 -3.53125 C 0.984375 -3.53125 1.0625 -3.53125 1.0625 -3.171875 L 1.0625 -0.4375 L 0.453125 -0.4375 L 0.453125 0 L 1.578125 -0.03125 L 2.71875 0 L 2.71875 -0.4375 L 2.109375 -0.4375 L 2.109375 -2.28125 C 2.109375 -3.28125 2.9375 -3.671875 3.46875 -3.671875 C 3.8125 -3.671875 4 -3.5 4 -2.8125 L 4 -0.4375 L 3.390625 -0.4375 L 3.390625 0 L 4.515625 -0.03125 L 5.65625 0 L 5.65625 -0.4375 L 5.046875 -0.4375 L 5.046875 -2.28125 C 5.046875 -3.28125 5.875 -3.671875 6.40625 -3.671875 C 6.75 -3.671875 6.9375 -3.5 6.9375 -2.8125 L 6.9375 -0.4375 L 6.328125 -0.4375 L 6.328125 0 L 7.46875 -0.03125 Z M 8.59375 0 "/>
</g>
<g id="glyph-1-4">
<path d="M 2.171875 -0.703125 C 2.171875 -1.109375 1.84375 -1.40625 1.484375 -1.40625 C 1.0625 -1.40625 0.765625 -1.078125 0.765625 -0.703125 C 0.765625 -0.296875 1.109375 0 1.46875 0 C 1.890625 0 2.171875 -0.328125 2.171875 -0.703125 Z M 2.171875 -0.703125 "/>
</g>
<g id="glyph-1-5">
<path d="M 2.625 0 L 2.625 -0.4375 L 2.078125 -0.4375 L 2.078125 -4.03125 L 0.5 -3.96875 L 0.5 -3.53125 C 1.015625 -3.53125 1.078125 -3.53125 1.078125 -3.171875 L 1.078125 -0.4375 L 0.46875 -0.4375 L 0.46875 0 C 1.0625 -0.015625 1.1875 -0.03125 1.5625 -0.03125 C 2 -0.03125 2.109375 -0.015625 2.625 0 Z M 2.171875 -5.421875 C 2.171875 -5.84375 1.828125 -6.140625 1.46875 -6.140625 C 1.09375 -6.140625 0.765625 -5.828125 0.765625 -5.4375 C 0.765625 -5.015625 1.109375 -4.734375 1.46875 -4.734375 C 1.84375 -4.734375 2.171875 -5.03125 2.171875 -5.421875 Z M 2.171875 -5.421875 "/>
</g>
<g id="glyph-1-6">
<path d="M 10.71875 -5.71875 L 10.71875 -6.15625 C 10.28125 -6.125 9.953125 -6.125 9.71875 -6.125 C 9.328125 -6.125 8.90625 -6.125 8.515625 -6.15625 L 8.515625 -5.71875 C 8.75 -5.71875 9.15625 -5.71875 9.421875 -5.609375 L 7.84375 -1.609375 L 6.21875 -5.71875 L 7.078125 -5.71875 L 7.078125 -6.15625 C 6.765625 -6.125 5.890625 -6.125 5.515625 -6.125 C 5.09375 -6.125 4.515625 -6.125 4.109375 -6.15625 L 4.109375 -5.71875 L 4.875 -5.71875 L 5.234375 -4.828125 L 3.953125 -1.609375 L 2.34375 -5.71875 L 3.1875 -5.71875 L 3.1875 -6.15625 C 2.875 -6.125 2 -6.125 1.625 -6.125 C 1.203125 -6.125 0.640625 -6.125 0.234375 -6.15625 L 0.234375 -5.71875 L 1 -5.71875 L 3.1875 -0.171875 C 3.25 -0.015625 3.296875 0.078125 3.53125 0.078125 C 3.78125 0.078125 3.828125 -0.03125 3.875 -0.171875 L 5.46875 -4.21875 L 7.078125 -0.171875 C 7.125 -0.03125 7.171875 0.078125 7.421875 0.078125 C 7.53125 0.078125 7.65625 0.046875 7.71875 -0.046875 L 9.875 -5.5 C 9.9375 -5.65625 9.953125 -5.671875 10.21875 -5.6875 C 10.390625 -5.71875 10.53125 -5.71875 10.71875 -5.71875 Z M 10.71875 -5.71875 "/>
</g>
<g id="glyph-1-7">
<path d="M 5 -1.953125 C 5 -3.125 4.171875 -4.0625 2.65625 -4.0625 C 1.078125 -4.0625 0.296875 -3.078125 0.296875 -1.953125 C 0.296875 -0.84375 1.109375 0.046875 2.640625 0.046875 C 4.25 0.046875 5 -0.890625 5 -1.953125 Z M 3.8125 -2.046875 C 3.8125 -1.28125 3.8125 -0.328125 2.65625 -0.328125 C 1.484375 -0.328125 1.484375 -1.28125 1.484375 -2.046875 C 1.484375 -2.8125 1.484375 -3.703125 2.640625 -3.703125 C 3.8125 -3.703125 3.8125 -2.8125 3.8125 -2.046875 Z M 3.8125 -2.046875 "/>
</g>
<g id="glyph-1-8">
<path d="M 7.921875 -0.875 C 7.921875 -1.0625 7.78125 -1.078125 7.6875 -1.078125 C 7.484375 -1.078125 7.46875 -0.953125 7.46875 -0.875 C 7.421875 -0.4375 7.140625 -0.25 6.890625 -0.25 C 6.34375 -0.25 6.28125 -0.796875 6.171875 -1.5625 C 6.078125 -2.21875 6.015625 -2.703125 5.125 -3.046875 C 5.890625 -3.25 6.625 -3.734375 6.625 -4.484375 C 6.625 -5.421875 5.5625 -6.15625 3.859375 -6.15625 L 0.375 -6.15625 L 0.375 -5.71875 L 1.34375 -5.71875 L 1.34375 -0.4375 L 0.375 -0.4375 L 0.375 0 C 0.703125 -0.03125 1.59375 -0.03125 1.96875 -0.03125 C 2.328125 -0.03125 3.234375 -0.03125 3.5625 0 L 3.5625 -0.4375 L 2.59375 -0.4375 L 2.59375 -2.890625 L 3.6875 -2.890625 C 4.0625 -2.890625 4.3125 -2.8125 4.5625 -2.546875 C 4.8125 -2.296875 4.8125 -2.078125 4.8125 -1.484375 C 4.8125 -0.921875 4.8125 -0.5 5.359375 -0.171875 C 5.75 0.046875 6.3125 0.109375 6.8125 0.109375 C 7.765625 0.109375 7.921875 -0.671875 7.921875 -0.875 Z M 5.203125 -4.484375 C 5.203125 -3.96875 5.1875 -3.25 3.703125 -3.25 L 2.59375 -3.25 L 2.59375 -5.71875 L 3.71875 -5.71875 C 5.1875 -5.71875 5.203125 -5.015625 5.203125 -4.484375 Z M 5.203125 -4.484375 "/>
</g>
<g id="glyph-1-9">
<path d="M 7.75 -5.71875 L 7.75 -6.15625 C 7.265625 -6.125 7.0625 -6.125 6.703125 -6.125 L 5.515625 -6.15625 L 5.515625 -5.71875 C 5.75 -5.71875 6.0625 -5.71875 6.296875 -5.609375 L 4.390625 -1.421875 L 2.453125 -5.71875 L 3.28125 -5.71875 L 3.28125 -6.15625 C 2.953125 -6.125 2.0625 -6.125 1.6875 -6.125 C 1.3125 -6.125 0.59375 -6.125 0.25 -6.15625 L 0.25 -5.71875 L 1.078125 -5.71875 L 3.59375 -0.15625 C 3.703125 0.078125 3.828125 0.078125 4 0.078125 C 4.171875 0.078125 4.296875 0.078125 4.40625 -0.15625 L 6.828125 -5.515625 C 6.890625 -5.625 6.921875 -5.71875 7.59375 -5.71875 Z M 7.75 -5.71875 "/>
</g>
<g id="glyph-2-0">
<path d="M 4.46875 0 L 4.46875 -0.21875 L 4.328125 -0.21875 C 3.921875 -0.21875 3.921875 -0.265625 3.921875 -0.421875 L 3.921875 -2.984375 C 3.921875 -3.140625 3.921875 -3.1875 4.328125 -3.1875 L 4.46875 -3.1875 L 4.46875 -3.40625 L 3.65625 -3.390625 L 2.84375 -3.40625 L 2.84375 -3.1875 L 2.984375 -3.1875 C 3.390625 -3.1875 3.390625 -3.140625 3.390625 -2.984375 L 3.390625 -1.875 L 1.5 -1.875 L 1.5 -2.984375 C 1.5 -3.140625 1.5 -3.1875 1.90625 -3.1875 L 2.046875 -3.1875 L 2.046875 -3.40625 L 1.234375 -3.390625 L 0.40625 -3.40625 L 0.40625 -3.1875 L 0.5625 -3.1875 C 0.96875 -3.1875 0.96875 -3.140625 0.96875 -2.984375 L 0.96875 -0.421875 C 0.96875 -0.265625 0.96875 -0.21875 0.5625 -0.21875 L 0.40625 -0.21875 L 0.40625 0 L 1.234375 -0.015625 L 2.046875 0 L 2.046875 -0.21875 L 1.90625 -0.21875 C 1.5 -0.21875 1.5 -0.265625 1.5 -0.421875 L 1.5 -1.65625 L 3.390625 -1.65625 L 3.390625 -0.421875 C 3.390625 -0.265625 3.390625 -0.21875 2.984375 -0.21875 L 2.84375 -0.21875 L 2.84375 0 L 3.65625 -0.015625 Z M 4.46875 0 "/>
</g>
<g id="glyph-2-1">
<path d="M 2.71875 -0.59375 C 2.71875 -0.671875 2.640625 -0.671875 2.625 -0.671875 C 2.546875 -0.671875 2.53125 -0.65625 2.5 -0.59375 C 2.375 -0.25 2 -0.125 1.71875 -0.125 C 1.3125 -0.125 1.09375 -0.34375 1.015625 -0.4375 C 0.828125 -0.671875 0.828125 -0.984375 0.828125 -1.125 L 2.578125 -1.125 C 2.6875 -1.125 2.71875 -1.125 2.71875 -1.234375 C 2.71875 -1.578125 2.546875 -2.234375 1.609375 -2.234375 C 0.859375 -2.234375 0.328125 -1.6875 0.328125 -1.09375 C 0.328125 -0.46875 0.9375 0.0625 1.6875 0.0625 C 2.484375 0.0625 2.71875 -0.5 2.71875 -0.59375 Z M 2.34375 -1.28125 L 0.828125 -1.28125 C 0.890625 -1.9375 1.375 -2.0625 1.609375 -2.0625 C 2.296875 -2.0625 2.34375 -1.421875 2.34375 -1.28125 Z M 2.34375 -1.28125 "/>
</g>
<g id="glyph-2-2">
<path d="M 3.171875 -0.453125 L 3.171875 -0.71875 L 2.953125 -0.71875 L 2.953125 -0.453125 C 2.953125 -0.40625 2.953125 -0.1875 2.75 -0.1875 C 2.5625 -0.1875 2.5625 -0.40625 2.5625 -0.453125 L 2.5625 -1.484375 C 2.5625 -1.953125 2.046875 -2.234375 1.4375 -2.234375 C 1.125 -2.234375 0.546875 -2.21875 0.546875 -1.796875 C 0.546875 -1.609375 0.6875 -1.53125 0.8125 -1.53125 C 0.953125 -1.53125 1.078125 -1.625 1.078125 -1.796875 C 1.078125 -1.90625 1.015625 -1.984375 0.96875 -2.015625 C 1.125 -2.0625 1.375 -2.0625 1.421875 -2.0625 C 1.84375 -2.0625 2.109375 -1.828125 2.109375 -1.46875 L 2.109375 -1.34375 C 1.625 -1.328125 1.359375 -1.3125 0.984375 -1.171875 C 0.640625 -1.0625 0.359375 -0.84375 0.359375 -0.515625 C 0.359375 -0.0625 0.9375 0.0625 1.328125 0.0625 C 1.71875 0.0625 2.015625 -0.09375 2.171875 -0.359375 C 2.1875 -0.171875 2.3125 0.03125 2.5625 0.03125 C 2.59375 0.03125 3.171875 0.03125 3.171875 -0.453125 Z M 2.109375 -0.703125 C 2.109375 -0.15625 1.515625 -0.109375 1.390625 -0.109375 C 1.09375 -0.109375 0.8125 -0.265625 0.8125 -0.515625 C 0.8125 -0.6875 0.921875 -1.140625 2.109375 -1.203125 Z M 2.109375 -0.703125 "/>
</g>
<g id="glyph-2-3">
<path d="M 3.359375 0 L 3.359375 -0.21875 C 2.984375 -0.21875 2.9375 -0.25 2.9375 -0.5 L 2.9375 -3.453125 L 2.109375 -3.40625 L 2.109375 -3.1875 C 2.46875 -3.1875 2.515625 -3.15625 2.515625 -2.90625 L 2.515625 -1.9375 C 2.40625 -2.03125 2.140625 -2.203125 1.71875 -2.203125 C 0.984375 -2.203125 0.359375 -1.703125 0.359375 -1.078125 C 0.359375 -0.46875 0.921875 0.0625 1.671875 0.0625 C 2.078125 0.0625 2.359375 -0.125 2.5 -0.25 L 2.5 0.0625 Z M 2.5 -0.546875 C 2.265625 -0.171875 1.890625 -0.109375 1.6875 -0.109375 C 1.453125 -0.109375 1.203125 -0.203125 1.03125 -0.421875 C 0.875 -0.640625 0.859375 -0.921875 0.859375 -1.078125 C 0.859375 -1.203125 0.875 -1.53125 1.078125 -1.765625 C 1.25 -1.9375 1.515625 -2.03125 1.765625 -2.03125 C 1.90625 -2.03125 2.265625 -2.015625 2.5 -1.671875 Z M 2.5 -0.546875 "/>
</g>
<g id="glyph-2-4">
<path d="M 3.0625 -1.0625 C 3.0625 -1.6875 2.484375 -2.234375 1.6875 -2.234375 C 0.90625 -2.234375 0.328125 -1.6875 0.328125 -1.0625 C 0.328125 -0.46875 0.921875 0.0625 1.6875 0.0625 C 2.484375 0.0625 3.0625 -0.46875 3.0625 -1.0625 Z M 2.5625 -1.109375 C 2.5625 -0.875 2.5625 -0.125 1.6875 -0.125 C 0.828125 -0.125 0.828125 -0.875 0.828125 -1.109375 C 0.828125 -1.328125 0.828125 -2.0625 1.6875 -2.0625 C 2.5625 -2.0625 2.5625 -1.328125 2.5625 -1.109375 Z M 2.5625 -1.109375 "/>
</g>
<g id="glyph-2-5">
<path d="M 2.328125 -3.125 C 2.328125 -3.34375 2.125 -3.515625 1.78125 -3.515625 C 1.34375 -3.515625 0.828125 -3.234375 0.828125 -2.6875 L 0.828125 -2.140625 L 0.34375 -2.140625 L 0.34375 -1.921875 L 0.828125 -1.921875 L 0.828125 -0.421875 C 0.828125 -0.265625 0.828125 -0.21875 0.515625 -0.21875 L 0.421875 -0.21875 L 0.421875 0 C 0.625 -0.015625 0.859375 -0.015625 1.0625 -0.015625 L 1.78125 0 L 1.78125 -0.21875 L 1.640625 -0.21875 C 1.25 -0.21875 1.25 -0.265625 1.25 -0.421875 L 1.25 -1.921875 L 1.96875 -1.921875 L 1.96875 -2.140625 L 1.234375 -2.140625 L 1.234375 -2.6875 C 1.234375 -3.15625 1.546875 -3.34375 1.78125 -3.34375 C 1.8125 -3.34375 1.90625 -3.34375 1.90625 -3.328125 L 1.90625 -3.3125 C 1.875 -3.28125 1.8125 -3.21875 1.8125 -3.125 C 1.8125 -2.984375 1.921875 -2.859375 2.078125 -2.859375 C 2.234375 -2.859375 2.328125 -2.984375 2.328125 -3.125 Z M 2.328125 -3.125 "/>
</g>
<g id="glyph-2-6">
<path d="M 4.671875 -0.46875 C 4.671875 -0.5625 4.625 -0.5625 4.5625 -0.5625 C 4.484375 -0.5625 4.46875 -0.53125 4.46875 -0.46875 C 4.4375 -0.1875 4.25 -0.0625 4.09375 -0.0625 C 3.75 -0.0625 3.703125 -0.4375 3.65625 -0.75 C 3.65625 -0.890625 3.625 -1.09375 3.609375 -1.15625 C 3.53125 -1.453125 3.28125 -1.625 2.96875 -1.703125 C 3.296875 -1.78125 3.90625 -2.03125 3.90625 -2.484375 C 3.90625 -3 3.140625 -3.40625 2.3125 -3.40625 L 0.421875 -3.40625 L 0.421875 -3.1875 L 0.578125 -3.1875 C 0.984375 -3.1875 0.984375 -3.140625 0.984375 -2.984375 L 0.984375 -0.421875 C 0.984375 -0.265625 0.984375 -0.21875 0.578125 -0.21875 L 0.421875 -0.21875 L 0.421875 0 L 1.234375 -0.015625 L 2.03125 0 L 2.03125 -0.21875 L 1.890625 -0.21875 C 1.484375 -0.21875 1.484375 -0.265625 1.484375 -0.421875 L 1.484375 -1.625 L 2.25 -1.625 C 2.515625 -1.625 2.75 -1.546875 2.90625 -1.421875 C 3.09375 -1.265625 3.09375 -1.15625 3.09375 -0.859375 C 3.09375 -0.46875 3.09375 -0.28125 3.359375 -0.078125 C 3.546875 0.0625 3.84375 0.109375 4.0625 0.109375 C 4.546875 0.109375 4.671875 -0.296875 4.671875 -0.46875 Z M 3.328125 -2.484375 C 3.328125 -1.90625 2.75 -1.78125 2.25 -1.78125 L 1.484375 -1.78125 L 1.484375 -3 C 1.484375 -3.140625 1.5 -3.171875 1.640625 -3.1875 L 2 -3.1875 C 2.5625 -3.1875 3.328125 -3.1875 3.328125 -2.484375 Z M 3.328125 -2.484375 "/>
</g>
<g id="glyph-2-7">
<path d="M 2.375 -0.625 C 2.375 -0.859375 2.265625 -1.015625 2.0625 -1.140625 C 1.875 -1.265625 1.71875 -1.28125 1.296875 -1.34375 C 0.984375 -1.390625 0.59375 -1.453125 0.59375 -1.71875 C 0.59375 -1.890625 0.796875 -2.078125 1.328125 -2.078125 C 1.75 -2.078125 1.984375 -1.921875 2.015625 -1.578125 C 2.03125 -1.5 2.03125 -1.46875 2.125 -1.46875 C 2.234375 -1.46875 2.234375 -1.5 2.234375 -1.609375 L 2.234375 -2.09375 C 2.234375 -2.171875 2.234375 -2.234375 2.140625 -2.234375 C 2.125 -2.234375 2.109375 -2.234375 2.0625 -2.203125 C 2.046875 -2.171875 1.953125 -2.09375 1.9375 -2.09375 C 1.9375 -2.09375 1.921875 -2.09375 1.890625 -2.125 C 1.78125 -2.1875 1.59375 -2.234375 1.34375 -2.234375 C 0.515625 -2.234375 0.34375 -1.859375 0.34375 -1.625 C 0.34375 -1.15625 0.921875 -1.0625 1.390625 -1 C 1.671875 -0.953125 2.140625 -0.875 2.140625 -0.546875 C 2.140625 -0.375 1.984375 -0.109375 1.390625 -0.109375 C 1.046875 -0.109375 0.71875 -0.234375 0.5625 -0.765625 C 0.546875 -0.859375 0.53125 -0.875 0.453125 -0.875 C 0.34375 -0.875 0.34375 -0.828125 0.34375 -0.71875 L 0.34375 -0.078125 C 0.34375 0 0.34375 0.0625 0.421875 0.0625 C 0.46875 0.0625 0.46875 0.046875 0.5625 -0.046875 L 0.703125 -0.171875 C 0.953125 0.046875 1.265625 0.0625 1.390625 0.0625 C 2.21875 0.0625 2.375 -0.375 2.375 -0.625 Z M 2.375 -0.625 "/>
</g>
<g id="glyph-2-8">
<path d="M 2.390625 -1.859375 C 2.390625 -2.046875 2.203125 -2.203125 1.9375 -2.203125 C 1.6875 -2.203125 1.375 -2.078125 1.1875 -1.65625 L 1.171875 -1.65625 L 1.171875 -2.203125 L 0.375 -2.140625 L 0.375 -1.921875 C 0.75 -1.921875 0.796875 -1.890625 0.796875 -1.65625 L 0.796875 -0.421875 C 0.796875 -0.265625 0.796875 -0.21875 0.46875 -0.21875 L 0.375 -0.21875 L 0.375 0 C 0.59375 -0.015625 0.8125 -0.015625 1.015625 -0.015625 L 1.734375 0 L 1.734375 -0.21875 L 1.59375 -0.21875 C 1.21875 -0.21875 1.21875 -0.265625 1.21875 -0.421875 L 1.21875 -1.109375 C 1.21875 -1.578125 1.484375 -2.03125 1.953125 -2.03125 C 1.953125 -2.03125 1.890625 -1.96875 1.890625 -1.859375 C 1.890625 -1.6875 2.03125 -1.609375 2.140625 -1.609375 C 2.265625 -1.609375 2.390625 -1.6875 2.390625 -1.859375 Z M 2.390625 -1.859375 "/>
</g>
<g id="glyph-2-9">
<path d="M 2.71875 -0.59375 C 2.71875 -0.671875 2.65625 -0.671875 2.625 -0.671875 C 2.546875 -0.671875 2.53125 -0.65625 2.515625 -0.59375 C 2.34375 -0.171875 1.984375 -0.125 1.765625 -0.125 C 1.328125 -0.125 0.859375 -0.40625 0.859375 -1.078125 C 0.859375 -1.296875 0.90625 -1.578125 1.09375 -1.78125 C 1.328125 -2.046875 1.625 -2.046875 1.78125 -2.046875 C 1.921875 -2.046875 2.0625 -2.046875 2.234375 -2.015625 C 2.171875 -1.953125 2.125 -1.875 2.125 -1.796875 C 2.125 -1.625 2.25 -1.53125 2.390625 -1.53125 C 2.515625 -1.53125 2.65625 -1.609375 2.65625 -1.796875 C 2.65625 -2.21875 2.109375 -2.234375 1.75 -2.234375 C 0.78125 -2.234375 0.359375 -1.578125 0.359375 -1.078125 C 0.359375 -0.453125 0.9375 0.0625 1.6875 0.0625 C 2.5625 0.0625 2.71875 -0.546875 2.71875 -0.59375 Z M 2.71875 -0.59375 "/>
</g>
<g id="glyph-2-10">
<path d="M 3.40625 0 L 3.40625 -0.21875 L 3.3125 -0.21875 C 2.984375 -0.21875 2.984375 -0.265625 2.984375 -0.421875 L 2.984375 -1.5 C 2.984375 -2.046875 2.609375 -2.203125 2.15625 -2.203125 C 1.578125 -2.203125 1.328125 -1.859375 1.25 -1.75 L 1.25 -3.453125 L 0.40625 -3.40625 L 0.40625 -3.1875 C 0.78125 -3.1875 0.828125 -3.15625 0.828125 -2.90625 L 0.828125 -0.421875 C 0.828125 -0.265625 0.828125 -0.21875 0.5 -0.21875 L 0.40625 -0.21875 L 0.40625 0 C 0.625 -0.015625 0.828125 -0.015625 1.046875 -0.015625 C 1.25 -0.015625 1.46875 -0.015625 1.6875 0 L 1.6875 -0.21875 L 1.59375 -0.21875 C 1.265625 -0.21875 1.265625 -0.265625 1.265625 -0.421875 L 1.265625 -1.28125 C 1.265625 -1.84375 1.78125 -2.03125 2.09375 -2.03125 C 2.46875 -2.03125 2.546875 -1.828125 2.546875 -1.515625 L 2.546875 -0.421875 C 2.546875 -0.265625 2.546875 -0.21875 2.21875 -0.21875 L 2.140625 -0.21875 L 2.140625 0 C 2.34375 -0.015625 2.5625 -0.015625 2.765625 -0.015625 C 2.984375 -0.015625 3.1875 -0.015625 3.40625 0 Z M 3.40625 0 "/>
</g>
</g>
<clipPath id="clip-0">
<path clip-rule="nonzero" d="M 109 59 L 216.648438 59 L 216.648438 89 L 109 89 Z M 109 59 "/>
</clipPath>
<clipPath id="clip-1">
<path clip-rule="nonzero" d="M 109 114 L 216.648438 114 L 216.648438 143 L 109 143 Z M 109 114 "/>
</clipPath>
<clipPath id="clip-2">
<path clip-rule="nonzero" d="M 1 141 L 109 141 L 109 176.53125 L 1 176.53125 Z M 1 141 "/>
</clipPath>
</defs>
<path fill-rule="nonzero" fill="rgb(90.979004%, 92.939758%, 96.076965%)" fill-opacity="1" stroke-width="0.3985" stroke-linecap="butt" stroke-linejoin="miter" stroke="rgb(0.390625%, 12.940979%, 41.175842%)" stroke-opacity="1" stroke-miterlimit="10" d="M 45.19875 8.504312 L -45.199687 8.504312 C -46.852031 8.504312 -48.187969 7.164469 -48.187969 5.516031 L -48.187969 -5.515219 C -48.187969 -7.167563 -46.852031 -8.5035 -45.199687 -8.5035 L 45.19875 -8.5035 C 46.851094 -8.5035 48.190938 -7.167563 48.190938 -5.515219 L 48.190938 5.516031 C 48.190938 7.164469 46.851094 8.504312 45.19875 8.504312 Z M 45.19875 8.504312 " transform="matrix(1, 0, 0, -1, 54.27, 13.684)"/>
<g fill="rgb(0%, 0%, 0%)" fill-opacity="1">
<use xlink:href="#glyph-0-0" x="17.866" y="16.746"/>
<use xlink:href="#glyph-0-1" x="24.393539" y="16.746"/>
<use xlink:href="#glyph-0-2" x="29.002269" y="16.746"/>
<use xlink:href="#glyph-0-3" x="32.606762" y="16.746"/>
<use xlink:href="#glyph-0-4" x="36.193322" y="16.746"/>
<use xlink:href="#glyph-0-5" x="40.290966" y="16.746"/>
<use xlink:href="#glyph-0-6" x="45.410781" y="16.746"/>
<use xlink:href="#glyph-0-4" x="50.530595" y="16.746"/>
<use xlink:href="#glyph-0-2" x="54.62824" y="16.746"/>
</g>
<g fill="rgb(0%, 0%, 0%)" fill-opacity="1">
<use xlink:href="#glyph-0-7" x="61.308208" y="16.746"/>
<use xlink:href="#glyph-0-8" x="67.064637" y="16.746"/>
<use xlink:href="#glyph-0-9" x="69.629027" y="16.746"/>
<use xlink:href="#glyph-0-4" x="73.726672" y="16.746"/>
<use xlink:href="#glyph-0-5" x="77.824317" y="16.746"/>
<use xlink:href="#glyph-0-10" x="82.944131" y="16.746"/>
<use xlink:href="#glyph-0-4" x="86.575523" y="16.746"/>
</g>
<path fill-rule="nonzero" fill="rgb(90.979004%, 92.939758%, 96.076965%)" fill-opacity="1" stroke-width="0.3985" stroke-linecap="butt" stroke-linejoin="miter" stroke="rgb(0.390625%, 12.940979%, 41.175842%)" stroke-opacity="1" stroke-miterlimit="10" d="M 46.101094 -24.491781 L -46.102031 -24.491781 C -47.750469 -24.491781 -49.090312 -25.831625 -49.090312 -27.483969 L -49.090312 -38.511313 C -49.090312 -40.163656 -47.750469 -41.5035 -46.102031 -41.5035 L 46.101094 -41.5035 C 47.753438 -41.5035 49.089375 -40.163656 49.089375 -38.511313 L 49.089375 -27.483969 C 49.089375 -25.831625 47.753438 -24.491781 46.101094 -24.491781 Z M 46.101094 -24.491781 " transform="matrix(1, 0, 0, -1, 54.27, 13.684)"/>
<g fill="rgb(0%, 0%, 0%)" fill-opacity="1">
<use xlink:href="#glyph-0-11" x="8.501" y="48.928"/>
<use xlink:href="#glyph-0-1" x="15.414094" y="48.928"/>
<use xlink:href="#glyph-0-5" x="20.022824" y="48.928"/>
</g>
<g fill="rgb(0%, 0%, 0%)" fill-opacity="1">
<use xlink:href="#glyph-0-12" x="24.882613" y="48.928"/>
</g>
<g fill="rgb(0%, 0%, 0%)" fill-opacity="1">
<use xlink:href="#glyph-0-1" x="29.482376" y="48.928"/>
<use xlink:href="#glyph-0-5" x="34.091106" y="48.928"/>
<use xlink:href="#glyph-0-13" x="39.21092" y="48.928"/>
</g>
<g fill="rgb(0%, 0%, 0%)" fill-opacity="1">
<use xlink:href="#glyph-0-14" x="46.895125" y="48.928"/>
<use xlink:href="#glyph-0-5" x="53.808219" y="48.928"/>
<use xlink:href="#glyph-0-8" x="58.928034" y="48.928"/>
<use xlink:href="#glyph-0-15" x="61.492424" y="48.928"/>
<use xlink:href="#glyph-0-16" x="66.352213" y="48.928"/>
</g>
<g fill="rgb(0%, 0%, 0%)" fill-opacity="1">
<use xlink:href="#glyph-0-17" x="71.992078" y="48.928"/>
<use xlink:href="#glyph-0-0" x="75.578638" y="48.928"/>
<use xlink:href="#glyph-0-16" x="82.106178" y="48.928"/>
<use xlink:href="#glyph-0-18" x="84.670568" y="48.928"/>
<use xlink:href="#glyph-0-9" x="89.790382" y="48.928"/>
<use xlink:href="#glyph-0-16" x="93.888027" y="48.928"/>
<use xlink:href="#glyph-0-19" x="96.452418" y="48.928"/>
</g>
<path fill-rule="nonzero" fill="rgb(90.979004%, 92.939758%, 96.076965%)" fill-opacity="1" d="M 208.488281 65.503906 L 118.085938 65.503906 C 116.433594 65.503906 115.097656 66.84375 115.097656 68.496094 L 115.097656 79.523438 C 115.097656 81.175781 116.433594 82.515625 118.085938 82.515625 L 208.488281 82.515625 C 210.136719 82.515625 211.476562 81.175781 211.476562 79.523438 L 211.476562 68.496094 C 211.476562 66.84375 210.136719 65.503906 208.488281 65.503906 Z M 208.488281 65.503906 "/>
<g clip-path="url(#clip-0)">
<path fill="none" stroke-width="0.3985" stroke-linecap="butt" stroke-linejoin="miter" stroke="rgb(0.390625%, 12.940979%, 41.175842%)" stroke-opacity="1" stroke-miterlimit="10" d="M 154.218281 -51.819906 L 63.815938 -51.819906 C 62.163594 -51.819906 60.827656 -53.15975 60.827656 -54.812094 L 60.827656 -65.839438 C 60.827656 -67.491781 62.163594 -68.831625 63.815938 -68.831625 L 154.218281 -68.831625 C 155.866719 -68.831625 157.206563 -67.491781 157.206563 -65.839438 L 157.206563 -54.812094 C 157.206563 -53.15975 155.866719 -51.819906 154.218281 -51.819906 Z M 154.218281 -51.819906 " transform="matrix(1, 0, 0, -1, 54.27, 13.684)"/>
</g>
<g fill="rgb(0%, 0%, 0%)" fill-opacity="1">
<use xlink:href="#glyph-0-20" x="122.305" y="76.256"/>
</g>
<g fill="rgb(0%, 0%, 0%)" fill-opacity="1">
<use xlink:href="#glyph-0-21" x="129.209128" y="76.256"/>
<use xlink:href="#glyph-0-2" x="133.817858" y="76.256"/>
<use xlink:href="#glyph-0-4" x="137.42235" y="76.256"/>
<use xlink:href="#glyph-0-1" x="141.519995" y="76.256"/>
</g>
<g fill="rgb(0%, 0%, 0%)" fill-opacity="1">
<use xlink:href="#glyph-0-14" x="149.195234" y="76.256"/>
</g>
<g fill="rgb(0%, 0%, 0%)" fill-opacity="1">
<use xlink:href="#glyph-0-5" x="156.117294" y="76.256"/>
<use xlink:href="#glyph-0-8" x="161.237109" y="76.256"/>
<use xlink:href="#glyph-0-15" x="163.801499" y="76.256"/>
<use xlink:href="#glyph-0-16" x="168.661288" y="76.256"/>
</g>
<g fill="rgb(0%, 0%, 0%)" fill-opacity="1">
<use xlink:href="#glyph-0-17" x="174.301154" y="76.256"/>
<use xlink:href="#glyph-0-22" x="177.887714" y="76.256"/>
<use xlink:href="#glyph-0-16" x="186.334062" y="76.256"/>
<use xlink:href="#glyph-0-18" x="188.898453" y="76.256"/>
<use xlink:href="#glyph-0-9" x="194.018267" y="76.256"/>
<use xlink:href="#glyph-0-16" x="198.115912" y="76.256"/>
<use xlink:href="#glyph-0-19" x="200.680302" y="76.256"/>
</g>
<path fill-rule="nonzero" fill="rgb(90.979004%, 92.939758%, 96.076965%)" fill-opacity="1" stroke-width="0.3985" stroke-linecap="butt" stroke-linejoin="miter" stroke="rgb(0.390625%, 12.940979%, 41.175842%)" stroke-opacity="1" stroke-miterlimit="10" d="M 46.101094 -79.151938 L -44.30125 -79.151938 C -45.949687 -79.151938 -47.289531 -80.487875 -47.289531 -82.140219 L -47.289531 -93.167563 C -47.289531 -94.819906 -45.949687 -96.15975 -44.30125 -96.15975 L 46.101094 -96.15975 C 47.753438 -96.15975 49.089375 -94.819906 49.089375 -93.167563 L 49.089375 -82.140219 C 49.089375 -80.487875 47.753438 -79.151938 46.101094 -79.151938 Z M 46.101094 -79.151938 " transform="matrix(1, 0, 0, -1, 54.27, 13.684)"/>
<g fill="rgb(0%, 0%, 0%)" fill-opacity="1">
<use xlink:href="#glyph-0-23" x="10.58" y="103.575"/>
<use xlink:href="#glyph-0-22" x="17.233069" y="103.575"/>
<use xlink:href="#glyph-0-14" x="25.679418" y="103.575"/>
</g>
<g fill="rgb(0%, 0%, 0%)" fill-opacity="1">
<use xlink:href="#glyph-0-24" x="35.659021" y="103.575"/>
</g>
<g fill="rgb(0%, 0%, 0%)" fill-opacity="1">
<use xlink:href="#glyph-0-8" x="42.581082" y="103.575"/>
<use xlink:href="#glyph-0-10" x="45.145472" y="103.575"/>
<use xlink:href="#glyph-0-8" x="48.776864" y="103.575"/>
<use xlink:href="#glyph-0-3" x="51.341254" y="103.575"/>
<use xlink:href="#glyph-0-8" x="54.927814" y="103.575"/>
<use xlink:href="#glyph-0-5" x="57.492205" y="103.575"/>
<use xlink:href="#glyph-0-13" x="62.612019" y="103.575"/>
</g>
<g fill="rgb(0%, 0%, 0%)" fill-opacity="1">
<use xlink:href="#glyph-0-18" x="70.296224" y="103.575"/>
<use xlink:href="#glyph-0-9" x="75.416038" y="103.575"/>
</g>
<g fill="rgb(0%, 0%, 0%)" fill-opacity="1">
<use xlink:href="#glyph-0-25" x="79.262624" y="103.575"/>
<use xlink:href="#glyph-0-21" x="84.382438" y="103.575"/>
<use xlink:href="#glyph-0-26" x="88.991168" y="103.575"/>
<use xlink:href="#glyph-0-1" x="91.555558" y="103.575"/>
<use xlink:href="#glyph-0-2" x="96.164288" y="103.575"/>
</g>
<path fill-rule="nonzero" fill="rgb(90.979004%, 92.939758%, 96.076965%)" fill-opacity="1" d="M 208.488281 120.164062 L 118.085938 120.164062 C 116.433594 120.164062 115.097656 121.5 115.097656 123.152344 L 115.097656 134.183594 C 115.097656 135.832031 116.433594 137.171875 118.085938 137.171875 L 208.488281 137.171875 C 210.136719 137.171875 211.476562 135.832031 211.476562 134.183594 L 211.476562 123.152344 C 211.476562 121.5 210.136719 120.164062 208.488281 120.164062 Z M 208.488281 120.164062 "/>
<g clip-path="url(#clip-1)">
<path fill="none" stroke-width="0.3985" stroke-linecap="butt" stroke-linejoin="miter" stroke="rgb(0.390625%, 12.940979%, 41.175842%)" stroke-opacity="1" stroke-miterlimit="10" d="M 154.218281 -106.480063 L 63.815938 -106.480063 C 62.163594 -106.480063 60.827656 -107.816 60.827656 -109.468344 L 60.827656 -120.499594 C 60.827656 -122.148031 62.163594 -123.487875 63.815938 -123.487875 L 154.218281 -123.487875 C 155.866719 -123.487875 157.206563 -122.148031 157.206563 -120.499594 L 157.206563 -109.468344 C 157.206563 -107.816 155.866719 -106.480063 154.218281 -106.480063 Z M 154.218281 -106.480063 " transform="matrix(1, 0, 0, -1, 54.27, 13.684)"/>
</g>
<g fill="rgb(0%, 0%, 0%)" fill-opacity="1">
<use xlink:href="#glyph-0-27" x="127.12" y="131.63"/>
</g>
<g fill="rgb(0%, 0%, 0%)" fill-opacity="1">
<use xlink:href="#glyph-0-2" x="135.817408" y="131.63"/>
<use xlink:href="#glyph-0-3" x="139.421901" y="131.63"/>
<use xlink:href="#glyph-0-5" x="143.008461" y="131.63"/>
</g>
<g fill="rgb(0%, 0%, 0%)" fill-opacity="1">
<use xlink:href="#glyph-0-28" x="151.194784" y="131.63"/>
</g>
<g fill="rgb(0%, 0%, 0%)" fill-opacity="1">
<use xlink:href="#glyph-0-29" x="161.443379" y="131.63"/>
<use xlink:href="#glyph-0-22" x="166.052109" y="131.63"/>
</g>
<g fill="rgb(0%, 0%, 0%)" fill-opacity="1">
<use xlink:href="#glyph-0-14" x="177.573933" y="131.63"/>
<use xlink:href="#glyph-0-10" x="184.487027" y="131.63"/>
<use xlink:href="#glyph-0-4" x="188.118419" y="131.63"/>
<use xlink:href="#glyph-0-2" x="192.216064" y="131.63"/>
<use xlink:href="#glyph-0-10" x="195.820557" y="131.63"/>
</g>
<path fill-rule="nonzero" fill="rgb(90.979004%, 92.939758%, 96.076965%)" fill-opacity="1" d="M 100.371094 147.492188 L 9.96875 147.492188 C 8.320312 147.492188 6.980469 148.828125 6.980469 150.480469 L 6.980469 168.363281 C 6.980469 170.011719 8.320312 171.351562 9.96875 171.351562 L 100.371094 171.351562 C 102.023438 171.351562 103.359375 170.011719 103.359375 168.363281 L 103.359375 150.480469 C 103.359375 148.828125 102.023438 147.492188 100.371094 147.492188 Z M 100.371094 147.492188 "/>
<g clip-path="url(#clip-2)">
<path fill="none" stroke-width="0.3985" stroke-linecap="butt" stroke-linejoin="miter" stroke="rgb(0.390625%, 12.940979%, 41.175842%)" stroke-opacity="1" stroke-miterlimit="10" d="M 46.101094 -133.808188 L -44.30125 -133.808188 C -45.949687 -133.808188 -47.289531 -135.144125 -47.289531 -136.796469 L -47.289531 -154.679281 C -47.289531 -156.327719 -45.949687 -157.667563 -44.30125 -157.667563 L 46.101094 -157.667563 C 47.753438 -157.667563 49.089375 -156.327719 49.089375 -154.679281 L 49.089375 -136.796469 C 49.089375 -135.144125 47.753438 -133.808188 46.101094 -133.808188 Z M 46.101094 -133.808188 " transform="matrix(1, 0, 0, -1, 54.27, 13.684)"/>
</g>
<g fill="rgb(0.39978%, 12.89978%, 41.19873%)" fill-opacity="1">
<use xlink:href="#glyph-1-0" x="17.821" y="156.962"/>
<use xlink:href="#glyph-1-1" x="27.881301" y="156.962"/>
<use xlink:href="#glyph-1-2" x="33.036981" y="156.962"/>
<use xlink:href="#glyph-1-3" x="38.927906" y="156.962"/>
<use xlink:href="#glyph-1-4" x="47.768776" y="156.962"/>
<use xlink:href="#glyph-1-1" x="50.718722" y="156.962"/>
<use xlink:href="#glyph-1-5" x="55.874402" y="156.962"/>
</g>
<g fill="rgb(0.39978%, 12.89978%, 41.19873%)" fill-opacity="1">
<use xlink:href="#glyph-1-6" x="62.357109" y="156.962"/>
</g>
<g fill="rgb(0.39978%, 12.89978%, 41.19873%)" fill-opacity="1">
<use xlink:href="#glyph-1-7" x="72.435342" y="156.962"/>
<use xlink:href="#glyph-1-8" x="77.743451" y="156.962"/>
</g>
<g fill="rgb(0.39978%, 12.89978%, 41.19873%)" fill-opacity="1">
<use xlink:href="#glyph-1-9" x="84.52205" y="156.962"/>
</g>
<g fill="rgb(0%, 0%, 0%)" fill-opacity="1">
<use xlink:href="#glyph-2-0" x="29.33" y="167.921"/>
<use xlink:href="#glyph-2-1" x="34.216655" y="167.921"/>
<use xlink:href="#glyph-2-2" x="37.26023" y="167.921"/>
<use xlink:href="#glyph-2-3" x="40.652495" y="167.921"/>
</g>
<g fill="rgb(0%, 0%, 0%)" fill-opacity="1">
<use xlink:href="#glyph-2-4" x="46.734662" y="167.921"/>
<use xlink:href="#glyph-2-5" x="50.126928" y="167.921"/>
</g>
<g fill="rgb(0%, 0%, 0%)" fill-opacity="1">
<use xlink:href="#glyph-2-6" x="54.659911" y="167.921"/>
<use xlink:href="#glyph-2-1" x="59.48679" y="167.921"/>
<use xlink:href="#glyph-2-7" x="62.530365" y="167.921"/>
<use xlink:href="#glyph-2-1" x="65.265098" y="167.921"/>
<use xlink:href="#glyph-2-2" x="68.308673" y="167.921"/>
<use xlink:href="#glyph-2-8" x="71.700938" y="167.921"/>
<use xlink:href="#glyph-2-9" x="74.400802" y="167.921"/>
</g>
<g fill="rgb(0%, 0%, 0%)" fill-opacity="1">
<use xlink:href="#glyph-2-10" x="77.275013" y="167.921"/>
</g>
<path fill="none" stroke-width="0.79701" stroke-linecap="butt" stroke-linejoin="miter" stroke="rgb(72.549438%, 59.214783%, 35.68573%)" stroke-opacity="1" stroke-miterlimit="10" d="M -0.00046875 -8.702719 L -0.00046875 -23.585531 " transform="matrix(1, 0, 0, -1, 54.27, 13.684)"/>
<path fill="none" stroke-width="0.6376" stroke-linecap="round" stroke-linejoin="round" stroke="rgb(72.549438%, 59.214783%, 35.68573%)" stroke-opacity="1" stroke-miterlimit="10" d="M -1.555996 2.07375 C -1.423184 1.296406 -0.00130875 0.128438 0.389316 -0.00046875 C -0.00130875 -0.129375 -1.423184 -1.293437 -1.555996 -2.070781 " transform="matrix(0, 1, 1, 0, 54.27, 37.27084)"/>
<path fill="none" stroke-width="0.79701" stroke-linecap="butt" stroke-linejoin="miter" stroke="rgb(72.549438%, 59.214783%, 35.68573%)" stroke-opacity="1" stroke-miterlimit="10" d="M 34.714375 -41.702719 L 73.612813 -51.448813 " transform="matrix(1, 0, 0, -1, 54.27, 13.684)"/>
<path fill="none" stroke-width="0.6376" stroke-linecap="round" stroke-linejoin="round" stroke="rgb(72.549438%, 59.214783%, 35.68573%)" stroke-opacity="1" stroke-miterlimit="10" d="M -1.555614 2.072508 C -1.425371 1.295701 -0.00167987 0.130248 0.389679 -0.0012182 C -0.000582145 -0.131239 -1.42483 -1.293591 -1.556074 -2.071497 " transform="matrix(0.96999, 0.24309, 0.24309, -0.96999, 127.88403, 65.13456)"/>
<path fill="none" stroke-width="0.79701" stroke-linecap="butt" stroke-linejoin="miter" stroke="rgb(72.549438%, 59.214783%, 35.68573%)" stroke-opacity="1" stroke-miterlimit="10" d="M 74.589375 -69.030844 L 36.015156 -78.776938 " transform="matrix(1, 0, 0, -1, 54.27, 13.684)"/>
<path fill="none" stroke-width="0.6376" stroke-linecap="round" stroke-linejoin="round" stroke="rgb(72.549438%, 59.214783%, 35.68573%)" stroke-opacity="1" stroke-miterlimit="10" d="M -1.554531 2.072392 C -1.424806 1.294206 0.000999191 0.128071 0.388188 0.00202735 C 0.00034663 -0.129634 -1.426628 -1.296124 -1.554608 -2.073658 " transform="matrix(-0.96948, 0.24498, 0.24498, 0.96948, 90.286, 92.46153)"/>
<path fill="none" stroke-width="0.79701" stroke-linecap="butt" stroke-linejoin="miter" stroke="rgb(72.549438%, 59.214783%, 35.68573%)" stroke-opacity="1" stroke-miterlimit="10" d="M 35.327656 -96.358969 L 73.901875 -106.105063 " transform="matrix(1, 0, 0, -1, 54.27, 13.684)"/>
<path fill="none" stroke-width="0.6376" stroke-linecap="round" stroke-linejoin="round" stroke="rgb(72.549438%, 59.214783%, 35.68573%)" stroke-opacity="1" stroke-miterlimit="10" d="M -1.554717 2.073811 C -1.426737 1.296277 0.000237097 0.129787 0.388078 -0.00187452 C 0.000889658 -0.127919 -1.424915 -1.294053 -1.55464 -2.072239 " transform="matrix(0.96948, 0.24498, 0.24498, -0.96948, 128.1711, 119.78983)"/>
<path fill="none" stroke-width="0.79701" stroke-linecap="butt" stroke-linejoin="miter" stroke="rgb(72.549438%, 59.214783%, 35.68573%)" stroke-opacity="1" stroke-miterlimit="10" d="M 78.425313 -123.687094 L 44.222188 -133.413656 " transform="matrix(1, 0, 0, -1, 54.27, 13.684)"/>
<path fill="none" stroke-width="0.6376" stroke-linecap="round" stroke-linejoin="round" stroke="rgb(72.549438%, 59.214783%, 35.68573%)" stroke-opacity="1" stroke-miterlimit="10" d="M -1.555798 2.070741 C -1.423381 1.293925 0.00000389216 0.129666 0.389191 -0.00132071 C -0.000750702 -0.130043 -1.425033 -1.296722 -1.552325 -2.072784 " transform="matrix(-0.96182, 0.27353, 0.27353, 0.96182, 98.49188, 147.09794)"/>
</svg>
