<?xml version="1.0" encoding="UTF-8"?>
<svg xmlns="http://www.w3.org/2000/svg" xmlns:xlink="http://www.w3.org/1999/xlink" width="157.94pt" height="89.7pt" viewBox="0 0 157.94 89.7">
<defs>
<g>
<g id="glyph-0-0">
<path d="M 2.90625 -0.984375 C 2.90625 -1.25 2.796875 -1.484375 2.609375 -1.6875 C 2.34375 -1.9375 2.0625 -2 1.796875 -2.046875 L 1.796875 -3.296875 C 2.40625 -3.265625 2.59375 -3 2.640625 -2.859375 C 2.40625 -2.84375 2.375 -2.671875 2.375 -2.609375 C 2.375 -2.4375 2.5 -2.34375 2.640625 -2.34375 C 2.71875 -2.34375 2.90625 -2.375 2.90625 -2.625 C 2.90625 -3.421875 2.03125 -3.5 1.828125 -3.515625 C 1.8125 -3.515625 1.796875 -3.515625 1.796875 -3.609375 L 1.796875 -3.734375 L 1.578125 -3.734375 L 1.578125 -3.515625 C 0.96875 -3.46875 0.484375 -3.046875 0.484375 -2.53125 C 0.484375 -2.265625 0.609375 -2.046875 0.796875 -1.875 C 1.03125 -1.671875 1.265625 -1.609375 1.578125 -1.546875 L 1.578125 -0.171875 C 1.125 -0.1875 0.828125 -0.390625 0.734375 -0.65625 C 0.953125 -0.671875 1.015625 -0.828125 1.015625 -0.921875 C 1.015625 -1.09375 0.890625 -1.1875 0.75 -1.1875 C 0.6875 -1.1875 0.484375 -1.171875 0.484375 -0.90625 C 0.484375 -0.34375 0.921875 0.03125 1.578125 0.046875 L 1.578125 0.28125 L 1.796875 0.28125 L 1.796875 0.046875 C 2.453125 0 2.90625 -0.484375 2.90625 -0.984375 Z M 1.578125 -2.09375 C 1.40625 -2.125 0.8125 -2.234375 0.8125 -2.6875 C 0.8125 -2.984375 1.140625 -3.25 1.578125 -3.296875 Z M 2.578125 -0.84375 C 2.578125 -0.515625 2.265625 -0.21875 1.796875 -0.171875 L 1.796875 -1.5 C 2.5 -1.390625 2.578125 -0.984375 2.578125 -0.84375 Z M 2.578125 -0.84375 "/>
</g>
<g id="glyph-0-1">
<path d="M 3 -1.59375 C 3 -1.953125 3 -3.3125 1.6875 -3.3125 C 0.390625 -3.3125 0.390625 -1.953125 0.390625 -1.59375 C 0.390625 -1.234375 0.390625 0.109375 1.6875 0.109375 C 3 0.109375 3 -1.234375 3 -1.59375 Z M 2.5 -1.65625 C 2.5 -1.3125 2.5 -0.90625 2.421875 -0.609375 C 2.296875 -0.125 1.890625 -0.0625 1.6875 -0.0625 C 1.515625 -0.0625 1.09375 -0.125 0.96875 -0.625 C 0.890625 -0.890625 0.890625 -1.25 0.890625 -1.65625 C 0.890625 -2.03125 0.890625 -2.375 0.96875 -2.65625 C 1.09375 -3.078125 1.484375 -3.15625 1.6875 -3.15625 C 2.0625 -3.15625 2.328125 -2.96875 2.421875 -2.609375 C 2.5 -2.359375 2.5 -1.953125 2.5 -1.65625 Z M 2.5 -1.65625 "/>
</g>
<g id="glyph-0-2">
<path d="M 4.171875 -0.921875 C 4.171875 -1.28125 3.8125 -1.6875 3 -1.78125 C 3.515625 -1.859375 4 -2.15625 4 -2.546875 C 4 -3.015625 3.375 -3.40625 2.640625 -3.40625 L 0.4375 -3.40625 L 0.4375 -3.1875 L 0.578125 -3.1875 C 0.984375 -3.1875 0.984375 -3.140625 0.984375 -2.984375 L 0.984375 -0.421875 C 0.984375 -0.265625 0.984375 -0.21875 0.578125 -0.21875 L 0.4375 -0.21875 L 0.4375 0 L 2.796875 0 C 3.5625 0 4.171875 -0.421875 4.171875 -0.921875 Z M 3.453125 -2.546875 C 3.453125 -2.1875 3.015625 -1.859375 2.46875 -1.859375 L 1.46875 -1.859375 L 1.46875 -3 C 1.46875 -3.15625 1.46875 -3.1875 1.71875 -3.1875 L 2.609375 -3.1875 C 3.140625 -3.1875 3.453125 -2.859375 3.453125 -2.546875 Z M 3.609375 -0.921875 C 3.609375 -0.546875 3.1875 -0.21875 2.609375 -0.21875 L 1.71875 -0.21875 C 1.46875 -0.21875 1.46875 -0.25 1.46875 -0.40625 L 1.46875 -1.6875 L 2.65625 -1.6875 C 3.3125 -1.6875 3.609375 -1.25 3.609375 -0.921875 Z M 3.609375 -0.921875 "/>
</g>
<g id="glyph-0-3">
<path d="M 2.9375 -0.96875 L 2.71875 -0.96875 C 2.71875 -0.875 2.65625 -0.5625 2.578125 -0.515625 C 2.546875 -0.484375 2.125 -0.484375 2.046875 -0.484375 L 1.078125 -0.484375 C 1.40625 -0.71875 1.765625 -1 2.0625 -1.203125 C 2.515625 -1.515625 2.9375 -1.796875 2.9375 -2.328125 C 2.9375 -2.96875 2.328125 -3.3125 1.625 -3.3125 C 0.953125 -3.3125 0.453125 -2.9375 0.453125 -2.4375 C 0.453125 -2.1875 0.671875 -2.140625 0.75 -2.140625 C 0.875 -2.140625 1.03125 -2.234375 1.03125 -2.4375 C 1.03125 -2.609375 0.90625 -2.71875 0.75 -2.71875 C 0.890625 -2.953125 1.1875 -3.09375 1.515625 -3.09375 C 2 -3.09375 2.40625 -2.8125 2.40625 -2.328125 C 2.40625 -1.90625 2.109375 -1.578125 1.734375 -1.265625 L 0.515625 -0.234375 C 0.46875 -0.1875 0.453125 -0.1875 0.453125 -0.15625 L 0.453125 0 L 2.765625 0 Z M 2.9375 -0.96875 "/>
</g>
<g id="glyph-0-4">
<path d="M 3.078125 -0.8125 L 3.078125 -1.03125 L 2.453125 -1.03125 L 2.453125 -3.21875 C 2.453125 -3.34375 2.453125 -3.375 2.3125 -3.375 C 2.21875 -3.375 2.21875 -3.375 2.15625 -3.296875 L 0.3125 -1.03125 L 0.3125 -0.8125 L 1.96875 -0.8125 L 1.96875 -0.421875 C 1.96875 -0.265625 1.96875 -0.21875 1.546875 -0.21875 L 1.359375 -0.21875 L 1.359375 0 L 2.21875 -0.015625 L 3.0625 0 L 3.0625 -0.21875 L 2.890625 -0.21875 C 2.453125 -0.21875 2.453125 -0.265625 2.453125 -0.421875 L 2.453125 -0.8125 Z M 2.015625 -1.03125 L 0.546875 -1.03125 L 2.015625 -2.84375 Z M 2.015625 -1.03125 "/>
</g>
<g id="glyph-0-5">
<path d="M 2.984375 -1.015625 C 2.984375 -1.328125 2.890625 -1.5625 2.625 -1.796875 C 2.40625 -2 2.1875 -2.140625 1.75 -2.140625 C 1.453125 -2.140625 1.140625 -2 0.921875 -1.640625 C 0.9375 -1.859375 0.9375 -2.265625 1.109375 -2.578125 C 1.265625 -2.84375 1.578125 -3.125 2.046875 -3.125 C 2.140625 -3.125 2.375 -3.125 2.515625 -3 C 2.4375 -2.984375 2.3125 -2.90625 2.3125 -2.734375 C 2.3125 -2.578125 2.421875 -2.46875 2.578125 -2.46875 C 2.65625 -2.46875 2.84375 -2.515625 2.84375 -2.75 C 2.84375 -3.015625 2.640625 -3.3125 2.046875 -3.3125 C 1.1875 -3.3125 0.40625 -2.609375 0.40625 -1.578125 C 0.40625 -0.390625 0.984375 0.109375 1.703125 0.109375 C 2.203125 0.109375 2.4375 -0.078125 2.609375 -0.21875 C 2.921875 -0.484375 2.984375 -0.765625 2.984375 -1.015625 Z M 2.46875 -1.03125 C 2.46875 -0.734375 2.46875 -0.546875 2.296875 -0.34375 C 2.15625 -0.1875 1.984375 -0.09375 1.703125 -0.09375 C 0.9375 -0.09375 0.9375 -0.921875 0.9375 -1.125 C 0.9375 -1.515625 1.21875 -1.96875 1.734375 -1.96875 C 2 -1.96875 2.15625 -1.90625 2.3125 -1.703125 C 2.453125 -1.515625 2.46875 -1.3125 2.46875 -1.03125 Z M 2.46875 -1.03125 "/>
</g>
<g id="glyph-1-0">
<path d="M 0.921875 -1.640625 C 0.9375 -1.859375 0.9375 -2.265625 1.109375 -2.578125 C 1.265625 -2.84375 1.578125 -3.125 2.046875 -3.125 C 2.140625 -3.125 2.375 -3.125 2.515625 -3 C 2.4375 -2.984375 2.3125 -2.90625 2.3125 -2.734375 C 2.3125 -2.578125 2.421875 -2.46875 2.578125 -2.46875 C 2.65625 -2.46875 2.84375 -2.515625 2.84375 -2.75 C 2.84375 -3.015625 2.640625 -3.3125 2.046875 -3.3125 C 1.1875 -3.3125 0.40625 -2.609375 0.40625 -1.578125 C 0.40625 -0.390625 0.984375 0.109375 1.703125 0.109375 C 2.203125 0.109375 2.4375 -0.078125 2.609375 -0.21875 C 2.921875 -0.484375 2.984375 -0.765625 2.984375 -1.015625 C 2.984375 -1.328125 2.890625 -1.5625 2.625 -1.796875 C 2.40625 -2 2.1875 -2.140625 1.75 -2.140625 C 1.453125 -2.140625 1.140625 -2 0.921875 -1.640625 Z M 1.703125 -0.09375 C 0.9375 -0.09375 0.9375 -0.921875 0.9375 -1.125 C 0.9375 -1.515625 1.21875 -1.96875 1.734375 -1.96875 C 2 -1.96875 2.15625 -1.90625 2.3125 -1.703125 C 2.453125 -1.515625 2.46875 -1.3125 2.46875 -1.03125 C 2.46875 -0.734375 2.46875 -0.546875 2.296875 -0.34375 C 2.15625 -0.1875 1.984375 -0.09375 1.703125 -0.09375 Z M 1.703125 -0.09375 "/>
</g>
<g id="glyph-1-1">
<path d="M 1.984375 -3.171875 C 1.984375 -3.3125 1.96875 -3.3125 1.796875 -3.3125 C 1.453125 -3 0.890625 -3 0.796875 -3 L 0.71875 -3 L 0.71875 -2.78125 L 0.796875 -2.78125 C 0.90625 -2.78125 1.234375 -2.796875 1.53125 -2.921875 L 1.53125 -0.421875 C 1.53125 -0.28125 1.53125 -0.21875 1 -0.21875 L 0.75 -0.21875 L 0.75 0 C 1.015625 -0.015625 1.46875 -0.015625 1.75 -0.015625 C 2.046875 -0.015625 2.484375 -0.015625 2.765625 0 L 2.765625 -0.21875 L 2.515625 -0.21875 C 1.984375 -0.21875 1.984375 -0.28125 1.984375 -0.421875 Z M 1.984375 -3.171875 "/>
</g>
<g id="glyph-2-0">
<path d="M 1.453125 -0.296875 C 1.453125 -0.46875 1.3125 -0.609375 1.140625 -0.609375 C 0.984375 -0.609375 0.84375 -0.46875 0.84375 -0.296875 C 0.84375 -0.140625 0.984375 0 1.140625 0 C 1.3125 0 1.453125 -0.140625 1.453125 -0.296875 Z M 1.453125 -0.296875 "/>
</g>
<g id="glyph-3-0">
<path d="M 7.921875 -0.875 C 7.921875 -1.0625 7.78125 -1.078125 7.6875 -1.078125 C 7.484375 -1.078125 7.46875 -0.953125 7.46875 -0.875 C 7.421875 -0.4375 7.140625 -0.25 6.890625 -0.25 C 6.34375 -0.25 6.28125 -0.796875 6.171875 -1.5625 C 6.078125 -2.21875 6.015625 -2.703125 5.125 -3.046875 C 5.890625 -3.25 6.625 -3.734375 6.625 -4.484375 C 6.625 -5.421875 5.5625 -6.15625 3.859375 -6.15625 L 0.375 -6.15625 L 0.375 -5.71875 L 1.34375 -5.71875 L 1.34375 -0.4375 L 0.375 -0.4375 L 0.375 0 C 0.703125 -0.03125 1.59375 -0.03125 1.96875 -0.03125 C 2.328125 -0.03125 3.234375 -0.03125 3.5625 0 L 3.5625 -0.4375 L 2.59375 -0.4375 L 2.59375 -2.890625 L 3.6875 -2.890625 C 4.0625 -2.890625 4.3125 -2.8125 4.5625 -2.546875 C 4.8125 -2.296875 4.8125 -2.078125 4.8125 -1.484375 C 4.8125 -0.921875 4.8125 -0.5 5.359375 -0.171875 C 5.75 0.046875 6.3125 0.109375 6.8125 0.109375 C 7.765625 0.109375 7.921875 -0.671875 7.921875 -0.875 Z M 5.203125 -4.484375 C 5.203125 -3.96875 5.1875 -3.25 3.703125 -3.25 L 2.59375 -3.25 L 2.59375 -5.71875 L 3.71875 -5.71875 C 5.1875 -5.71875 5.203125 -5.015625 5.203125 -4.484375 Z M 5.203125 -4.484375 "/>
</g>
<g id="glyph-3-1">
<path d="M 5 -1.953125 C 5 -3.125 4.171875 -4.0625 2.65625 -4.0625 C 1.078125 -4.0625 0.296875 -3.078125 0.296875 -1.953125 C 0.296875 -0.84375 1.109375 0.046875 2.640625 0.046875 C 4.25 0.046875 5 -0.890625 5 -1.953125 Z M 3.8125 -2.046875 C 3.8125 -1.28125 3.8125 -0.328125 2.65625 -0.328125 C 1.484375 -0.328125 1.484375 -1.28125 1.484375 -2.046875 C 1.484375 -2.8125 1.484375 -3.703125 2.640625 -3.703125 C 3.8125 -3.703125 3.8125 -2.8125 3.8125 -2.046875 Z M 3.8125 -2.046875 "/>
</g>
<g id="glyph-3-2">
<path d="M 5.53125 -1.984375 C 5.53125 -3.203125 4.65625 -4.03125 3.34375 -4.03125 C 2.625 -4.03125 2.140625 -3.734375 1.96875 -3.609375 L 1.96875 -6.21875 L 0.375 -6.15625 L 0.375 -5.71875 C 0.90625 -5.71875 0.984375 -5.71875 0.984375 -5.359375 L 0.984375 0 L 1.4375 0 L 1.859375 -0.515625 C 2.140625 -0.21875 2.578125 0.046875 3.21875 0.046875 C 4.625 0.046875 5.53125 -0.796875 5.53125 -1.984375 Z M 4.34375 -2.015625 C 4.34375 -1.625 4.34375 -1.171875 4.15625 -0.84375 C 3.859375 -0.34375 3.3125 -0.3125 3.125 -0.3125 C 2.578125 -0.3125 2.21875 -0.640625 2.03125 -0.9375 L 2.03125 -3.109375 C 2.25 -3.390625 2.6875 -3.671875 3.234375 -3.671875 C 4.34375 -3.671875 4.34375 -2.59375 4.34375 -2.015625 Z M 4.34375 -2.015625 "/>
</g>
<g id="glyph-3-3">
<path d="M 3.53125 -1.109375 L 3.53125 -1.578125 L 3.0625 -1.578125 L 3.0625 -1.125 C 3.0625 -0.5 2.75 -0.328125 2.515625 -0.328125 C 2 -0.328125 2 -0.875 2 -1.078125 L 2 -3.546875 L 3.359375 -3.546875 L 3.359375 -3.984375 L 2 -3.984375 L 2 -5.6875 L 1.546875 -5.6875 C 1.53125 -4.859375 1.109375 -3.921875 0.203125 -3.90625 L 0.203125 -3.546875 L 0.953125 -3.546875 L 0.953125 -1.109375 C 0.953125 -0.078125 1.84375 0.046875 2.390625 0.046875 C 3.09375 0.046875 3.53125 -0.453125 3.53125 -1.109375 Z M 3.53125 -1.109375 "/>
</g>
<g id="glyph-3-4">
<path d="M 2.625 0 L 2.625 -0.4375 L 2.078125 -0.4375 L 2.078125 -4.03125 L 0.5 -3.96875 L 0.5 -3.53125 C 1.015625 -3.53125 1.078125 -3.53125 1.078125 -3.171875 L 1.078125 -0.4375 L 0.46875 -0.4375 L 0.46875 0 C 1.0625 -0.015625 1.1875 -0.03125 1.5625 -0.03125 C 2 -0.03125 2.109375 -0.015625 2.625 0 Z M 2.171875 -5.421875 C 2.171875 -5.84375 1.828125 -6.140625 1.46875 -6.140625 C 1.09375 -6.140625 0.765625 -5.828125 0.765625 -5.4375 C 0.765625 -5.015625 1.109375 -4.734375 1.46875 -4.734375 C 1.84375 -4.734375 2.171875 -5.03125 2.171875 -5.421875 Z M 2.171875 -5.421875 "/>
</g>
<g id="glyph-3-5">
<path d="M 4.40625 -1.046875 C 4.40625 -1.1875 4.28125 -1.1875 4.171875 -1.1875 C 4 -1.1875 4 -1.171875 3.921875 -1.015625 C 3.75 -0.578125 3.34375 -0.328125 2.8125 -0.328125 C 1.546875 -0.328125 1.546875 -1.625 1.546875 -2.03125 C 1.546875 -2.5625 1.546875 -3.671875 2.71875 -3.671875 C 2.796875 -3.671875 3.28125 -3.671875 3.28125 -3.625 L 3.25 -3.578125 C 3.171875 -3.484375 3.125 -3.34375 3.125 -3.203125 C 3.125 -2.84375 3.40625 -2.625 3.71875 -2.625 C 3.984375 -2.625 4.296875 -2.8125 4.296875 -3.21875 C 4.296875 -4.0625 3.046875 -4.0625 2.6875 -4.0625 C 0.96875 -4.0625 0.34375 -2.96875 0.34375 -1.984375 C 0.34375 -0.859375 1.15625 0.046875 2.640625 0.046875 C 2.984375 0.046875 3.421875 0 3.796875 -0.234375 C 4.3125 -0.546875 4.40625 -1.015625 4.40625 -1.046875 Z M 4.40625 -1.046875 "/>
</g>
<g id="glyph-3-6">
<path d="M 3.828125 -1.25 C 3.828125 -1.71875 3.5625 -2 3.40625 -2.140625 C 3 -2.46875 2.71875 -2.515625 2.015625 -2.640625 C 1.578125 -2.703125 1.015625 -2.796875 1.015625 -3.203125 C 1.015625 -3.734375 1.84375 -3.734375 2.046875 -3.734375 C 3.046875 -3.734375 3.078125 -3.203125 3.109375 -2.96875 C 3.109375 -2.84375 3.234375 -2.84375 3.328125 -2.84375 C 3.546875 -2.84375 3.5625 -2.890625 3.5625 -3.109375 L 3.5625 -3.796875 C 3.5625 -3.96875 3.5625 -4.0625 3.375 -4.0625 C 3.296875 -4.0625 3.140625 -3.984375 2.984375 -3.90625 C 2.703125 -4.03125 2.34375 -4.0625 2.046875 -4.0625 C 1.78125 -4.0625 0.34375 -4.0625 0.34375 -2.875 C 0.34375 -1.9375 1.53125 -1.734375 1.84375 -1.6875 C 2.578125 -1.5625 3.171875 -1.46875 3.171875 -0.953125 C 3.171875 -0.3125 2.328125 -0.3125 2.125 -0.3125 C 1.671875 -0.3125 1.078125 -0.421875 0.828125 -1.25 C 0.78125 -1.40625 0.765625 -1.421875 0.578125 -1.421875 C 0.34375 -1.421875 0.34375 -1.375 0.34375 -1.15625 L 0.34375 -0.203125 C 0.34375 -0.046875 0.34375 0.046875 0.53125 0.046875 C 0.59375 0.046875 0.609375 0.046875 0.8125 -0.078125 L 1.046875 -0.21875 C 1.46875 0.046875 1.953125 0.046875 2.125 0.046875 C 2.390625 0.046875 3.828125 0.046875 3.828125 -1.25 Z M 3.828125 -1.25 "/>
</g>
<g id="glyph-3-7">
<path d="M 7.75 -5.71875 L 7.75 -6.15625 C 7.265625 -6.125 7.0625 -6.125 6.703125 -6.125 L 5.515625 -6.15625 L 5.515625 -5.71875 C 5.75 -5.71875 6.0625 -5.71875 6.296875 -5.609375 L 4.390625 -1.421875 L 2.453125 -5.71875 L 3.28125 -5.71875 L 3.28125 -6.15625 C 2.953125 -6.125 2.0625 -6.125 1.6875 -6.125 C 1.3125 -6.125 0.59375 -6.125 0.25 -6.15625 L 0.25 -5.71875 L 1.078125 -5.71875 L 3.59375 -0.15625 C 3.703125 0.078125 3.828125 0.078125 4 0.078125 C 4.171875 0.078125 4.296875 0.078125 4.40625 -0.15625 L 6.828125 -5.515625 C 6.890625 -5.625 6.921875 -5.71875 7.59375 -5.71875 Z M 7.75 -5.71875 "/>
</g>
<g id="glyph-3-8">
<path d="M 7.0625 -2.046875 C 7.0625 -2.25 6.984375 -2.25 6.828125 -2.25 C 6.734375 -2.25 6.625 -2.25 6.609375 -2.09375 C 6.53125 -0.796875 5.34375 -0.328125 4.5 -0.328125 C 4.015625 -0.328125 3.140625 -0.4375 2.53125 -1.09375 C 2.0625 -1.625 2 -2.46875 2 -3.078125 C 2 -4.15625 2.21875 -4.6875 2.578125 -5.109375 C 3 -5.578125 3.734375 -5.828125 4.46875 -5.828125 C 5.265625 -5.828125 6.3125 -5.34375 6.53125 -3.921875 C 6.5625 -3.796875 6.65625 -3.796875 6.796875 -3.796875 C 7.046875 -3.796875 7.0625 -3.828125 7.0625 -4.0625 L 7.0625 -6 C 7.0625 -6.15625 7.0625 -6.265625 6.890625 -6.265625 C 6.796875 -6.265625 6.78125 -6.25 6.703125 -6.171875 L 6.109375 -5.65625 C 5.59375 -6.0625 4.9375 -6.265625 4.28125 -6.265625 C 1.96875 -6.265625 0.59375 -4.890625 0.59375 -3.078125 C 0.59375 -1.296875 1.921875 0.109375 4.296875 0.109375 C 5.984375 0.109375 7.0625 -0.96875 7.0625 -2.046875 Z M 7.0625 -2.046875 "/>
</g>
<g id="glyph-3-9">
<path d="M 6.21875 -3.921875 L 5.953125 -6.09375 L 0.375 -6.09375 L 0.375 -5.65625 L 1.34375 -5.65625 L 1.34375 -0.4375 L 0.375 -0.4375 L 0.375 0 C 0.6875 -0.03125 1.671875 -0.03125 2.046875 -0.03125 C 2.46875 -0.03125 3.484375 -0.03125 3.859375 0 L 3.859375 -0.4375 L 2.640625 -0.4375 L 2.640625 -2.828125 L 3.125 -2.828125 C 4 -2.828125 4.078125 -2.453125 4.078125 -1.78125 L 4.53125 -1.78125 L 4.53125 -4.328125 L 4.078125 -4.328125 C 4.078125 -3.65625 4 -3.28125 3.125 -3.28125 L 2.640625 -3.28125 L 2.640625 -5.65625 L 3.96875 -5.65625 C 5.40625 -5.65625 5.625 -4.984375 5.765625 -3.921875 Z M 6.21875 -3.921875 "/>
</g>
<g id="glyph-3-10">
<path d="M 5.65625 0 L 5.65625 -0.4375 C 5.109375 -0.4375 5.046875 -0.4375 5.046875 -0.796875 L 5.046875 -4.03125 L 3.375 -3.96875 L 3.375 -3.53125 C 3.921875 -3.53125 3.984375 -3.53125 3.984375 -3.171875 L 3.984375 -1.46875 C 3.984375 -0.75 3.53125 -0.3125 2.828125 -0.3125 C 2.140625 -0.3125 2.109375 -0.5 2.109375 -0.984375 L 2.109375 -4.03125 L 0.453125 -3.96875 L 0.453125 -3.53125 C 0.984375 -3.53125 1.0625 -3.53125 1.0625 -3.171875 L 1.0625 -1.109375 C 1.0625 -0.125 1.828125 0.046875 2.703125 0.046875 C 2.984375 0.046875 3.59375 0.046875 4.046875 -0.625 L 4.046875 0.046875 Z M 5.65625 0 "/>
</g>
<g id="glyph-3-11">
<path d="M 5.65625 0 L 5.65625 -0.4375 L 5.046875 -0.4375 L 5.046875 -2.734375 C 5.046875 -3.796875 4.390625 -4.03125 3.609375 -4.03125 C 2.515625 -4.03125 2.078125 -3.234375 2.015625 -3.09375 L 2 -3.09375 L 2 -4.03125 L 0.453125 -3.96875 L 0.453125 -3.53125 C 0.984375 -3.53125 1.0625 -3.53125 1.0625 -3.171875 L 1.0625 -0.4375 L 0.453125 -0.4375 L 0.453125 0 L 1.578125 -0.03125 L 2.71875 0 L 2.71875 -0.4375 L 2.109375 -0.4375 L 2.109375 -2.28125 C 2.109375 -3.28125 2.9375 -3.671875 3.46875 -3.671875 C 3.8125 -3.671875 3.984375 -3.484375 3.984375 -2.8125 L 3.984375 -0.4375 L 3.375 -0.4375 L 3.375 0 L 4.515625 -0.03125 Z M 5.65625 0 "/>
</g>
<g id="glyph-3-12">
<path d="M 5.515625 0 L 5.515625 -0.4375 C 4.984375 -0.4375 4.90625 -0.4375 4.90625 -0.796875 L 4.90625 -6.21875 L 3.296875 -6.15625 L 3.296875 -5.71875 C 3.84375 -5.71875 3.90625 -5.71875 3.90625 -5.359375 L 3.90625 -3.625 C 3.515625 -3.921875 3.09375 -4.03125 2.65625 -4.03125 C 1.203125 -4.03125 0.34375 -3.140625 0.34375 -1.984375 C 0.34375 -0.796875 1.1875 0.046875 2.5625 0.046875 C 3.125 0.046875 3.5625 -0.15625 3.859375 -0.390625 L 3.859375 0.046875 Z M 3.859375 -0.984375 C 3.65625 -0.65625 3.234375 -0.3125 2.65625 -0.3125 C 1.546875 -0.3125 1.546875 -1.375 1.546875 -1.96875 C 1.546875 -2.5 1.546875 -2.875 1.78125 -3.203125 C 2.015625 -3.5625 2.453125 -3.671875 2.765625 -3.671875 C 3.203125 -3.671875 3.578125 -3.484375 3.859375 -3.125 Z M 3.859375 -0.984375 "/>
</g>
<g id="glyph-3-13">
<path d="M 5.15625 -3.546875 C 5.15625 -3.78125 4.984375 -4.09375 4.5625 -4.09375 C 4.125 -4.09375 3.75 -3.875 3.578125 -3.75 C 3.203125 -3.96875 2.796875 -4.03125 2.359375 -4.03125 C 0.984375 -4.03125 0.515625 -3.296875 0.515625 -2.703125 C 0.515625 -2.21875 0.828125 -1.890625 0.984375 -1.765625 C 0.796875 -1.546875 0.6875 -1.25 0.6875 -0.984375 C 0.6875 -0.59375 0.875 -0.28125 1.0625 -0.109375 C 0.390625 0.078125 0.296875 0.453125 0.296875 0.65625 C 0.296875 1.1875 0.921875 1.796875 2.640625 1.796875 C 4.21875 1.796875 5 1.3125 5 0.625 C 5 0.3125 4.890625 -0.234375 4.265625 -0.53125 C 3.75 -0.765625 3.28125 -0.765625 2.390625 -0.765625 L 1.9375 -0.765625 C 1.65625 -0.765625 1.53125 -0.765625 1.375 -0.875 C 1.234375 -1 1.171875 -1.140625 1.171875 -1.328125 C 1.171875 -1.5 1.234375 -1.609375 1.234375 -1.609375 C 1.5625 -1.4375 1.96875 -1.375 2.359375 -1.375 C 3.734375 -1.375 4.203125 -2.109375 4.203125 -2.703125 C 4.203125 -3.0625 4.03125 -3.359375 3.84375 -3.546875 C 4.078125 -3.671875 4.265625 -3.6875 4.375 -3.71875 C 4.375 -3.671875 4.34375 -3.625 4.34375 -3.53125 C 4.34375 -3.296875 4.53125 -3.125 4.75 -3.125 C 4.953125 -3.125 5.15625 -3.28125 5.15625 -3.546875 Z M 3.171875 -2.703125 C 3.171875 -2.3125 3.171875 -1.734375 2.359375 -1.734375 C 1.546875 -1.734375 1.546875 -2.3125 1.546875 -2.703125 C 1.546875 -3.109375 1.546875 -3.671875 2.359375 -3.671875 C 3.171875 -3.671875 3.171875 -3.109375 3.171875 -2.703125 Z M 4.203125 0.65625 C 4.203125 0.953125 3.875 1.4375 2.65625 1.4375 C 1.46875 1.4375 1.09375 1 1.09375 0.640625 C 1.09375 0.125 1.671875 0.125 1.796875 0.125 L 2.890625 0.125 C 3.171875 0.125 4.203125 0.125 4.203125 0.65625 Z M 4.203125 0.65625 "/>
</g>
</g>
<clipPath id="clip-0">
<path clip-rule="nonzero" d="M 27.515625 37 L 124 37 L 124 55 L 27.515625 55 Z M 27.515625 37 "/>
</clipPath>
<clipPath id="clip-1">
<path clip-rule="nonzero" d="M 27.515625 36 L 124 36 L 124 56 L 27.515625 56 Z M 27.515625 36 "/>
</clipPath>
<clipPath id="clip-2">
<path clip-rule="nonzero" d="M 27.515625 42 L 122 42 L 122 61 L 27.515625 61 Z M 27.515625 42 "/>
</clipPath>
</defs>
<path fill="none" stroke-width="0.19925" stroke-linecap="butt" stroke-linejoin="miter" stroke="rgb(50%, 50%, 50%)" stroke-opacity="1" stroke-miterlimit="10" d="M -0.000375 -12.320281 L -0.000375 -8.070281 M 31.308219 -12.320281 L 31.308219 -8.070281 M 62.620719 -12.320281 L 62.620719 -8.070281 M 93.929312 -12.320281 L 93.929312 -8.070281 " transform="matrix(1, 0, 0, -1, 27.516, 61.543)"/>
<path fill="none" stroke-width="0.19925" stroke-linecap="butt" stroke-linejoin="miter" stroke="rgb(50%, 50%, 50%)" stroke-opacity="1" stroke-miterlimit="10" d="M -2.125375 25.488312 L 2.124625 25.488312 " transform="matrix(1, 0, 0, -1, 27.516, 61.543)"/>
<path fill="none" stroke-width="0.3985" stroke-linecap="butt" stroke-linejoin="miter" stroke="rgb(0%, 0%, 0%)" stroke-opacity="1" stroke-miterlimit="10" d="M -0.000375 -10.195281 L 123.245719 -10.195281 " transform="matrix(1, 0, 0, -1, 27.516, 61.543)"/>
<path fill-rule="nonzero" fill="rgb(0%, 0%, 0%)" fill-opacity="1" d="M 152.757812 71.738281 L 149.566406 70.144531 L 150.761719 71.738281 L 149.566406 73.332031 "/>
<path fill="none" stroke-width="0.3985" stroke-linecap="butt" stroke-linejoin="miter" stroke="rgb(0%, 0%, 0%)" stroke-opacity="1" stroke-miterlimit="10" d="M -0.000375 -10.195281 L -0.000375 33.691437 " transform="matrix(1, 0, 0, -1, 27.516, 61.543)"/>
<path fill-rule="nonzero" fill="rgb(0%, 0%, 0%)" fill-opacity="1" d="M 27.515625 25.859375 L 25.921875 29.046875 L 27.515625 27.851562 L 29.109375 29.046875 "/>
<g fill="rgb(0%, 0%, 0%)" fill-opacity="1">
<use xlink:href="#glyph-0-0" x="21.795" y="81.12"/>
<use xlink:href="#glyph-0-1" x="25.187265" y="81.12"/>
<use xlink:href="#glyph-0-2" x="28.579531" y="81.12"/>
</g>
<g fill="rgb(0%, 0%, 0%)" fill-opacity="1">
<use xlink:href="#glyph-0-0" x="53.105" y="81.12"/>
<use xlink:href="#glyph-0-3" x="56.497265" y="81.12"/>
<use xlink:href="#glyph-0-2" x="59.889531" y="81.12"/>
</g>
<g fill="rgb(0%, 0%, 0%)" fill-opacity="1">
<use xlink:href="#glyph-0-0" x="84.415" y="81.12"/>
<use xlink:href="#glyph-0-4" x="87.807265" y="81.12"/>
<use xlink:href="#glyph-0-2" x="91.199531" y="81.12"/>
</g>
<g fill="rgb(0%, 0%, 0%)" fill-opacity="1">
<use xlink:href="#glyph-0-0" x="115.725" y="81.12"/>
<use xlink:href="#glyph-0-5" x="119.117265" y="81.12"/>
<use xlink:href="#glyph-0-2" x="122.509531" y="81.12"/>
</g>
<g fill="rgb(0%, 0%, 0%)" fill-opacity="1">
<use xlink:href="#glyph-0-3" x="8.301" y="37.687"/>
<use xlink:href="#glyph-0-1" x="11.693265" y="37.687"/>
<use xlink:href="#glyph-0-3" x="15.085531" y="37.687"/>
<use xlink:href="#glyph-0-4" x="18.477796" y="37.687"/>
</g>
<g clip-path="url(#clip-0)">
<path fill-rule="nonzero" fill="rgb(79.998779%, 79.998779%, 79.998779%)" fill-opacity="1" d="M 27.515625 54.984375 L 123.011719 54.984375 L 123.011719 37.050781 L 27.515625 37.050781 Z M 27.515625 54.984375 "/>
</g>
<g clip-path="url(#clip-1)">
<path fill="none" stroke-width="0.3985" stroke-linecap="butt" stroke-linejoin="miter" stroke="rgb(50%, 50%, 50%)" stroke-opacity="1" stroke-miterlimit="10" d="M -0.000375 6.558625 L 95.495719 6.558625 L 95.495719 24.492219 L -0.000375 24.492219 Z M -0.000375 6.558625 " transform="matrix(1, 0, 0, -1, 27.516, 61.543)"/>
</g>
<g clip-path="url(#clip-2)">
<path fill-rule="nonzero" fill="rgb(0.390625%, 12.940979%, 41.175842%)" fill-opacity="1" stroke-width="0.3985" stroke-linecap="butt" stroke-linejoin="miter" stroke="rgb(0.390625%, 12.940979%, 41.175842%)" stroke-opacity="1" stroke-miterlimit="10" d="M -0.000375 0.996125 L 93.929312 0.996125 L 93.929312 18.929719 L -0.000375 18.929719 Z M -0.000375 0.996125 " transform="matrix(1, 0, 0, -1, 27.516, 61.543)"/>
</g>
<g fill="rgb(0%, 0%, 0%)" fill-opacity="1">
<use xlink:href="#glyph-1-0" x="126.531" y="47.623"/>
</g>
<g fill="rgb(0%, 0%, 0%)" fill-opacity="1">
<use xlink:href="#glyph-2-0" x="129.921" y="47.623"/>
</g>
<g fill="rgb(0%, 0%, 0%)" fill-opacity="1">
<use xlink:href="#glyph-1-1" x="132.204" y="47.623"/>
</g>
<g fill="rgb(0%, 0%, 0%)" fill-opacity="1">
<use xlink:href="#glyph-1-0" x="124.966" y="53.185"/>
</g>
<g fill="rgb(0%, 0%, 0%)" fill-opacity="1">
<use xlink:href="#glyph-3-0" x="39.744" y="14.561"/>
<use xlink:href="#glyph-3-1" x="47.697197" y="14.561"/>
<use xlink:href="#glyph-3-2" x="53.005306" y="14.561"/>
</g>
<g fill="rgb(0%, 0%, 0%)" fill-opacity="1">
<use xlink:href="#glyph-3-1" x="59.183155" y="14.561"/>
<use xlink:href="#glyph-3-3" x="64.491264" y="14.561"/>
<use xlink:href="#glyph-3-4" x="68.615808" y="14.561"/>
<use xlink:href="#glyph-3-5" x="71.565754" y="14.561"/>
<use xlink:href="#glyph-3-6" x="76.28208" y="14.561"/>
</g>
<g fill="rgb(0%, 0%, 0%)" fill-opacity="1">
<use xlink:href="#glyph-3-7" x="84.00215" y="14.561"/>
</g>
<g fill="rgb(0%, 0%, 0%)" fill-opacity="1">
<use xlink:href="#glyph-3-8" x="91.722221" y="14.561"/>
</g>
<g fill="rgb(0%, 0%, 0%)" fill-opacity="1">
<use xlink:href="#glyph-3-9" x="102.912288" y="14.561"/>
</g>
<g fill="rgb(0%, 0%, 0%)" fill-opacity="1">
<use xlink:href="#glyph-3-10" x="108.704582" y="14.561"/>
<use xlink:href="#glyph-3-11" x="114.595507" y="14.561"/>
<use xlink:href="#glyph-3-12" x="120.486432" y="14.561"/>
<use xlink:href="#glyph-3-4" x="126.377357" y="14.561"/>
<use xlink:href="#glyph-3-11" x="129.327302" y="14.561"/>
<use xlink:href="#glyph-3-13" x="135.218227" y="14.561"/>
</g>
</svg>
