<?xml version="1.0" encoding="UTF-8"?>
<svg xmlns="http://www.w3.org/2000/svg" xmlns:xlink="http://www.w3.org/1999/xlink" width="216.88pt" height="161.12pt" viewBox="0 0 216.88 161.12">
<defs>
<g>
<g id="glyph-0-0">
<path d="M 7.921875 -0.875 C 7.921875 -1.0625 7.78125 -1.078125 7.6875 -1.078125 C 7.484375 -1.078125 7.46875 -0.953125 7.46875 -0.875 C 7.421875 -0.4375 7.140625 -0.25 6.890625 -0.25 C 6.34375 -0.25 6.28125 -0.796875 6.171875 -1.5625 C 6.078125 -2.21875 6.015625 -2.703125 5.125 -3.046875 C 5.890625 -3.25 6.625 -3.734375 6.625 -4.484375 C 6.625 -5.421875 5.5625 -6.15625 3.859375 -6.15625 L 0.375 -6.15625 L 0.375 -5.71875 L 1.34375 -5.71875 L 1.34375 -0.4375 L 0.375 -0.4375 L 0.375 0 C 0.703125 -0.03125 1.59375 -0.03125 1.96875 -0.03125 C 2.328125 -0.03125 3.234375 -0.03125 3.5625 0 L 3.5625 -0.4375 L 2.59375 -0.4375 L 2.59375 -2.890625 L 3.6875 -2.890625 C 4.0625 -2.890625 4.3125 -2.8125 4.5625 -2.546875 C 4.8125 -2.296875 4.8125 -2.078125 4.8125 -1.484375 C 4.8125 -0.921875 4.8125 -0.5 5.359375 -0.171875 C 5.75 0.046875 6.3125 0.109375 6.8125 0.109375 C 7.765625 0.109375 7.921875 -0.671875 7.921875 -0.875 Z M 5.203125 -4.484375 C 5.203125 -3.96875 5.1875 -3.25 3.703125 -3.25 L 2.59375 -3.25 L 2.59375 -5.71875 L 3.71875 -5.71875 C 5.1875 -5.71875 5.203125 -5.015625 5.203125 -4.484375 Z M 5.203125 -4.484375 "/>
</g>
<g id="glyph-0-1">
<path d="M 4.5625 -1.046875 C 4.5625 -1.21875 4.390625 -1.21875 4.328125 -1.21875 C 4.171875 -1.21875 4.15625 -1.171875 4.09375 -1.046875 C 3.890625 -0.578125 3.34375 -0.328125 2.78125 -0.328125 C 1.5 -0.328125 1.484375 -1.484375 1.484375 -1.921875 L 4.265625 -1.921875 C 4.453125 -1.921875 4.5625 -1.921875 4.5625 -2.171875 C 4.5625 -2.375 4.546875 -3.171875 3.96875 -3.65625 C 3.5625 -3.984375 3.015625 -4.0625 2.578125 -4.0625 C 1.046875 -4.0625 0.296875 -3.09375 0.296875 -2.015625 C 0.296875 -0.84375 1.1875 0.046875 2.703125 0.046875 C 4.1875 0.046875 4.5625 -0.890625 4.5625 -1.046875 Z M 3.6875 -2.25 L 1.484375 -2.25 C 1.5 -2.65625 1.546875 -3.703125 2.578125 -3.703125 C 3.625 -3.703125 3.671875 -2.609375 3.6875 -2.25 Z M 3.6875 -2.25 "/>
</g>
<g id="glyph-0-2">
<path d="M 3.828125 -1.25 C 3.828125 -1.71875 3.5625 -2 3.40625 -2.140625 C 3 -2.46875 2.71875 -2.515625 2.015625 -2.640625 C 1.578125 -2.703125 1.015625 -2.796875 1.015625 -3.203125 C 1.015625 -3.734375 1.84375 -3.734375 2.046875 -3.734375 C 3.046875 -3.734375 3.078125 -3.203125 3.109375 -2.96875 C 3.109375 -2.84375 3.234375 -2.84375 3.328125 -2.84375 C 3.546875 -2.84375 3.5625 -2.890625 3.5625 -3.109375 L 3.5625 -3.796875 C 3.5625 -3.96875 3.5625 -4.0625 3.375 -4.0625 C 3.296875 -4.0625 3.140625 -3.984375 2.984375 -3.90625 C 2.703125 -4.03125 2.34375 -4.0625 2.046875 -4.0625 C 1.78125 -4.0625 0.34375 -4.0625 0.34375 -2.875 C 0.34375 -1.9375 1.53125 -1.734375 1.84375 -1.6875 C 2.578125 -1.5625 3.171875 -1.46875 3.171875 -0.953125 C 3.171875 -0.3125 2.328125 -0.3125 2.125 -0.3125 C 1.671875 -0.3125 1.078125 -0.421875 0.828125 -1.25 C 0.78125 -1.40625 0.765625 -1.421875 0.578125 -1.421875 C 0.34375 -1.421875 0.34375 -1.375 0.34375 -1.15625 L 0.34375 -0.203125 C 0.34375 -0.046875 0.34375 0.046875 0.53125 0.046875 C 0.59375 0.046875 0.609375 0.046875 0.8125 -0.078125 L 1.046875 -0.21875 C 1.46875 0.046875 1.953125 0.046875 2.125 0.046875 C 2.390625 0.046875 3.828125 0.046875 3.828125 -1.25 Z M 3.828125 -1.25 "/>
</g>
<g id="glyph-0-3">
<path d="M 5.109375 -0.21875 C 5.109375 -0.4375 4.953125 -0.4375 4.875 -0.4375 C 4.296875 -0.453125 4.296875 -0.53125 4.296875 -0.75 L 4.296875 -2.671875 C 4.296875 -3.46875 3.65625 -4.0625 2.265625 -4.0625 C 1.765625 -4.0625 0.609375 -4.046875 0.609375 -3.21875 C 0.609375 -2.8125 0.921875 -2.625 1.1875 -2.625 C 1.5 -2.625 1.78125 -2.84375 1.78125 -3.203125 C 1.78125 -3.46875 1.625 -3.625 1.59375 -3.65625 C 1.6875 -3.671875 1.90625 -3.703125 2.234375 -3.703125 C 2.875 -3.703125 3.25 -3.375 3.25 -2.671875 L 3.25 -2.390625 C 1.765625 -2.390625 0.25 -2 0.25 -1 C 0.25 -0.109375 1.375 0.046875 2.015625 0.046875 C 2.703125 0.046875 3.171875 -0.234375 3.40625 -0.65625 C 3.40625 -0.4375 3.40625 0 4.375 0 L 4.8125 0 C 4.984375 0 5.109375 0 5.109375 -0.21875 Z M 3.25 -1.25 C 3.25 -0.3125 2.203125 -0.3125 2.171875 -0.3125 C 1.71875 -0.3125 1.34375 -0.59375 1.34375 -1 C 1.34375 -1.296875 1.5 -2 3.25 -2.078125 Z M 3.25 -1.25 "/>
</g>
<g id="glyph-0-4">
<path d="M 4.078125 -3.28125 C 4.078125 -3.734375 3.609375 -4.03125 3.078125 -4.03125 C 2.453125 -4.03125 2.078125 -3.578125 1.875 -3.0625 L 1.859375 -3.0625 L 1.859375 -4.03125 L 0.375 -3.96875 L 0.375 -3.53125 C 0.90625 -3.53125 0.984375 -3.53125 0.984375 -3.171875 L 0.984375 -0.4375 L 0.375 -0.4375 L 0.375 0 L 1.515625 -0.03125 C 1.734375 -0.03125 2.265625 -0.03125 2.734375 0 L 2.734375 -0.4375 L 1.96875 -0.4375 L 1.96875 -1.953125 C 1.96875 -2.609375 2.21875 -3.65625 3.078125 -3.671875 C 2.984375 -3.578125 2.9375 -3.421875 2.9375 -3.28125 C 2.9375 -2.890625 3.25 -2.703125 3.5 -2.703125 C 3.796875 -2.703125 4.078125 -2.90625 4.078125 -3.28125 Z M 4.078125 -3.28125 "/>
</g>
<g id="glyph-0-5">
<path d="M 4.40625 -1.046875 C 4.40625 -1.1875 4.28125 -1.1875 4.171875 -1.1875 C 4 -1.1875 4 -1.171875 3.921875 -1.015625 C 3.75 -0.578125 3.34375 -0.328125 2.8125 -0.328125 C 1.546875 -0.328125 1.546875 -1.625 1.546875 -2.03125 C 1.546875 -2.5625 1.546875 -3.671875 2.71875 -3.671875 C 2.796875 -3.671875 3.28125 -3.671875 3.28125 -3.625 L 3.25 -3.578125 C 3.171875 -3.484375 3.125 -3.34375 3.125 -3.203125 C 3.125 -2.84375 3.40625 -2.625 3.71875 -2.625 C 3.984375 -2.625 4.296875 -2.8125 4.296875 -3.21875 C 4.296875 -4.0625 3.046875 -4.0625 2.6875 -4.0625 C 0.96875 -4.0625 0.34375 -2.96875 0.34375 -1.984375 C 0.34375 -0.859375 1.15625 0.046875 2.640625 0.046875 C 2.984375 0.046875 3.421875 0 3.796875 -0.234375 C 4.3125 -0.546875 4.40625 -1.015625 4.40625 -1.046875 Z M 4.40625 -1.046875 "/>
</g>
<g id="glyph-0-6">
<path d="M 5.65625 0 L 5.65625 -0.4375 L 5.046875 -0.4375 L 5.046875 -2.734375 C 5.046875 -3.796875 4.390625 -4.03125 3.609375 -4.03125 C 2.765625 -4.03125 2.28125 -3.546875 2.046875 -3.1875 L 2.046875 -6.21875 L 0.453125 -6.15625 L 0.453125 -5.71875 C 0.984375 -5.71875 1.0625 -5.71875 1.0625 -5.359375 L 1.0625 -0.4375 L 0.453125 -0.4375 L 0.453125 0 L 1.578125 -0.03125 L 2.71875 0 L 2.71875 -0.4375 L 2.109375 -0.4375 L 2.109375 -2.28125 C 2.109375 -3.28125 2.9375 -3.671875 3.46875 -3.671875 C 3.8125 -3.671875 3.984375 -3.484375 3.984375 -2.8125 L 3.984375 -0.4375 L 3.375 -0.4375 L 3.375 0 L 4.515625 -0.03125 Z M 5.65625 0 "/>
</g>
<g id="glyph-0-7">
<path d="M 6.640625 -4.390625 C 6.640625 -5.375 5.734375 -6.15625 4.203125 -6.15625 L 0.375 -6.15625 L 0.375 -5.71875 L 1.34375 -5.71875 L 1.34375 -0.4375 L 0.375 -0.4375 L 0.375 0 C 0.6875 -0.03125 1.625 -0.03125 1.984375 -0.03125 C 2.359375 -0.03125 3.296875 -0.03125 3.609375 0 L 3.609375 -0.4375 L 2.640625 -0.4375 L 2.640625 -2.6875 L 4.296875 -2.6875 C 5.578125 -2.6875 6.640625 -3.34375 6.640625 -4.390625 Z M 5.234375 -4.390625 C 5.234375 -3.765625 5.234375 -3.078125 3.859375 -3.078125 L 2.59375 -3.078125 L 2.59375 -5.71875 L 3.859375 -5.71875 C 5.234375 -5.71875 5.234375 -5.03125 5.234375 -4.390625 Z M 5.234375 -4.390625 "/>
</g>
<g id="glyph-0-8">
<path d="M 5 -1.953125 C 5 -3.125 4.171875 -4.0625 2.65625 -4.0625 C 1.078125 -4.0625 0.296875 -3.078125 0.296875 -1.953125 C 0.296875 -0.84375 1.109375 0.046875 2.640625 0.046875 C 4.25 0.046875 5 -0.890625 5 -1.953125 Z M 3.8125 -2.046875 C 3.8125 -1.28125 3.8125 -0.328125 2.65625 -0.328125 C 1.484375 -0.328125 1.484375 -1.28125 1.484375 -2.046875 C 1.484375 -2.8125 1.484375 -3.703125 2.640625 -3.703125 C 3.8125 -3.703125 3.8125 -2.8125 3.8125 -2.046875 Z M 3.8125 -2.046875 "/>
</g>
<g id="glyph-0-9">
<path d="M 5.515625 0 L 5.515625 -0.4375 C 4.984375 -0.4375 4.90625 -0.4375 4.90625 -0.796875 L 4.90625 -6.21875 L 3.296875 -6.15625 L 3.296875 -5.71875 C 3.84375 -5.71875 3.90625 -5.71875 3.90625 -5.359375 L 3.90625 -3.625 C 3.515625 -3.921875 3.09375 -4.03125 2.65625 -4.03125 C 1.203125 -4.03125 0.34375 -3.140625 0.34375 -1.984375 C 0.34375 -0.796875 1.1875 0.046875 2.5625 0.046875 C 3.125 0.046875 3.5625 -0.15625 3.859375 -0.390625 L 3.859375 0.046875 Z M 3.859375 -0.984375 C 3.65625 -0.65625 3.234375 -0.3125 2.65625 -0.3125 C 1.546875 -0.3125 1.546875 -1.375 1.546875 -1.96875 C 1.546875 -2.5 1.546875 -2.875 1.78125 -3.203125 C 2.015625 -3.5625 2.453125 -3.671875 2.765625 -3.671875 C 3.203125 -3.671875 3.578125 -3.484375 3.859375 -3.125 Z M 3.859375 -0.984375 "/>
</g>
<g id="glyph-0-10">
<path d="M 5.65625 0 L 5.65625 -0.4375 C 5.109375 -0.4375 5.046875 -0.4375 5.046875 -0.796875 L 5.046875 -4.03125 L 3.375 -3.96875 L 3.375 -3.53125 C 3.921875 -3.53125 3.984375 -3.53125 3.984375 -3.171875 L 3.984375 -1.46875 C 3.984375 -0.75 3.53125 -0.3125 2.828125 -0.3125 C 2.140625 -0.3125 2.109375 -0.5 2.109375 -0.984375 L 2.109375 -4.03125 L 0.453125 -3.96875 L 0.453125 -3.53125 C 0.984375 -3.53125 1.0625 -3.53125 1.0625 -3.171875 L 1.0625 -1.109375 C 1.0625 -0.125 1.828125 0.046875 2.703125 0.046875 C 2.984375 0.046875 3.59375 0.046875 4.046875 -0.625 L 4.046875 0.046875 Z M 5.65625 0 "/>
</g>
<g id="glyph-0-11">
<path d="M 3.53125 -1.109375 L 3.53125 -1.578125 L 3.0625 -1.578125 L 3.0625 -1.125 C 3.0625 -0.5 2.75 -0.328125 2.515625 -0.328125 C 2 -0.328125 2 -0.875 2 -1.078125 L 2 -3.546875 L 3.359375 -3.546875 L 3.359375 -3.984375 L 2 -3.984375 L 2 -5.6875 L 1.546875 -5.6875 C 1.53125 -4.859375 1.109375 -3.921875 0.203125 -3.90625 L 0.203125 -3.546875 L 0.953125 -3.546875 L 0.953125 -1.109375 C 0.953125 -0.078125 1.84375 0.046875 2.390625 0.046875 C 3.09375 0.046875 3.53125 -0.453125 3.53125 -1.109375 Z M 3.53125 -1.109375 "/>
</g>
<g id="glyph-0-12">
<path d="M 9.65625 0 L 9.65625 -0.4375 L 8.6875 -0.4375 L 8.6875 -5.71875 L 9.65625 -5.71875 L 9.65625 -6.15625 L 7.65625 -6.15625 C 7.46875 -6.15625 7.34375 -6.15625 7.234375 -5.921875 L 5.03125 -1.171875 L 2.828125 -5.921875 C 2.71875 -6.15625 2.59375 -6.15625 2.40625 -6.15625 L 0.40625 -6.15625 L 0.40625 -5.71875 L 1.375 -5.71875 L 1.375 -0.703125 C 1.375 -0.5 1.359375 -0.5 1.109375 -0.46875 C 0.890625 -0.4375 0.875 -0.4375 0.640625 -0.4375 L 0.40625 -0.4375 L 0.40625 0 C 0.984375 -0.03125 1.234375 -0.03125 1.625 -0.03125 C 2.015625 -0.03125 2.265625 -0.03125 2.859375 0 L 2.859375 -0.4375 L 2.625 -0.4375 C 2.375 -0.4375 2.359375 -0.4375 2.140625 -0.46875 C 1.890625 -0.5 1.890625 -0.5 1.890625 -0.703125 L 1.890625 -5.59375 L 4.375 -0.234375 C 4.40625 -0.15625 4.484375 0 4.6875 0 C 4.890625 0 4.953125 -0.140625 5 -0.234375 L 7.53125 -5.703125 L 7.546875 -5.703125 L 7.546875 -0.4375 L 6.578125 -0.4375 L 6.578125 0 C 6.890625 -0.03125 7.75 -0.03125 8.109375 -0.03125 C 8.46875 -0.03125 9.34375 -0.03125 9.65625 0 Z M 9.65625 0 "/>
</g>
<g id="glyph-0-13">
<path d="M 5.921875 -2.46875 L 5.46875 -2.46875 C 5.40625 -1.859375 5.25 -0.4375 3.609375 -0.4375 L 2.640625 -0.4375 L 2.640625 -5.71875 L 3.859375 -5.71875 L 3.859375 -6.15625 C 3.484375 -6.125 2.46875 -6.125 2.046875 -6.125 C 1.671875 -6.125 0.6875 -6.125 0.375 -6.15625 L 0.375 -5.71875 L 1.34375 -5.71875 L 1.34375 -0.4375 L 0.375 -0.4375 L 0.375 0 L 5.65625 0 Z M 5.921875 -2.46875 "/>
</g>
<g id="glyph-0-14">
<path d="M 5.296875 -1.828125 C 5.296875 -2.796875 4.5625 -3.53125 3.71875 -3.71875 L 2.40625 -3.984375 C 1.5 -4.1875 1.484375 -4.796875 1.484375 -4.921875 C 1.484375 -5.34375 1.765625 -5.859375 2.65625 -5.859375 C 4.078125 -5.859375 4.4375 -4.890625 4.53125 -4.296875 C 4.5625 -4.15625 4.5625 -4.109375 4.765625 -4.109375 C 4.984375 -4.109375 5 -4.15625 5 -4.375 L 5 -6 C 5 -6.15625 5 -6.265625 4.8125 -6.265625 C 4.734375 -6.265625 4.734375 -6.25 4.625 -6.15625 L 4.21875 -5.765625 C 3.71875 -6.15625 3.140625 -6.265625 2.65625 -6.265625 C 1.21875 -6.265625 0.59375 -5.359375 0.59375 -4.453125 C 0.59375 -3.8125 0.953125 -3.40625 1.046875 -3.3125 C 1.53125 -2.8125 1.828125 -2.75 2.765625 -2.5625 C 2.90625 -2.53125 3.046875 -2.5 3.1875 -2.46875 C 3.71875 -2.359375 3.859375 -2.328125 4.15625 -2.03125 C 4.171875 -2.015625 4.40625 -1.765625 4.40625 -1.375 C 4.40625 -1.1875 4.34375 -0.328125 3.1875 -0.328125 C 2.65625 -0.328125 1.125 -0.4375 1.046875 -1.828125 C 1.046875 -1.984375 1.046875 -2.046875 0.828125 -2.046875 C 0.59375 -2.046875 0.59375 -1.984375 0.59375 -1.78125 L 0.59375 -0.15625 C 0.59375 0.015625 0.59375 0.109375 0.765625 0.109375 C 0.84375 0.109375 0.859375 0.109375 0.9375 0.03125 C 1 -0.015625 1.1875 -0.234375 1.359375 -0.375 C 1.90625 0.015625 2.703125 0.109375 3.203125 0.109375 C 4.71875 0.109375 5.296875 -0.890625 5.296875 -1.828125 Z M 5.296875 -1.828125 "/>
</g>
<g id="glyph-0-15">
<path d="M 2.625 0 L 2.625 -0.4375 L 2.078125 -0.4375 L 2.078125 -4.03125 L 0.5 -3.96875 L 0.5 -3.53125 C 1.015625 -3.53125 1.078125 -3.53125 1.078125 -3.171875 L 1.078125 -0.4375 L 0.46875 -0.4375 L 0.46875 0 C 1.0625 -0.015625 1.1875 -0.03125 1.5625 -0.03125 C 2 -0.03125 2.109375 -0.015625 2.625 0 Z M 2.171875 -5.421875 C 2.171875 -5.84375 1.828125 -6.140625 1.46875 -6.140625 C 1.09375 -6.140625 0.765625 -5.828125 0.765625 -5.4375 C 0.765625 -5.015625 1.109375 -4.734375 1.46875 -4.734375 C 1.84375 -4.734375 2.171875 -5.03125 2.171875 -5.421875 Z M 2.171875 -5.421875 "/>
</g>
<g id="glyph-0-16">
<path d="M 5.65625 0 L 5.65625 -0.4375 L 5.046875 -0.4375 L 5.046875 -2.734375 C 5.046875 -3.796875 4.390625 -4.03125 3.609375 -4.03125 C 2.515625 -4.03125 2.078125 -3.234375 2.015625 -3.09375 L 2 -3.09375 L 2 -4.03125 L 0.453125 -3.96875 L 0.453125 -3.53125 C 0.984375 -3.53125 1.0625 -3.53125 1.0625 -3.171875 L 1.0625 -0.4375 L 0.453125 -0.4375 L 0.453125 0 L 1.578125 -0.03125 L 2.71875 0 L 2.71875 -0.4375 L 2.109375 -0.4375 L 2.109375 -2.28125 C 2.109375 -3.28125 2.9375 -3.671875 3.46875 -3.671875 C 3.8125 -3.671875 3.984375 -3.484375 3.984375 -2.8125 L 3.984375 -0.4375 L 3.375 -0.4375 L 3.375 0 L 4.515625 -0.03125 Z M 5.65625 0 "/>
</g>
<g id="glyph-0-17">
<path d="M 7.53125 -3.03125 C 7.53125 -4.9375 6.21875 -6.15625 4.328125 -6.15625 L 0.375 -6.15625 L 0.375 -5.71875 L 1.34375 -5.71875 L 1.34375 -0.4375 L 0.375 -0.4375 L 0.375 0 L 4.34375 0 C 6.125 0 7.53125 -1.078125 7.53125 -3.03125 Z M 6.171875 -3.03125 C 6.171875 -2.15625 6.171875 -0.4375 3.96875 -0.4375 L 2.59375 -0.4375 L 2.59375 -5.71875 L 3.953125 -5.71875 C 4.65625 -5.71875 5.328125 -5.484375 5.71875 -5 C 6.109375 -4.5 6.171875 -3.859375 6.171875 -3.03125 Z M 6.171875 -3.03125 "/>
</g>
<g id="glyph-0-18">
<path d="M 4.703125 -6.4375 C 4.703125 -6.609375 4.578125 -6.734375 4.421875 -6.734375 C 4.234375 -6.734375 4.171875 -6.59375 4.125 -6.46875 L 0.640625 1.765625 C 0.59375 1.890625 0.59375 1.953125 0.59375 1.953125 C 0.59375 2.125 0.71875 2.25 0.875 2.25 C 1.0625 2.25 1.125 2.109375 1.171875 1.984375 L 4.65625 -6.25 C 4.703125 -6.375 4.703125 -6.4375 4.703125 -6.4375 Z M 4.703125 -6.4375 "/>
</g>
<g id="glyph-0-19">
<path d="M 7.609375 0 L 7.609375 -0.4375 L 6.75 -0.4375 L 4.390625 -6.03125 C 4.296875 -6.28125 4.15625 -6.28125 4 -6.28125 C 3.84375 -6.28125 3.703125 -6.28125 3.609375 -6.03125 L 1.34375 -0.640625 C 1.28125 -0.5 1.28125 -0.5 1.046875 -0.46875 C 0.890625 -0.453125 0.71875 -0.4375 0.578125 -0.4375 L 0.390625 -0.4375 L 0.390625 0 C 0.890625 -0.015625 1 -0.03125 1.484375 -0.03125 C 1.828125 -0.03125 2.109375 -0.03125 2.671875 0 L 2.671875 -0.4375 C 2.4375 -0.4375 2.125 -0.4375 1.875 -0.53125 L 2.375 -1.71875 L 4.859375 -1.71875 L 5.390625 -0.4375 L 4.546875 -0.4375 L 4.546875 0 C 4.859375 -0.03125 5.765625 -0.03125 6.140625 -0.03125 C 6.515625 -0.03125 7.28125 -0.03125 7.609375 0 Z M 4.65625 -2.15625 L 2.5625 -2.15625 L 3.609375 -4.671875 Z M 4.65625 -2.15625 "/>
</g>
<g id="glyph-0-20">
<path d="M 3.65625 0 L 3.65625 -0.4375 L 2.640625 -0.4375 L 2.640625 -5.71875 L 3.65625 -5.71875 L 3.65625 -6.15625 C 3.34375 -6.125 2.375 -6.125 2 -6.125 C 1.625 -6.125 0.640625 -6.125 0.328125 -6.15625 L 0.328125 -5.71875 L 1.34375 -5.71875 L 1.34375 -0.4375 L 0.328125 -0.4375 L 0.328125 0 C 0.640625 -0.03125 1.609375 -0.03125 1.984375 -0.03125 C 2.375 -0.03125 3.34375 -0.03125 3.65625 0 Z M 3.65625 0 "/>
</g>
<g id="glyph-0-21">
<path d="M 6.65625 -2.46875 L 6.203125 -2.46875 C 6.015625 -1.328125 5.8125 -0.4375 4.078125 -0.4375 L 2.640625 -0.4375 L 2.640625 -2.9375 L 3.171875 -2.9375 C 4.046875 -2.9375 4.140625 -2.546875 4.140625 -1.890625 L 4.59375 -1.890625 L 4.59375 -4.4375 L 4.140625 -4.4375 C 4.140625 -3.78125 4.046875 -3.375 3.171875 -3.375 L 2.640625 -3.375 L 2.640625 -5.65625 L 4.0625 -5.65625 C 5.484375 -5.65625 5.765625 -5.046875 5.90625 -3.921875 L 6.375 -3.921875 L 6.09375 -6.09375 L 0.375 -6.09375 L 0.375 -5.65625 L 1.34375 -5.65625 L 1.34375 -0.4375 L 0.375 -0.4375 L 0.375 0 L 6.25 0 Z M 6.65625 -2.46875 "/>
</g>
<g id="glyph-0-22">
<path d="M 5.15625 -3.546875 C 5.15625 -3.78125 4.984375 -4.09375 4.5625 -4.09375 C 4.125 -4.09375 3.75 -3.875 3.578125 -3.75 C 3.203125 -3.96875 2.796875 -4.03125 2.359375 -4.03125 C 0.984375 -4.03125 0.515625 -3.296875 0.515625 -2.703125 C 0.515625 -2.21875 0.828125 -1.890625 0.984375 -1.765625 C 0.796875 -1.546875 0.6875 -1.25 0.6875 -0.984375 C 0.6875 -0.59375 0.875 -0.28125 1.0625 -0.109375 C 0.390625 0.078125 0.296875 0.453125 0.296875 0.65625 C 0.296875 1.1875 0.921875 1.796875 2.640625 1.796875 C 4.21875 1.796875 5 1.3125 5 0.625 C 5 0.3125 4.890625 -0.234375 4.265625 -0.53125 C 3.75 -0.765625 3.28125 -0.765625 2.390625 -0.765625 L 1.9375 -0.765625 C 1.65625 -0.765625 1.53125 -0.765625 1.375 -0.875 C 1.234375 -1 1.171875 -1.140625 1.171875 -1.328125 C 1.171875 -1.5 1.234375 -1.609375 1.234375 -1.609375 C 1.5625 -1.4375 1.96875 -1.375 2.359375 -1.375 C 3.734375 -1.375 4.203125 -2.109375 4.203125 -2.703125 C 4.203125 -3.0625 4.03125 -3.359375 3.84375 -3.546875 C 4.078125 -3.671875 4.265625 -3.6875 4.375 -3.71875 C 4.375 -3.671875 4.34375 -3.625 4.34375 -3.53125 C 4.34375 -3.296875 4.53125 -3.125 4.75 -3.125 C 4.953125 -3.125 5.15625 -3.28125 5.15625 -3.546875 Z M 3.171875 -2.703125 C 3.171875 -2.3125 3.171875 -1.734375 2.359375 -1.734375 C 1.546875 -1.734375 1.546875 -2.3125 1.546875 -2.703125 C 1.546875 -3.109375 1.546875 -3.671875 2.359375 -3.671875 C 3.171875 -3.671875 3.171875 -3.109375 3.171875 -2.703125 Z M 4.203125 0.65625 C 4.203125 0.953125 3.875 1.4375 2.65625 1.4375 C 1.46875 1.4375 1.09375 1 1.09375 0.640625 C 1.09375 0.125 1.671875 0.125 1.796875 0.125 L 2.890625 0.125 C 3.171875 0.125 4.203125 0.125 4.203125 0.65625 Z M 4.203125 0.65625 "/>
</g>
<g id="glyph-1-0">
<path d="M -1.671875 -6.9375 C -2.453125 -6.9375 -3.078125 -6.28125 -3.21875 -5.078125 C -3.390625 -6.078125 -3.953125 -6.640625 -4.609375 -6.640625 C -5.4375 -6.640625 -6.15625 -5.84375 -6.15625 -4.359375 L -6.15625 -0.375 L -5.71875 -0.375 L -5.71875 -1.34375 L -0.4375 -1.34375 L -0.4375 -0.375 L 0 -0.375 L 0 -4.640625 C 0 -6.171875 -0.796875 -6.9375 -1.671875 -6.9375 Z M -4.609375 -5.34375 C -3.953125 -5.34375 -3.375 -4.90625 -3.375 -4.015625 L -3.375 -2.53125 L -5.71875 -2.53125 L -5.71875 -4.25 C -5.71875 -5.3125 -4.796875 -5.34375 -4.609375 -5.34375 Z M -1.6875 -5.59375 C -1.0625 -5.59375 -0.4375 -5.234375 -0.4375 -4.265625 L -0.4375 -2.53125 L -3.015625 -2.53125 L -3.015625 -4.34375 C -3.015625 -4.5 -3.015625 -4.96875 -2.65625 -5.28125 C -2.34375 -5.53125 -1.96875 -5.59375 -1.6875 -5.59375 Z M -1.6875 -5.59375 "/>
</g>
<g id="glyph-1-1">
<path d="M 0 -5.65625 L -0.4375 -5.65625 C -0.4375 -5.109375 -0.4375 -5.046875 -0.796875 -5.046875 L -4.03125 -5.046875 L -3.96875 -3.375 L -3.53125 -3.375 C -3.53125 -3.921875 -3.53125 -3.984375 -3.171875 -3.984375 L -1.46875 -3.984375 C -0.75 -3.984375 -0.3125 -3.53125 -0.3125 -2.828125 C -0.3125 -2.140625 -0.5 -2.109375 -0.984375 -2.109375 L -4.03125 -2.109375 L -3.96875 -0.453125 L -3.53125 -0.453125 C -3.53125 -0.984375 -3.53125 -1.0625 -3.171875 -1.0625 L -1.109375 -1.0625 C -0.125 -1.0625 0.046875 -1.828125 0.046875 -2.703125 C 0.046875 -2.984375 0.046875 -3.59375 -0.625 -4.046875 L 0.046875 -4.046875 Z M 0 -5.65625 "/>
</g>
<g id="glyph-1-2">
<path d="M 0 -2.625 L -0.4375 -2.625 L -0.4375 -2.078125 L -4.03125 -2.078125 L -3.96875 -0.5 L -3.53125 -0.5 C -3.53125 -1.015625 -3.53125 -1.078125 -3.171875 -1.078125 L -0.4375 -1.078125 L -0.4375 -0.46875 L 0 -0.46875 C -0.015625 -1.0625 -0.03125 -1.1875 -0.03125 -1.5625 C -0.03125 -2 -0.015625 -2.109375 0 -2.625 Z M -5.421875 -2.171875 C -5.84375 -2.171875 -6.140625 -1.828125 -6.140625 -1.46875 C -6.140625 -1.09375 -5.828125 -0.765625 -5.4375 -0.765625 C -5.015625 -0.765625 -4.734375 -1.109375 -4.734375 -1.46875 C -4.734375 -1.84375 -5.03125 -2.171875 -5.421875 -2.171875 Z M -5.421875 -2.171875 "/>
</g>
<g id="glyph-1-3">
<path d="M 0 -2.6875 L -0.4375 -2.6875 L -0.4375 -2.078125 L -6.21875 -2.078125 L -6.15625 -0.46875 L -5.71875 -0.46875 C -5.71875 -1 -5.71875 -1.078125 -5.359375 -1.078125 L -0.4375 -1.078125 L -0.4375 -0.46875 L 0 -0.46875 L -0.03125 -1.5625 Z M 0 -2.6875 "/>
</g>
<g id="glyph-1-4">
<path d="M 0 -5.515625 L -0.4375 -5.515625 C -0.4375 -4.984375 -0.4375 -4.90625 -0.796875 -4.90625 L -6.21875 -4.90625 L -6.15625 -3.296875 L -5.71875 -3.296875 C -5.71875 -3.84375 -5.71875 -3.90625 -5.359375 -3.90625 L -3.625 -3.90625 C -3.921875 -3.515625 -4.03125 -3.09375 -4.03125 -2.65625 C -4.03125 -1.203125 -3.140625 -0.34375 -1.984375 -0.34375 C -0.796875 -0.34375 0.046875 -1.1875 0.046875 -2.5625 C 0.046875 -3.125 -0.15625 -3.5625 -0.390625 -3.859375 L 0.046875 -3.859375 Z M -0.984375 -3.859375 C -0.65625 -3.65625 -0.3125 -3.234375 -0.3125 -2.65625 C -0.3125 -1.546875 -1.375 -1.546875 -1.96875 -1.546875 C -2.5 -1.546875 -2.875 -1.546875 -3.203125 -1.78125 C -3.5625 -2.015625 -3.671875 -2.453125 -3.671875 -2.765625 C -3.671875 -3.203125 -3.484375 -3.578125 -3.125 -3.859375 Z M -0.984375 -3.859375 "/>
</g>
<g id="glyph-2-0">
<path d="M 0 7.609375 L 0.4375 7.609375 L 0.4375 6.75 L 6.03125 4.390625 C 6.28125 4.296875 6.28125 4.15625 6.28125 4 C 6.28125 3.84375 6.28125 3.703125 6.03125 3.609375 L 0.640625 1.34375 C 0.5 1.28125 0.5 1.28125 0.46875 1.046875 C 0.453125 0.890625 0.4375 0.71875 0.4375 0.578125 L 0.4375 0.390625 L 0 0.390625 C 0.015625 0.890625 0.03125 1 0.03125 1.484375 C 0.03125 1.828125 0.03125 2.109375 0 2.671875 L 0.4375 2.671875 C 0.4375 2.4375 0.4375 2.125 0.53125 1.875 L 1.71875 2.375 L 1.71875 4.859375 L 0.4375 5.390625 L 0.4375 4.546875 L 0 4.546875 C 0.03125 4.859375 0.03125 5.765625 0.03125 6.140625 C 0.03125 6.515625 0.03125 7.28125 0 7.609375 Z M 2.15625 4.65625 L 2.15625 2.5625 L 4.671875 3.609375 Z M 2.15625 4.65625 "/>
</g>
<g id="glyph-2-1">
<path d="M 0 5.65625 L 0.4375 5.65625 L 0.4375 5.046875 L 2.734375 5.046875 C 3.796875 5.046875 4.03125 4.390625 4.03125 3.609375 C 4.03125 2.515625 3.234375 2.078125 3.09375 2.015625 L 3.09375 2 L 4.03125 2 L 3.96875 0.453125 L 3.53125 0.453125 C 3.53125 0.984375 3.53125 1.0625 3.171875 1.0625 L 0.4375 1.0625 L 0.4375 0.453125 L 0 0.453125 L 0.03125 1.578125 L 0 2.71875 L 0.4375 2.71875 L 0.4375 2.109375 L 2.28125 2.109375 C 3.28125 2.109375 3.671875 2.9375 3.671875 3.46875 C 3.671875 3.8125 3.484375 3.984375 2.8125 3.984375 L 0.4375 3.984375 L 0.4375 3.375 L 0 3.375 L 0.03125 4.515625 Z M 0 5.65625 "/>
</g>
<g id="glyph-2-2">
<path d="M 0.21875 5.109375 C 0.4375 5.109375 0.4375 4.953125 0.4375 4.875 C 0.453125 4.296875 0.53125 4.296875 0.75 4.296875 L 2.671875 4.296875 C 3.46875 4.296875 4.0625 3.65625 4.0625 2.265625 C 4.0625 1.765625 4.046875 0.609375 3.21875 0.609375 C 2.8125 0.609375 2.625 0.921875 2.625 1.1875 C 2.625 1.5 2.84375 1.78125 3.203125 1.78125 C 3.46875 1.78125 3.625 1.625 3.65625 1.59375 C 3.671875 1.6875 3.703125 1.90625 3.703125 2.234375 C 3.703125 2.875 3.375 3.25 2.671875 3.25 L 2.390625 3.25 C 2.390625 1.765625 2 0.25 1 0.25 C 0.109375 0.25 -0.046875 1.375 -0.046875 2.015625 C -0.046875 2.703125 0.234375 3.171875 0.65625 3.40625 C 0.4375 3.40625 0 3.40625 0 4.375 L 0 4.8125 C 0 4.984375 0 5.109375 0.21875 5.109375 Z M 1.25 3.25 C 0.3125 3.25 0.3125 2.203125 0.3125 2.171875 C 0.3125 1.71875 0.59375 1.34375 1 1.34375 C 1.296875 1.34375 2 1.5 2.078125 3.25 Z M 1.25 3.25 "/>
</g>
<g id="glyph-2-3">
<path d="M 0 2.6875 L 0.4375 2.6875 L 0.4375 2.078125 L 6.21875 2.078125 L 6.15625 0.46875 L 5.71875 0.46875 C 5.71875 1 5.71875 1.078125 5.359375 1.078125 L 0.4375 1.078125 L 0.4375 0.46875 L 0 0.46875 L 0.03125 1.5625 Z M 0 2.6875 "/>
</g>
<g id="glyph-2-4">
<path d="M 3.546875 5.34375 L 3.984375 5.34375 C 3.953125 5.09375 3.953125 4.875 3.953125 4.625 C 3.953125 4.34375 3.96875 4.078125 3.984375 3.8125 L 3.546875 3.8125 C 3.546875 3.8125 3.546875 4.203125 3.4375 4.203125 C 3.4375 4.203125 3.421875 4.203125 3.328125 4.15625 L 1.140625 3.09375 L 3.546875 1.921875 L 3.546875 2.390625 L 3.984375 2.390625 L 3.953125 1.28125 C 3.953125 0.953125 3.953125 0.78125 3.984375 0.25 L 3.546875 0.25 L 3.546875 0.8125 L 0 2.53125 C -0.734375 2.21875 -1.4375 1.890625 -1.4375 1.1875 C -1.4375 1.140625 -1.4375 1.078125 -1.40625 1.015625 C -1.328125 1.171875 -1.171875 1.28125 -0.9375 1.28125 C -0.59375 1.28125 -0.40625 1.03125 -0.40625 0.75 C -0.40625 0.453125 -0.59375 0.203125 -0.9375 0.203125 C -1.421875 0.203125 -1.796875 0.65625 -1.796875 1.1875 C -1.796875 1.890625 -1.28125 2.4375 -0.6875 2.71875 L 3.34375 4.6875 C 3.484375 4.75 3.546875 4.78125 3.546875 5.34375 Z M 3.546875 5.34375 "/>
</g>
<g id="glyph-2-5">
<path d="M 1.84375 4.265625 L 1.84375 3.8125 C 0.921875 3.734375 0.390625 3.5625 0.390625 2.390625 L 0.390625 1.609375 L 3.546875 4.140625 C 3.65625 4.21875 3.6875 4.234375 3.78125 4.234375 C 3.984375 4.234375 3.984375 4.09375 3.984375 3.921875 L 3.984375 0.5625 L 2.375 0.4375 L 2.375 0.890625 C 3.25 0.953125 3.625 1.1875 3.625 2.171875 L 3.625 2.9375 L 0.453125 0.390625 C 0.328125 0.3125 0.3125 0.296875 0.21875 0.296875 C 0 0.296875 0 0.4375 0 0.59375 L 0 4.09375 Z M 1.84375 4.265625 "/>
</g>
<g id="glyph-2-6">
<path d="M 1.046875 4.5625 C 1.21875 4.5625 1.21875 4.390625 1.21875 4.328125 C 1.21875 4.171875 1.171875 4.15625 1.046875 4.09375 C 0.578125 3.890625 0.328125 3.34375 0.328125 2.78125 C 0.328125 1.5 1.484375 1.484375 1.921875 1.484375 L 1.921875 4.265625 C 1.921875 4.453125 1.921875 4.5625 2.171875 4.5625 C 2.375 4.5625 3.171875 4.546875 3.65625 3.96875 C 3.984375 3.5625 4.0625 3.015625 4.0625 2.578125 C 4.0625 1.046875 3.09375 0.296875 2.015625 0.296875 C 0.84375 0.296875 -0.046875 1.1875 -0.046875 2.703125 C -0.046875 4.1875 0.890625 4.5625 1.046875 4.5625 Z M 2.25 3.6875 L 2.25 1.484375 C 2.65625 1.5 3.703125 1.546875 3.703125 2.578125 C 3.703125 3.625 2.609375 3.671875 2.25 3.6875 Z M 2.25 3.6875 "/>
</g>
<g id="glyph-3-0">
<path d="M 8.53125 -5.171875 L 8.53125 -5.4375 C 8.265625 -5.421875 8 -5.421875 7.75 -5.421875 C 7.5 -5.421875 7.265625 -5.421875 6.828125 -5.4375 L 6.828125 -5.171875 C 7.265625 -5.171875 7.484375 -4.96875 7.484375 -4.75 C 7.484375 -4.71875 7.484375 -4.703125 7.453125 -4.59375 L 6.1875 -0.921875 L 4.84375 -4.796875 C 4.8125 -4.890625 4.8125 -4.90625 4.8125 -4.9375 C 4.8125 -5.171875 5.21875 -5.171875 5.453125 -5.171875 L 5.453125 -5.4375 L 4.34375 -5.421875 C 4.046875 -5.421875 3.71875 -5.421875 3.359375 -5.4375 L 3.359375 -5.171875 C 3.78125 -5.171875 3.90625 -5.15625 4 -5.03125 C 4.0625 -4.9375 4.203125 -4.453125 4.203125 -4.453125 L 4.171875 -4.359375 L 2.984375 -0.921875 L 1.65625 -4.796875 C 1.609375 -4.90625 1.609375 -4.9375 1.609375 -4.9375 C 1.609375 -5.171875 2.03125 -5.171875 2.265625 -5.171875 L 2.265625 -5.4375 L 1.15625 -5.421875 C 0.859375 -5.421875 0.515625 -5.421875 0.15625 -5.4375 L 0.15625 -5.171875 C 0.625 -5.171875 0.765625 -5.171875 0.875 -4.875 L 2.546875 -0.015625 C 2.59375 0.09375 2.625 0.171875 2.75 0.171875 C 2.859375 0.171875 2.90625 0.09375 2.9375 -0.015625 L 4.34375 -4.078125 L 5.75 -0.015625 C 5.78125 0.078125 5.8125 0.171875 5.9375 0.171875 C 6.0625 0.171875 6.09375 0.09375 6.140625 -0.015625 L 7.734375 -4.640625 C 7.84375 -4.96875 8.0625 -5.171875 8.53125 -5.171875 Z M 8.53125 -5.171875 "/>
</g>
<g id="glyph-3-1">
<path d="M 3.0625 -3.015625 C 3.0625 -3.296875 2.8125 -3.515625 2.453125 -3.515625 C 1.9375 -3.515625 1.578125 -3.125 1.421875 -2.671875 L 1.40625 -2.671875 L 1.40625 -3.515625 L 0.28125 -3.421875 L 0.28125 -3.15625 C 0.828125 -3.15625 0.890625 -3.109375 0.890625 -2.71875 L 0.890625 -0.625 C 0.890625 -0.265625 0.78125 -0.265625 0.28125 -0.265625 L 0.28125 0 C 0.59375 -0.03125 1.03125 -0.03125 1.21875 -0.03125 C 1.6875 -0.03125 1.703125 -0.03125 2.21875 0 L 2.21875 -0.265625 L 2.0625 -0.265625 C 1.484375 -0.265625 1.46875 -0.34375 1.46875 -0.640625 L 1.46875 -1.8125 C 1.46875 -2.421875 1.71875 -3.28125 2.484375 -3.296875 C 2.4375 -3.265625 2.34375 -3.203125 2.34375 -3.015625 C 2.34375 -2.765625 2.546875 -2.65625 2.703125 -2.65625 C 2.890625 -2.65625 3.0625 -2.78125 3.0625 -3.015625 Z M 3.0625 -3.015625 "/>
</g>
<g id="glyph-3-2">
<path d="M 2.078125 0 L 2.078125 -0.265625 C 1.546875 -0.265625 1.515625 -0.296875 1.515625 -0.609375 L 1.515625 -3.515625 L 0.359375 -3.421875 L 0.359375 -3.15625 C 0.875 -3.15625 0.9375 -3.109375 0.9375 -2.71875 L 0.9375 -0.625 C 0.9375 -0.265625 0.84375 -0.265625 0.328125 -0.265625 L 0.328125 0 C 0.640625 -0.03125 1.09375 -0.03125 1.21875 -0.03125 C 1.3125 -0.03125 1.796875 -0.03125 2.078125 0 Z M 1.625 -4.796875 C 1.625 -5.0625 1.40625 -5.25 1.171875 -5.25 C 0.953125 -5.25 0.734375 -5.0625 0.734375 -4.796875 C 0.734375 -4.5625 0.921875 -4.359375 1.171875 -4.359375 C 1.421875 -4.359375 1.625 -4.5625 1.625 -4.796875 Z M 1.625 -4.796875 "/>
</g>
<g id="glyph-3-3">
<path d="M 2.8125 -1 L 2.8125 -1.4375 L 2.5625 -1.4375 L 2.5625 -1.015625 C 2.5625 -0.46875 2.3125 -0.171875 2.015625 -0.171875 C 1.484375 -0.171875 1.484375 -0.859375 1.484375 -0.984375 L 1.484375 -3.171875 L 2.671875 -3.171875 L 2.671875 -3.4375 L 1.484375 -3.4375 L 1.484375 -4.90625 L 1.234375 -4.90625 C 1.234375 -4.171875 0.90625 -3.421875 0.15625 -3.390625 L 0.15625 -3.171875 L 0.875 -3.171875 L 0.875 -1 C 0.875 -0.0625 1.59375 0.078125 1.953125 0.078125 C 2.5 0.078125 2.8125 -0.390625 2.8125 -1 Z M 2.8125 -1 "/>
</g>
<g id="glyph-3-4">
<path d="M 3.515625 -0.953125 C 3.515625 -0.984375 3.484375 -1.0625 3.390625 -1.0625 C 3.296875 -1.0625 3.28125 -1.015625 3.265625 -0.96875 C 2.984375 -0.1875 2.296875 -0.171875 2.15625 -0.171875 C 1.796875 -0.171875 1.421875 -0.328125 1.1875 -0.703125 C 0.953125 -1.0625 0.953125 -1.578125 0.953125 -1.8125 L 3.296875 -1.8125 C 3.46875 -1.8125 3.515625 -1.8125 3.515625 -2 C 3.515625 -2.703125 3.125 -3.546875 2 -3.546875 C 1.015625 -3.546875 0.234375 -2.734375 0.234375 -1.75 C 0.234375 -0.71875 1.09375 0.078125 2.109375 0.078125 C 3.109375 0.078125 3.515625 -0.765625 3.515625 -0.953125 Z M 2.96875 -2.03125 L 0.953125 -2.03125 C 1.03125 -3.140625 1.703125 -3.328125 2 -3.328125 C 2.9375 -3.328125 2.96875 -2.203125 2.96875 -2.03125 Z M 2.96875 -2.03125 "/>
</g>
<g id="glyph-3-5">
<path d="M 4.421875 -1.71875 C 4.421875 -2.71875 3.609375 -3.515625 2.640625 -3.515625 C 2.328125 -3.515625 1.875 -3.4375 1.46875 -3.015625 L 1.46875 -3.515625 L 0.28125 -3.421875 L 0.28125 -3.15625 C 0.84375 -3.15625 0.890625 -3.109375 0.890625 -2.78125 L 0.890625 0.921875 C 0.890625 1.28125 0.78125 1.28125 0.28125 1.28125 L 0.28125 1.546875 C 0.625 1.515625 0.96875 1.515625 1.1875 1.515625 C 1.421875 1.515625 1.75 1.515625 2.09375 1.546875 L 2.09375 1.28125 C 1.578125 1.28125 1.484375 1.28125 1.484375 0.921875 L 1.484375 -0.390625 C 1.859375 0.015625 2.265625 0.078125 2.53125 0.078125 C 3.53125 0.078125 4.421875 -0.703125 4.421875 -1.71875 Z M 3.703125 -1.71875 C 3.703125 -0.8125 3.125 -0.140625 2.484375 -0.140625 C 2.203125 -0.140625 1.84375 -0.265625 1.578125 -0.65625 C 1.484375 -0.796875 1.484375 -0.8125 1.484375 -0.953125 L 1.484375 -2.65625 C 1.671875 -2.96875 2.078125 -3.265625 2.578125 -3.265625 C 3.1875 -3.265625 3.703125 -2.59375 3.703125 -1.71875 Z M 3.703125 -1.71875 "/>
</g>
<g id="glyph-3-6">
<path d="M 4.09375 -0.71875 L 4.09375 -1.15625 L 3.84375 -1.15625 L 3.84375 -0.71875 C 3.84375 -0.390625 3.734375 -0.265625 3.5625 -0.265625 C 3.265625 -0.265625 3.265625 -0.625 3.265625 -0.71875 L 3.265625 -2.375 C 3.265625 -3.15625 2.515625 -3.546875 1.78125 -3.546875 C 1.125 -3.546875 0.53125 -3.296875 0.53125 -2.765625 C 0.53125 -2.53125 0.703125 -2.390625 0.90625 -2.390625 C 1.125 -2.390625 1.28125 -2.546875 1.28125 -2.765625 C 1.28125 -2.953125 1.15625 -3.09375 0.984375 -3.125 C 1.28125 -3.328125 1.71875 -3.328125 1.765625 -3.328125 C 2.21875 -3.328125 2.65625 -3.015625 2.65625 -2.359375 L 2.65625 -2.125 C 2.203125 -2.09375 1.671875 -2.078125 1.109375 -1.84375 C 0.40625 -1.53125 0.265625 -1.078125 0.265625 -0.8125 C 0.265625 -0.125 1.078125 0.078125 1.625 0.078125 C 2.203125 0.078125 2.5625 -0.25 2.734375 -0.5625 C 2.78125 -0.265625 2.984375 0.046875 3.34375 0.046875 C 3.421875 0.046875 4.09375 0.015625 4.09375 -0.71875 Z M 2.65625 -1.125 C 2.65625 -0.34375 2.015625 -0.140625 1.6875 -0.140625 C 1.28125 -0.140625 0.921875 -0.421875 0.921875 -0.8125 C 0.921875 -1.328125 1.421875 -1.875 2.65625 -1.90625 Z M 2.65625 -1.125 "/>
</g>
<g id="glyph-3-7">
<path d="M 3.046875 -1.03125 C 3.046875 -1.40625 2.828125 -1.96875 1.875 -2.140625 C 1.8125 -2.15625 1.359375 -2.234375 1.328125 -2.234375 C 1.078125 -2.296875 0.703125 -2.46875 0.703125 -2.78125 C 0.703125 -3.015625 0.890625 -3.359375 1.640625 -3.359375 C 2.53125 -3.359375 2.578125 -2.703125 2.59375 -2.484375 C 2.59375 -2.421875 2.65625 -2.390625 2.703125 -2.390625 C 2.84375 -2.390625 2.84375 -2.453125 2.84375 -2.59375 L 2.84375 -3.34375 C 2.84375 -3.46875 2.84375 -3.546875 2.734375 -3.546875 C 2.6875 -3.546875 2.671875 -3.546875 2.546875 -3.421875 C 2.53125 -3.421875 2.453125 -3.34375 2.4375 -3.34375 C 2.4375 -3.34375 2.40625 -3.34375 2.359375 -3.375 C 2.234375 -3.46875 2 -3.546875 1.640625 -3.546875 C 0.53125 -3.546875 0.28125 -2.953125 0.28125 -2.5625 C 0.28125 -2.171875 0.578125 -1.9375 0.59375 -1.90625 C 0.921875 -1.671875 1.09375 -1.640625 1.640625 -1.546875 C 2.015625 -1.46875 2.625 -1.359375 2.625 -0.828125 C 2.625 -0.515625 2.421875 -0.140625 1.6875 -0.140625 C 0.875 -0.140625 0.640625 -0.765625 0.546875 -1.1875 C 0.515625 -1.296875 0.5 -1.328125 0.40625 -1.328125 C 0.28125 -1.328125 0.28125 -1.265625 0.28125 -1.109375 L 0.28125 -0.125 C 0.28125 0 0.28125 0.078125 0.375 0.078125 C 0.4375 0.078125 0.4375 0.078125 0.578125 -0.078125 C 0.625 -0.125 0.703125 -0.21875 0.75 -0.265625 C 1.109375 0.0625 1.484375 0.078125 1.6875 0.078125 C 2.703125 0.078125 3.046875 -0.5 3.046875 -1.03125 Z M 3.046875 -1.03125 "/>
</g>
<g id="glyph-3-8">
<path d="M 1.71875 -0.03125 C 1.71875 -0.46875 1.546875 -0.890625 1.171875 -0.890625 C 0.90625 -0.890625 0.734375 -0.671875 0.734375 -0.453125 C 0.734375 -0.203125 0.90625 0 1.171875 0 C 1.359375 0 1.46875 -0.09375 1.484375 -0.125 C 1.484375 0.125 1.484375 0.765625 0.890625 1.34375 C 0.859375 1.359375 0.84375 1.375 0.84375 1.421875 C 0.84375 1.5 0.90625 1.546875 0.953125 1.546875 C 1.046875 1.546875 1.71875 0.921875 1.71875 -0.03125 Z M 1.71875 -0.03125 "/>
</g>
<g id="glyph-3-9">
<path d="M 4.484375 0 L 4.484375 -0.265625 C 3.9375 -0.265625 3.875 -0.3125 3.875 -0.703125 L 3.875 -3.515625 L 2.65625 -3.421875 L 2.65625 -3.15625 C 3.203125 -3.15625 3.265625 -3.109375 3.265625 -2.71875 L 3.265625 -1.328125 C 3.265625 -0.640625 2.859375 -0.140625 2.25 -0.140625 C 1.5625 -0.140625 1.53125 -0.484375 1.53125 -0.890625 L 1.53125 -3.515625 L 0.328125 -3.421875 L 0.328125 -3.15625 C 0.9375 -3.15625 0.9375 -3.140625 0.9375 -2.4375 L 0.9375 -1.234375 C 0.9375 -0.65625 0.9375 0.078125 2.203125 0.078125 C 2.953125 0.078125 3.25 -0.5 3.28125 -0.5625 L 3.296875 -0.5625 L 3.296875 0.078125 Z M 4.484375 0 "/>
</g>
<g id="glyph-3-10">
<path d="M 4.484375 0 L 4.484375 -0.265625 C 3.96875 -0.265625 3.875 -0.265625 3.875 -0.625 L 3.875 -2.421875 C 3.875 -3.078125 3.5625 -3.515625 2.734375 -3.515625 C 1.9375 -3.515625 1.578125 -2.9375 1.484375 -2.75 L 1.484375 -3.515625 L 0.328125 -3.421875 L 0.328125 -3.15625 C 0.875 -3.15625 0.9375 -3.109375 0.9375 -2.71875 L 0.9375 -0.625 C 0.9375 -0.265625 0.84375 -0.265625 0.328125 -0.265625 L 0.328125 0 C 0.671875 -0.03125 1.015625 -0.03125 1.234375 -0.03125 C 1.46875 -0.03125 1.796875 -0.03125 2.140625 0 L 2.140625 -0.265625 C 1.640625 -0.265625 1.53125 -0.265625 1.53125 -0.625 L 1.53125 -2.0625 C 1.53125 -2.90625 2.171875 -3.296875 2.65625 -3.296875 C 3.140625 -3.296875 3.265625 -2.953125 3.265625 -2.453125 L 3.265625 -0.625 C 3.265625 -0.265625 3.171875 -0.265625 2.65625 -0.265625 L 2.65625 0 C 3 -0.03125 3.359375 -0.03125 3.5625 -0.03125 C 3.796875 -0.03125 4.140625 -0.03125 4.484375 0 Z M 4.484375 0 "/>
</g>
<g id="glyph-3-11">
<path d="M 4.328125 0 L 4.328125 -0.265625 C 3.84375 -0.265625 3.765625 -0.296875 3.546875 -0.546875 L 2.453125 -1.859375 C 2.671875 -2.140625 2.90625 -2.421875 3.140625 -2.671875 C 3.40625 -2.953125 3.6875 -3.15625 4.1875 -3.171875 L 4.1875 -3.4375 C 3.875 -3.40625 3.859375 -3.40625 3.5 -3.40625 C 3.46875 -3.40625 3 -3.40625 2.75 -3.4375 L 2.75 -3.171875 C 2.90625 -3.15625 2.9375 -3.0625 2.9375 -2.953125 C 2.9375 -2.859375 2.890625 -2.75 2.796875 -2.640625 L 2.296875 -2.0625 L 1.671875 -2.8125 C 1.5625 -2.921875 1.5625 -2.984375 1.5625 -2.984375 C 1.5625 -3.046875 1.625 -3.15625 1.8125 -3.171875 L 1.8125 -3.4375 C 1.5 -3.40625 1.046875 -3.40625 0.96875 -3.40625 C 0.828125 -3.40625 0.421875 -3.40625 0.171875 -3.4375 L 0.171875 -3.171875 C 0.71875 -3.171875 0.71875 -3.15625 1.140625 -2.671875 L 1.953125 -1.6875 L 1.234375 -0.828125 C 1.03125 -0.609375 0.734375 -0.28125 0.140625 -0.265625 L 0.140625 0 C 0.4375 -0.03125 0.484375 -0.03125 0.828125 -0.03125 C 0.828125 -0.03125 1.328125 -0.03125 1.578125 0 L 1.578125 -0.265625 C 1.46875 -0.28125 1.390625 -0.328125 1.390625 -0.484375 C 1.390625 -0.625 1.484375 -0.734375 1.5 -0.765625 L 2.125 -1.484375 L 2.78125 -0.703125 C 2.9375 -0.515625 2.9375 -0.5 2.9375 -0.453125 C 2.9375 -0.375 2.890625 -0.265625 2.6875 -0.265625 L 2.6875 0 C 3.03125 -0.03125 3.390625 -0.03125 3.546875 -0.03125 C 3.6875 -0.03125 4.09375 -0.03125 4.328125 0 Z M 4.328125 0 "/>
</g>
<g id="glyph-3-12">
<path d="M 6.828125 0 L 6.828125 -0.265625 C 6.3125 -0.265625 6.21875 -0.265625 6.21875 -0.625 L 6.21875 -2.421875 C 6.21875 -3.0625 5.9375 -3.515625 5.078125 -3.515625 C 4.34375 -3.515625 3.96875 -3.015625 3.84375 -2.78125 C 3.703125 -3.359375 3.25 -3.515625 2.734375 -3.515625 C 1.953125 -3.515625 1.59375 -2.96875 1.484375 -2.75 L 1.484375 -3.515625 L 0.328125 -3.421875 L 0.328125 -3.15625 C 0.875 -3.15625 0.9375 -3.109375 0.9375 -2.71875 L 0.9375 -0.625 C 0.9375 -0.265625 0.84375 -0.265625 0.328125 -0.265625 L 0.328125 0 C 0.671875 -0.03125 1.015625 -0.03125 1.234375 -0.03125 C 1.46875 -0.03125 1.796875 -0.03125 2.140625 0 L 2.140625 -0.265625 C 1.640625 -0.265625 1.53125 -0.265625 1.53125 -0.625 L 1.53125 -2.0625 C 1.53125 -2.90625 2.171875 -3.296875 2.671875 -3.296875 C 3.1875 -3.296875 3.28125 -2.890625 3.28125 -2.453125 L 3.28125 -0.625 C 3.28125 -0.265625 3.171875 -0.265625 2.671875 -0.265625 L 2.671875 0 C 3.015625 -0.03125 3.359375 -0.03125 3.578125 -0.03125 C 3.8125 -0.03125 4.140625 -0.03125 4.484375 0 L 4.484375 -0.265625 C 3.96875 -0.265625 3.875 -0.265625 3.875 -0.625 L 3.875 -2.0625 C 3.875 -2.90625 4.515625 -3.296875 5.015625 -3.296875 C 5.53125 -3.296875 5.625 -2.890625 5.625 -2.453125 L 5.625 -0.625 C 5.625 -0.265625 5.515625 -0.265625 5.015625 -0.265625 L 5.015625 0 C 5.359375 -0.03125 5.703125 -0.03125 5.921875 -0.03125 C 6.15625 -0.03125 6.484375 -0.03125 6.828125 0 Z M 6.828125 0 "/>
</g>
<g id="glyph-3-13">
<path d="M 4.484375 0 L 4.484375 -0.265625 C 3.96875 -0.265625 3.875 -0.265625 3.875 -0.625 L 3.875 -2.421875 C 3.875 -3.078125 3.5625 -3.515625 2.734375 -3.515625 C 2.03125 -3.515625 1.671875 -3.0625 1.515625 -2.8125 L 1.515625 -5.53125 L 0.328125 -5.4375 L 0.328125 -5.171875 C 0.875 -5.171875 0.9375 -5.125 0.9375 -4.734375 L 0.9375 -0.625 C 0.9375 -0.265625 0.84375 -0.265625 0.328125 -0.265625 L 0.328125 0 C 0.671875 -0.03125 1.015625 -0.03125 1.234375 -0.03125 C 1.46875 -0.03125 1.796875 -0.03125 2.140625 0 L 2.140625 -0.265625 C 1.640625 -0.265625 1.53125 -0.265625 1.53125 -0.625 L 1.53125 -2.0625 C 1.53125 -2.90625 2.171875 -3.296875 2.65625 -3.296875 C 3.140625 -3.296875 3.265625 -2.953125 3.265625 -2.453125 L 3.265625 -0.625 C 3.265625 -0.265625 3.171875 -0.265625 2.65625 -0.265625 L 2.65625 0 C 3 -0.03125 3.359375 -0.03125 3.5625 -0.03125 C 3.796875 -0.03125 4.140625 -0.03125 4.484375 0 Z M 4.484375 0 "/>
</g>
<g id="glyph-3-14">
<path d="M 4.21875 -1.46875 C 4.21875 -2.171875 3.765625 -2.875 2.953125 -3.0625 L 1.859375 -3.328125 C 1.34375 -3.4375 0.96875 -3.84375 0.96875 -4.328125 C 0.96875 -4.875 1.4375 -5.375 2.125 -5.375 C 3.5 -5.375 3.6875 -4.078125 3.734375 -3.78125 C 3.75 -3.6875 3.75 -3.640625 3.859375 -3.640625 C 3.984375 -3.640625 3.984375 -3.6875 3.984375 -3.84375 L 3.984375 -5.40625 C 3.984375 -5.53125 3.984375 -5.609375 3.875 -5.609375 C 3.8125 -5.609375 3.796875 -5.59375 3.75 -5.5 L 3.46875 -5.046875 C 3.0625 -5.484375 2.5625 -5.609375 2.125 -5.609375 C 1.171875 -5.609375 0.46875 -4.890625 0.46875 -4.078125 C 0.46875 -3.46875 0.8125 -3.140625 0.96875 -2.984375 C 1.25 -2.703125 1.515625 -2.640625 2.375 -2.4375 C 3.0625 -2.28125 3.171875 -2.25 3.4375 -1.96875 C 3.515625 -1.890625 3.71875 -1.625 3.71875 -1.234375 C 3.71875 -0.671875 3.296875 -0.09375 2.546875 -0.09375 C 1.671875 -0.09375 0.765625 -0.515625 0.71875 -1.625 C 0.703125 -1.75 0.703125 -1.8125 0.59375 -1.8125 C 0.46875 -1.8125 0.46875 -1.75 0.46875 -1.59375 L 0.46875 -0.046875 C 0.46875 0.09375 0.46875 0.171875 0.578125 0.171875 C 0.640625 0.171875 0.640625 0.15625 0.703125 0.078125 C 0.734375 0.03125 0.765625 -0.046875 0.984375 -0.375 C 1.484375 0.0625 2.078125 0.171875 2.5625 0.171875 C 3.546875 0.171875 4.21875 -0.625 4.21875 -1.46875 Z M 4.21875 -1.46875 "/>
</g>
<g id="glyph-3-15">
<path d="M 6.109375 -2.703125 C 6.109375 -4.296875 4.84375 -5.609375 3.296875 -5.609375 C 1.71875 -5.609375 0.46875 -4.296875 0.46875 -2.703125 C 0.46875 -1.078125 1.765625 0.171875 3.28125 0.171875 C 4.828125 0.171875 6.109375 -1.09375 6.109375 -2.703125 Z M 5.28125 -2.828125 C 5.28125 -0.796875 4.125 -0.09375 3.296875 -0.09375 C 2.421875 -0.09375 1.296875 -0.828125 1.296875 -2.828125 C 1.296875 -4.71875 2.46875 -5.359375 3.28125 -5.359375 C 4.140625 -5.359375 5.28125 -4.6875 5.28125 -2.828125 Z M 5.28125 -2.828125 "/>
</g>
<g id="glyph-3-16">
<path d="M 5.796875 -3.578125 L 5.640625 -5.390625 L 0.46875 -5.390625 L 0.296875 -3.578125 L 0.546875 -3.578125 C 0.65625 -4.921875 0.84375 -5.125 2.0625 -5.125 C 2.21875 -5.125 2.46875 -5.125 2.53125 -5.109375 C 2.671875 -5.078125 2.6875 -5 2.6875 -4.796875 L 2.6875 -0.65625 C 2.6875 -0.375 2.6875 -0.265625 1.859375 -0.265625 L 1.546875 -0.265625 L 1.546875 0 C 1.84375 -0.03125 2.703125 -0.03125 3.046875 -0.03125 C 3.390625 -0.03125 4.25 -0.03125 4.546875 0 L 4.546875 -0.265625 L 4.25 -0.265625 C 3.421875 -0.265625 3.421875 -0.375 3.421875 -0.65625 L 3.421875 -4.796875 C 3.421875 -4.984375 3.421875 -5.078125 3.578125 -5.109375 C 3.65625 -5.125 3.890625 -5.125 4.046875 -5.125 C 5.265625 -5.125 5.4375 -4.921875 5.546875 -3.578125 Z M 5.796875 -3.578125 "/>
</g>
<g id="glyph-3-17">
<path d="M 6.046875 0 L 6.046875 -0.265625 L 5.90625 -0.265625 C 5.40625 -0.265625 5.328125 -0.328125 5.234375 -0.59375 L 3.375 -5.515625 C 3.328125 -5.625 3.3125 -5.6875 3.171875 -5.6875 C 3.03125 -5.6875 3 -5.625 2.96875 -5.515625 L 1.1875 -0.828125 C 1.109375 -0.609375 0.9375 -0.265625 0.28125 -0.265625 L 0.28125 0 C 0.546875 -0.03125 0.96875 -0.03125 1.109375 -0.03125 C 1.359375 -0.03125 1.609375 -0.03125 1.984375 0 L 1.984375 -0.265625 C 1.640625 -0.265625 1.4375 -0.4375 1.4375 -0.65625 C 1.4375 -0.71875 1.4375 -0.734375 1.46875 -0.828125 L 1.84375 -1.828125 L 4.015625 -1.828125 L 4.46875 -0.640625 C 4.5 -0.546875 4.5 -0.5 4.5 -0.5 C 4.5 -0.265625 4.09375 -0.265625 3.859375 -0.265625 L 3.859375 0 L 5 -0.03125 C 5.4375 -0.03125 5.59375 -0.03125 6.046875 0 Z M 3.90625 -2.09375 L 1.9375 -2.09375 L 2.9375 -4.6875 Z M 3.90625 -2.09375 "/>
</g>
<g id="glyph-3-18">
<path d="M 5.15625 -3.609375 L 4.9375 -5.421875 L 0.34375 -5.421875 L 0.34375 -5.15625 L 0.53125 -5.15625 C 1.140625 -5.15625 1.15625 -5.0625 1.15625 -4.765625 L 1.15625 -0.640625 C 1.15625 -0.34375 1.140625 -0.265625 0.53125 -0.265625 L 0.34375 -0.265625 L 0.34375 0 L 1.578125 -0.03125 C 1.953125 -0.03125 2.53125 -0.03125 2.890625 0 L 2.890625 -0.265625 L 2.640625 -0.265625 C 1.890625 -0.265625 1.890625 -0.375 1.890625 -0.65625 L 1.890625 -2.578125 L 2.625 -2.578125 C 3.40625 -2.578125 3.5 -2.328125 3.5 -1.65625 L 3.75 -1.65625 L 3.75 -3.78125 L 3.5 -3.78125 C 3.5 -3.09375 3.40625 -2.84375 2.625 -2.84375 L 1.890625 -2.84375 L 1.890625 -4.828125 C 1.890625 -5.09375 1.90625 -5.15625 2.265625 -5.15625 L 3.328125 -5.15625 C 4.625 -5.15625 4.78125 -4.65625 4.921875 -3.609375 Z M 5.15625 -3.609375 "/>
</g>
<g id="glyph-3-19">
<path d="M 4.421875 0 L 4.421875 -0.265625 C 3.875 -0.265625 3.8125 -0.3125 3.8125 -0.703125 L 3.8125 -5.53125 L 2.625 -5.4375 L 2.625 -5.171875 C 3.15625 -5.171875 3.234375 -5.125 3.234375 -4.734375 L 3.234375 -3.046875 C 2.953125 -3.359375 2.578125 -3.515625 2.15625 -3.515625 C 1.15625 -3.515625 0.28125 -2.734375 0.28125 -1.71875 C 0.28125 -0.734375 1.078125 0.078125 2.078125 0.078125 C 2.546875 0.078125 2.9375 -0.140625 3.203125 -0.421875 L 3.203125 0.078125 Z M 3.203125 -0.984375 C 3.203125 -0.84375 3.203125 -0.8125 3.078125 -0.65625 C 2.859375 -0.328125 2.5 -0.140625 2.125 -0.140625 C 1.75 -0.140625 1.4375 -0.328125 1.25 -0.625 C 1.03125 -0.9375 0.984375 -1.328125 0.984375 -1.703125 C 0.984375 -2.171875 1.0625 -2.5 1.25 -2.765625 C 1.4375 -3.0625 1.796875 -3.296875 2.203125 -3.296875 C 2.578125 -3.296875 2.96875 -3.09375 3.203125 -2.6875 Z M 3.203125 -0.984375 "/>
</g>
<g id="glyph-3-20">
<path d="M 4.109375 -3.203125 C 4.109375 -3.328125 4 -3.609375 3.65625 -3.609375 C 3.515625 -3.609375 3.125 -3.5625 2.765625 -3.234375 C 2.5625 -3.375 2.25 -3.515625 1.875 -3.515625 C 1.09375 -3.515625 0.515625 -2.96875 0.515625 -2.34375 C 0.515625 -1.96875 0.71875 -1.6875 0.890625 -1.53125 C 0.703125 -1.328125 0.640625 -1.078125 0.640625 -0.890625 C 0.640625 -0.5625 0.8125 -0.3125 0.984375 -0.171875 C 0.5625 -0.0625 0.234375 0.25 0.234375 0.609375 C 0.234375 1.1875 1.0625 1.640625 2.109375 1.640625 C 3.109375 1.640625 3.984375 1.234375 3.984375 0.59375 C 3.984375 0.171875 3.734375 -0.171875 3.46875 -0.296875 C 3 -0.546875 2.609375 -0.546875 1.828125 -0.546875 L 1.375 -0.546875 C 1.125 -0.578125 0.9375 -0.78125 0.9375 -1.078125 C 0.9375 -1.265625 0.984375 -1.34375 1.03125 -1.40625 C 1.375 -1.21875 1.6875 -1.171875 1.875 -1.171875 C 2.65625 -1.171875 3.25 -1.71875 3.25 -2.34375 C 3.25 -2.640625 3.109375 -2.90625 2.921875 -3.109375 C 3.03125 -3.203125 3.296875 -3.375 3.6875 -3.375 C 3.65625 -3.359375 3.609375 -3.3125 3.609375 -3.1875 C 3.609375 -3.046875 3.71875 -2.9375 3.859375 -2.9375 C 3.96875 -2.9375 4.109375 -3.015625 4.109375 -3.203125 Z M 2.609375 -2.34375 C 2.609375 -2.046875 2.578125 -1.84375 2.453125 -1.6875 C 2.28125 -1.453125 2.03125 -1.40625 1.875 -1.40625 C 1.140625 -1.40625 1.140625 -2.171875 1.140625 -2.34375 C 1.140625 -2.640625 1.171875 -2.84375 1.296875 -3 C 1.4375 -3.1875 1.65625 -3.28125 1.875 -3.28125 C 2.609375 -3.28125 2.609375 -2.515625 2.609375 -2.34375 Z M 3.515625 0.609375 C 3.515625 1.03125 2.90625 1.40625 2.109375 1.40625 C 1.3125 1.40625 0.703125 1.03125 0.703125 0.609375 C 0.703125 0.4375 0.84375 -0.03125 1.484375 -0.03125 L 2.25 -0.03125 C 2.46875 -0.03125 3.515625 -0.03125 3.515625 0.609375 Z M 3.515625 0.609375 "/>
</g>
<g id="glyph-3-21">
<path d="M 2.125 0 L 2.125 -0.265625 C 1.625 -0.265625 1.515625 -0.265625 1.515625 -0.625 L 1.515625 -5.53125 L 0.328125 -5.4375 L 0.328125 -5.171875 C 0.875 -5.171875 0.9375 -5.125 0.9375 -4.734375 L 0.9375 -0.625 C 0.9375 -0.265625 0.84375 -0.265625 0.328125 -0.265625 L 0.328125 0 C 0.640625 -0.03125 1.09375 -0.03125 1.234375 -0.03125 C 1.390625 -0.03125 1.8125 -0.03125 2.125 0 Z M 2.125 0 "/>
</g>
<g id="glyph-3-22">
<path d="M 3 -5.03125 C 3 -5.375 2.671875 -5.609375 2.25 -5.609375 C 1.65625 -5.609375 0.9375 -5.171875 0.9375 -4.328125 L 0.9375 -3.4375 L 0.28125 -3.4375 L 0.28125 -3.171875 L 0.9375 -3.171875 L 0.9375 -0.625 C 0.9375 -0.265625 0.84375 -0.265625 0.328125 -0.265625 L 0.328125 0 C 0.640625 -0.03125 1.078125 -0.03125 1.28125 -0.03125 C 1.75 -0.03125 1.765625 -0.03125 2.28125 0 L 2.28125 -0.265625 L 2.125 -0.265625 C 1.53125 -0.265625 1.515625 -0.34375 1.515625 -0.640625 L 1.515625 -3.171875 L 2.484375 -3.171875 L 2.484375 -3.4375 L 1.5 -3.4375 L 1.5 -4.328125 C 1.5 -5.03125 1.890625 -5.390625 2.234375 -5.390625 C 2.359375 -5.390625 2.4375 -5.359375 2.46875 -5.34375 C 2.328125 -5.28125 2.28125 -5.140625 2.28125 -5.03125 C 2.28125 -4.828125 2.4375 -4.671875 2.640625 -4.671875 C 2.859375 -4.671875 3 -4.828125 3 -5.03125 Z M 3 -5.03125 "/>
</g>
<g id="glyph-3-23">
<path d="M 3.984375 -1.703125 C 3.984375 -2.6875 3.15625 -3.546875 2.109375 -3.546875 C 1.0625 -3.546875 0.234375 -2.6875 0.234375 -1.703125 C 0.234375 -0.703125 1.09375 0.078125 2.109375 0.078125 C 3.140625 0.078125 3.984375 -0.703125 3.984375 -1.703125 Z M 3.28125 -1.765625 C 3.28125 -1.40625 3.265625 -0.96875 3.03125 -0.625 C 2.828125 -0.3125 2.46875 -0.171875 2.109375 -0.171875 C 1.6875 -0.171875 1.34375 -0.375 1.171875 -0.65625 C 0.96875 -0.984375 0.953125 -1.375 0.953125 -1.765625 C 0.953125 -2.078125 0.953125 -2.546875 1.1875 -2.890625 C 1.40625 -3.171875 1.734375 -3.328125 2.109375 -3.328125 C 2.53125 -3.328125 2.875 -3.125 3.046875 -2.859375 C 3.265625 -2.515625 3.28125 -2.09375 3.28125 -1.765625 Z M 3.28125 -1.765625 "/>
</g>
<g id="glyph-3-24">
<path d="M 3.515625 -0.953125 C 3.515625 -1.046875 3.40625 -1.046875 3.390625 -1.046875 C 3.328125 -1.046875 3.296875 -1.046875 3.265625 -0.96875 C 3.21875 -0.796875 2.984375 -0.171875 2.1875 -0.171875 C 1.703125 -0.171875 0.984375 -0.546875 0.984375 -1.734375 C 0.984375 -2.875 1.578125 -3.3125 2.15625 -3.3125 C 2.234375 -3.3125 2.65625 -3.3125 2.9375 -3.15625 C 2.703125 -3.09375 2.671875 -2.90625 2.671875 -2.8125 C 2.671875 -2.59375 2.828125 -2.4375 3.046875 -2.4375 C 3.265625 -2.4375 3.421875 -2.578125 3.421875 -2.828125 C 3.421875 -3.3125 2.890625 -3.546875 2.140625 -3.546875 C 1.03125 -3.546875 0.28125 -2.671875 0.28125 -1.71875 C 0.28125 -0.703125 1.109375 0.078125 2.109375 0.078125 C 3.234375 0.078125 3.515625 -0.859375 3.515625 -0.953125 Z M 3.515625 -0.953125 "/>
</g>
<g id="glyph-3-25">
<path d="M 5.9375 -3.171875 L 5.9375 -3.4375 C 5.671875 -3.40625 5.65625 -3.40625 5.3125 -3.40625 C 5.0625 -3.40625 4.84375 -3.40625 4.59375 -3.4375 L 4.59375 -3.171875 C 4.9375 -3.15625 5.03125 -2.953125 5.03125 -2.8125 C 5.03125 -2.703125 5 -2.65625 4.984375 -2.609375 L 4.234375 -0.625 L 3.40625 -2.796875 C 3.375 -2.90625 3.375 -2.921875 3.375 -2.953125 C 3.375 -3.15625 3.625 -3.171875 3.8125 -3.171875 L 3.8125 -3.4375 C 3.5 -3.40625 3.078125 -3.40625 3 -3.40625 C 2.828125 -3.40625 2.5 -3.40625 2.265625 -3.4375 L 2.265625 -3.171875 C 2.75 -3.171875 2.765625 -3.125 2.921875 -2.703125 L 2.1875 -0.734375 L 1.390625 -2.8125 C 1.390625 -2.84375 1.359375 -2.921875 1.359375 -2.953125 C 1.359375 -3.171875 1.65625 -3.171875 1.796875 -3.171875 L 1.796875 -3.4375 C 1.453125 -3.40625 1.09375 -3.40625 0.953125 -3.40625 C 0.8125 -3.40625 0.390625 -3.40625 0.171875 -3.4375 L 0.171875 -3.171875 C 0.5625 -3.171875 0.640625 -3.140625 0.734375 -2.921875 L 1.796875 -0.109375 C 1.84375 0.015625 1.875 0.078125 2 0.078125 C 2.140625 0.078125 2.171875 -0.015625 2.203125 -0.109375 L 3.046875 -2.34375 L 3.890625 -0.109375 C 3.9375 -0.015625 3.96875 0.078125 4.109375 0.078125 C 4.234375 0.078125 4.265625 0 4.296875 -0.09375 L 5.265625 -2.625 C 5.328125 -2.8125 5.46875 -3.15625 5.9375 -3.171875 Z M 5.9375 -3.171875 "/>
</g>
<g id="glyph-3-26">
<path d="M 5.984375 -2.671875 C 5.984375 -4.203125 4.828125 -5.4375 3.390625 -5.4375 L 0.359375 -5.4375 L 0.359375 -5.171875 L 0.546875 -5.171875 C 1.15625 -5.171875 1.171875 -5.09375 1.171875 -4.796875 L 1.171875 -0.640625 C 1.171875 -0.34375 1.15625 -0.265625 0.546875 -0.265625 L 0.359375 -0.265625 L 0.359375 0 L 3.390625 0 C 4.828125 0 5.984375 -1.1875 5.984375 -2.671875 Z M 5.171875 -2.671875 C 5.171875 -2.265625 5.171875 -1.484375 4.671875 -0.90625 C 4.40625 -0.578125 3.890625 -0.265625 3.171875 -0.265625 L 2.265625 -0.265625 C 1.890625 -0.265625 1.875 -0.3125 1.875 -0.59375 L 1.875 -4.859375 C 1.875 -5.125 1.890625 -5.171875 2.265625 -5.171875 L 3.171875 -5.171875 C 3.796875 -5.171875 4.3125 -4.921875 4.671875 -4.53125 C 5.171875 -3.921875 5.171875 -3.0625 5.171875 -2.671875 Z M 5.171875 -2.671875 "/>
</g>
<g id="glyph-3-27">
<path d="M 4.421875 0 L 4.421875 -0.265625 C 3.90625 -0.265625 3.8125 -0.265625 3.8125 -0.625 L 3.8125 -3.53125 L 2.765625 -3.453125 C 2.671875 -3.453125 2.640625 -3.453125 2.625 -3.4375 C 2.609375 -3.4375 2.59375 -3.4375 2.484375 -3.4375 L 1.4375 -3.4375 L 1.4375 -4.296875 C 1.4375 -5.09375 2.1875 -5.390625 2.671875 -5.390625 C 2.921875 -5.390625 3.15625 -5.328125 3.359375 -5.171875 C 3.359375 -5.171875 3.03125 -5.109375 3.03125 -4.796875 C 3.03125 -4.53125 3.234375 -4.40625 3.40625 -4.40625 C 3.515625 -4.40625 3.796875 -4.484375 3.796875 -4.8125 C 3.796875 -5.234375 3.375 -5.609375 2.703125 -5.609375 C 1.921875 -5.609375 0.890625 -5.21875 0.890625 -4.3125 L 0.890625 -3.4375 L 0.234375 -3.4375 L 0.234375 -3.171875 L 0.890625 -3.171875 L 0.890625 -0.625 C 0.890625 -0.265625 0.78125 -0.265625 0.28125 -0.265625 L 0.28125 0 C 0.59375 -0.03125 1.03125 -0.03125 1.171875 -0.03125 C 1.328125 -0.03125 1.765625 -0.03125 2.078125 0 L 2.078125 -0.265625 C 1.5625 -0.265625 1.46875 -0.265625 1.46875 -0.625 L 1.46875 -3.171875 L 2.84375 -3.171875 C 3.171875 -3.171875 3.234375 -3.078125 3.234375 -2.734375 L 3.234375 -0.625 C 3.234375 -0.265625 3.125 -0.265625 2.625 -0.265625 L 2.625 0 C 2.9375 -0.03125 3.375 -0.03125 3.515625 -0.03125 C 3.671875 -0.03125 4.109375 -0.03125 4.421875 0 Z M 4.421875 0 "/>
</g>
<g id="glyph-3-28">
<path d="M 4.421875 -1.71875 C 4.421875 -2.71875 3.59375 -3.515625 2.625 -3.515625 C 1.984375 -3.515625 1.609375 -3.171875 1.46875 -3.03125 L 1.46875 -5.53125 L 0.28125 -5.4375 L 0.28125 -5.171875 C 0.828125 -5.171875 0.890625 -5.125 0.890625 -4.734375 L 0.890625 0 L 1.125 0 L 1.421875 -0.5 C 1.609375 -0.21875 1.984375 0.078125 2.53125 0.078125 C 3.53125 0.078125 4.421875 -0.703125 4.421875 -1.71875 Z M 3.703125 -1.734375 C 3.703125 -1.546875 3.703125 -0.984375 3.421875 -0.609375 C 3.125 -0.25 2.75 -0.140625 2.5 -0.140625 C 2.109375 -0.140625 1.796875 -0.34375 1.578125 -0.65625 C 1.484375 -0.8125 1.484375 -0.8125 1.484375 -0.96875 L 1.484375 -2.515625 C 1.484375 -2.671875 1.484375 -2.6875 1.609375 -2.828125 C 1.84375 -3.125 2.21875 -3.296875 2.578125 -3.296875 C 2.984375 -3.296875 3.296875 -3.046875 3.453125 -2.8125 C 3.59375 -2.59375 3.703125 -2.3125 3.703125 -1.734375 Z M 3.703125 -1.734375 "/>
</g>
<g id="glyph-3-29">
<path d="M 4.28125 -3.171875 L 4.28125 -3.4375 C 4.015625 -3.40625 4 -3.40625 3.65625 -3.40625 C 3.625 -3.40625 3.203125 -3.40625 2.96875 -3.4375 L 2.96875 -3.171875 C 3.203125 -3.15625 3.3125 -3.03125 3.3125 -2.84375 C 3.3125 -2.796875 3.3125 -2.734375 3.265625 -2.640625 L 2.421875 -0.71875 L 1.484375 -2.8125 C 1.4375 -2.921875 1.4375 -2.9375 1.4375 -2.96875 C 1.4375 -3.15625 1.6875 -3.171875 1.859375 -3.171875 L 1.859375 -3.4375 C 1.5 -3.40625 1.15625 -3.40625 0.984375 -3.40625 C 0.8125 -3.40625 0.4375 -3.40625 0.171875 -3.4375 L 0.171875 -3.171875 C 0.59375 -3.171875 0.703125 -3.15625 0.84375 -2.859375 L 2.09375 0 C 1.734375 0.84375 1.5 1.40625 0.9375 1.40625 C 0.734375 1.40625 0.609375 1.3125 0.609375 1.3125 C 0.671875 1.296875 0.859375 1.203125 0.859375 0.96875 C 0.859375 0.75 0.6875 0.625 0.515625 0.625 C 0.34375 0.625 0.171875 0.734375 0.171875 0.984375 C 0.171875 1.328125 0.515625 1.625 0.9375 1.625 C 1.65625 1.625 2.03125 0.765625 2.0625 0.6875 L 3.53125 -2.625 C 3.734375 -3.078125 4.03125 -3.15625 4.28125 -3.171875 Z M 4.28125 -3.171875 "/>
</g>
<g id="glyph-4-0">
<path d="M 4.328125 -1.6875 C 4.328125 -2.203125 4.046875 -3.203125 2.640625 -3.4375 L 2.640625 -5.15625 C 3.328125 -5.109375 3.625 -4.875 3.75 -4.65625 C 3.375 -4.609375 3.265625 -4.34375 3.265625 -4.125 C 3.265625 -3.765625 3.546875 -3.578125 3.796875 -3.578125 C 3.984375 -3.578125 4.328125 -3.703125 4.328125 -4.15625 C 4.328125 -4.9375 3.75 -5.515625 2.640625 -5.578125 L 2.640625 -5.96875 L 2.234375 -5.96875 L 2.234375 -5.578125 C 1 -5.484375 0.546875 -4.671875 0.546875 -3.953125 C 0.546875 -3.4375 0.8125 -3.0625 1.0625 -2.828125 C 1.46875 -2.46875 1.875 -2.375 2.234375 -2.3125 L 2.234375 -0.359375 C 1.796875 -0.40625 1.34375 -0.546875 1.109375 -0.96875 C 1.375 -1 1.625 -1.1875 1.625 -1.515625 C 1.625 -1.828125 1.390625 -2.046875 1.078125 -2.046875 C 0.8125 -2.046875 0.546875 -1.875 0.546875 -1.484375 C 0.546875 -0.84375 0.9375 -0.046875 2.234375 0.046875 L 2.234375 0.453125 L 2.640625 0.453125 L 2.640625 0.046875 C 3.984375 -0.078125 4.328125 -1.03125 4.328125 -1.6875 Z M 2.234375 -3.515625 C 1.515625 -3.65625 1.234375 -4.015625 1.234375 -4.34375 C 1.234375 -4.765625 1.578125 -5.109375 2.234375 -5.15625 Z M 3.65625 -1.296875 C 3.65625 -0.828125 3.296875 -0.4375 2.640625 -0.359375 L 2.640625 -2.21875 C 3.21875 -2.140625 3.65625 -1.78125 3.65625 -1.296875 Z M 3.65625 -1.296875 "/>
</g>
<g id="glyph-4-1">
<path d="M 4.203125 0 L 4.203125 -0.421875 L 3.015625 -0.421875 L 3.015625 -4.96875 C 3.015625 -5.25 2.96875 -5.25 2.65625 -5.25 C 2.171875 -4.859375 1.53125 -4.734375 0.90625 -4.734375 L 0.734375 -4.734375 L 0.734375 -4.3125 L 0.90625 -4.3125 C 1.109375 -4.3125 1.546875 -4.34375 2.015625 -4.484375 L 2.015625 -0.421875 L 0.8125 -0.421875 L 0.8125 0 C 1.09375 -0.03125 2.15625 -0.03125 2.515625 -0.03125 C 2.875 -0.03125 3.90625 -0.03125 4.203125 0 Z M 4.203125 0 "/>
</g>
<g id="glyph-4-2">
<path d="M 4.46875 -2.609375 C 4.46875 -3.171875 4.421875 -3.875 4.0625 -4.4375 C 3.71875 -4.96875 3.171875 -5.25 2.453125 -5.25 C 1.25 -5.25 0.40625 -4.59375 0.40625 -3.5 C 0.40625 -3.171875 0.453125 -2.671875 0.953125 -2.234375 C 1.296875 -1.953125 1.640625 -1.78125 2.34375 -1.78125 C 2.890625 -1.78125 3.203125 -2.171875 3.328125 -2.375 C 3.328125 -1.78125 3.296875 -1.296875 3.125 -0.9375 C 2.96875 -0.609375 2.59375 -0.265625 2.015625 -0.265625 C 1.9375 -0.265625 1.609375 -0.265625 1.359375 -0.421875 C 1.453125 -0.453125 1.734375 -0.59375 1.734375 -0.9375 C 1.734375 -1.25 1.5 -1.46875 1.1875 -1.46875 C 0.890625 -1.46875 0.65625 -1.265625 0.65625 -0.921875 C 0.65625 -0.359375 1.078125 0.109375 2.03125 0.109375 C 3.25 0.109375 4.46875 -0.671875 4.46875 -2.609375 Z M 3.3125 -3.484375 C 3.3125 -2.671875 2.953125 -2.125 2.359375 -2.125 C 1.546875 -2.125 1.546875 -2.75 1.546875 -3.5 C 1.546875 -4.21875 1.546875 -4.90625 2.46875 -4.90625 C 3.3125 -4.90625 3.3125 -3.9375 3.3125 -3.484375 Z M 3.3125 -3.484375 "/>
</g>
<g id="glyph-4-3">
<path d="M 7.203125 0 L 7.203125 -0.421875 L 6.9375 -0.421875 C 6.53125 -0.421875 6.515625 -0.453125 6.421875 -0.546875 L 4.125 -3.328125 L 6.171875 -4.921875 C 6.34375 -5.046875 6.671875 -5.046875 6.90625 -5.046875 L 7.0625 -5.046875 L 7.0625 -5.46875 C 6.828125 -5.4375 6.34375 -5.4375 6.15625 -5.4375 C 6.046875 -5.4375 5.5 -5.4375 5 -5.46875 L 5 -5.046875 C 5.140625 -5.046875 5.3125 -5.046875 5.515625 -4.984375 L 2.421875 -2.5625 L 2.421875 -5.046875 L 3.28125 -5.046875 L 3.28125 -5.46875 C 2.984375 -5.4375 2.171875 -5.4375 1.828125 -5.4375 C 1.484375 -5.4375 0.671875 -5.4375 0.375 -5.46875 L 0.375 -5.046875 L 1.234375 -5.046875 L 1.234375 -0.421875 L 0.375 -0.421875 L 0.375 0 C 0.671875 -0.03125 1.484375 -0.03125 1.828125 -0.03125 C 2.171875 -0.03125 2.984375 -0.03125 3.28125 0 L 3.28125 -0.421875 L 2.421875 -0.421875 L 2.421875 -2 L 3.3125 -2.6875 L 5.0625 -0.578125 C 5.0625 -0.5625 5.109375 -0.515625 5.109375 -0.484375 C 5.109375 -0.421875 4.75 -0.421875 4.578125 -0.421875 L 4.578125 0 C 4.875 -0.03125 5.640625 -0.03125 5.96875 -0.03125 Z M 7.203125 0 "/>
</g>
<g id="glyph-4-4">
<path d="M 7.890625 0 L 7.890625 -0.421875 L 7.359375 -0.421875 L 7.359375 -2.421875 C 7.359375 -3.375 6.78125 -3.59375 6.046875 -3.59375 C 5.21875 -3.59375 4.765625 -3.109375 4.609375 -2.859375 C 4.421875 -3.484375 3.875 -3.59375 3.34375 -3.59375 C 2.375 -3.59375 1.9375 -2.953125 1.84375 -2.78125 L 1.84375 -3.59375 L 0.453125 -3.53125 L 0.453125 -3.109375 C 0.921875 -3.109375 0.96875 -3.109375 0.96875 -2.8125 L 0.96875 -0.421875 L 0.453125 -0.421875 L 0.453125 0 C 0.875 -0.03125 1.15625 -0.03125 1.453125 -0.03125 C 1.765625 -0.03125 2.046875 -0.03125 2.46875 0 L 2.46875 -0.421875 L 1.9375 -0.421875 L 1.9375 -2.015625 C 1.9375 -2.90625 2.703125 -3.265625 3.21875 -3.265625 C 3.5 -3.265625 3.6875 -3.125 3.6875 -2.5 L 3.6875 -0.421875 L 3.15625 -0.421875 L 3.15625 0 C 3.578125 -0.03125 3.859375 -0.03125 4.171875 -0.03125 C 4.484375 -0.03125 4.75 -0.03125 5.171875 0 L 5.171875 -0.421875 L 4.65625 -0.421875 L 4.65625 -2.015625 C 4.65625 -2.90625 5.421875 -3.265625 5.921875 -3.265625 C 6.203125 -3.265625 6.390625 -3.125 6.390625 -2.5 L 6.390625 -0.421875 L 5.859375 -0.421875 L 5.859375 0 C 6.296875 -0.03125 6.578125 -0.03125 6.875 -0.03125 C 7.1875 -0.03125 7.453125 -0.03125 7.890625 0 Z M 7.890625 0 "/>
</g>
<g id="glyph-4-5">
<path d="M 4.1875 -0.921875 C 4.1875 -1.078125 4.03125 -1.078125 3.96875 -1.078125 C 3.828125 -1.078125 3.796875 -1.0625 3.734375 -0.9375 C 3.484375 -0.375 2.8125 -0.3125 2.578125 -0.3125 C 1.40625 -0.3125 1.359375 -1.25 1.34375 -1.6875 L 3.921875 -1.6875 C 4.09375 -1.6875 4.1875 -1.6875 4.1875 -1.921875 C 4.1875 -2.265625 4.109375 -2.78125 3.71875 -3.171875 C 3.265625 -3.625 2.546875 -3.625 2.359375 -3.625 C 0.953125 -3.625 0.265625 -2.734375 0.265625 -1.796875 C 0.265625 -0.765625 1.0625 0.0625 2.484375 0.0625 C 3.890625 0.0625 4.1875 -0.8125 4.1875 -0.921875 Z M 3.40625 -2 L 1.34375 -2 C 1.359375 -2.3125 1.390625 -3.296875 2.375 -3.296875 C 3.359375 -3.296875 3.40625 -2.3125 3.40625 -2 Z M 3.40625 -2 "/>
</g>
<g id="glyph-4-6">
<path d="M 5.046875 0 L 5.046875 -0.421875 C 4.578125 -0.421875 4.53125 -0.421875 4.53125 -0.71875 L 4.53125 -5.53125 L 3.078125 -5.46875 L 3.078125 -5.046875 C 3.546875 -5.046875 3.609375 -5.046875 3.609375 -4.734375 L 3.609375 -3.25 C 3.171875 -3.546875 2.75 -3.59375 2.46875 -3.59375 C 1.109375 -3.59375 0.328125 -2.796875 0.328125 -1.765625 C 0.328125 -0.71875 1.09375 0.0625 2.359375 0.0625 C 2.953125 0.0625 3.34375 -0.171875 3.546875 -0.328125 L 3.546875 0.0625 Z M 3.546875 -0.890625 C 3.171875 -0.359375 2.703125 -0.28125 2.4375 -0.28125 C 1.40625 -0.28125 1.40625 -1.265625 1.40625 -1.75 C 1.40625 -2.25 1.40625 -3.265625 2.546875 -3.265625 C 2.90625 -3.265625 3.28125 -3.109375 3.546875 -2.765625 Z M 3.546875 -0.890625 "/>
</g>
<g id="glyph-4-7">
<path d="M 2.390625 0 L 2.390625 -0.421875 L 1.921875 -0.421875 L 1.921875 -3.59375 L 0.5 -3.53125 L 0.5 -3.109375 C 0.9375 -3.109375 1 -3.109375 1 -2.8125 L 1 -0.421875 L 0.46875 -0.421875 L 0.46875 0 C 0.9375 -0.03125 1.015625 -0.03125 1.4375 -0.03125 C 1.765625 -0.03125 2 -0.03125 2.390625 0 Z M 2 -4.828125 C 2 -5.171875 1.703125 -5.453125 1.359375 -5.453125 C 1 -5.453125 0.71875 -5.171875 0.71875 -4.828125 C 0.71875 -4.46875 1.015625 -4.1875 1.359375 -4.1875 C 1.71875 -4.1875 2 -4.46875 2 -4.828125 Z M 2 -4.828125 "/>
</g>
<g id="glyph-4-8">
<path d="M 4.6875 -0.203125 C 4.6875 -0.421875 4.5625 -0.421875 4.453125 -0.421875 C 3.953125 -0.421875 3.953125 -0.5 3.953125 -0.671875 L 3.953125 -2.359375 C 3.953125 -3.078125 3.390625 -3.625 2.09375 -3.625 C 1.703125 -3.625 0.5625 -3.625 0.5625 -2.84375 C 0.5625 -2.484375 0.828125 -2.296875 1.09375 -2.296875 C 1.40625 -2.296875 1.640625 -2.53125 1.640625 -2.828125 C 1.640625 -3.078125 1.46875 -3.234375 1.46875 -3.234375 C 1.53125 -3.25 1.765625 -3.296875 2.078125 -3.296875 C 2.703125 -3.296875 2.984375 -2.9375 2.984375 -2.359375 L 2.984375 -2.140625 C 1.796875 -2.125 0.234375 -1.859375 0.234375 -0.890625 C 0.234375 -0.21875 1 0.0625 1.875 0.0625 C 2.6875 0.0625 3.03125 -0.375 3.140625 -0.546875 C 3.140625 -0.296875 3.234375 0 4 0 L 4.421875 0 C 4.578125 0 4.6875 0 4.6875 -0.203125 Z M 2.984375 -1.09375 C 2.984375 -0.28125 2.03125 -0.28125 2 -0.28125 C 1.578125 -0.28125 1.21875 -0.53125 1.21875 -0.90625 C 1.21875 -1.46875 1.953125 -1.8125 2.984375 -1.828125 Z M 2.984375 -1.09375 "/>
</g>
<g id="glyph-4-9">
<path d="M 5.171875 0 L 5.171875 -0.421875 L 4.65625 -0.421875 L 4.65625 -2.421875 C 4.65625 -3.390625 4.046875 -3.59375 3.34375 -3.59375 C 2.375 -3.59375 1.9375 -2.953125 1.84375 -2.78125 L 1.84375 -3.59375 L 0.453125 -3.53125 L 0.453125 -3.109375 C 0.921875 -3.109375 0.96875 -3.109375 0.96875 -2.8125 L 0.96875 -0.421875 L 0.453125 -0.421875 L 0.453125 0 C 0.875 -0.03125 1.15625 -0.03125 1.453125 -0.03125 C 1.765625 -0.03125 2.046875 -0.03125 2.46875 0 L 2.46875 -0.421875 L 1.9375 -0.421875 L 1.9375 -2.015625 C 1.9375 -2.90625 2.703125 -3.265625 3.21875 -3.265625 C 3.5 -3.265625 3.6875 -3.125 3.6875 -2.5 L 3.6875 -0.421875 L 3.15625 -0.421875 L 3.15625 0 C 3.578125 -0.03125 3.859375 -0.03125 4.171875 -0.03125 C 4.484375 -0.03125 4.75 -0.03125 5.171875 0 Z M 5.171875 0 "/>
</g>
<g id="glyph-4-10">
<path d="M 4.390625 -1.609375 C 4.390625 -2.5 3.75 -3.28125 2.46875 -3.28125 C 2.09375 -3.28125 1.71875 -3.21875 1.40625 -3.015625 L 1.40625 -4 C 1.65625 -3.953125 1.921875 -3.953125 1.96875 -3.953125 C 2.1875 -3.953125 2.71875 -3.953125 3.328125 -4.328125 C 3.53125 -4.46875 4.015625 -4.875 4.015625 -5.078125 C 4.015625 -5.203125 3.9375 -5.25 3.859375 -5.25 C 3.859375 -5.25 3.828125 -5.25 3.75 -5.203125 C 3.359375 -5.0625 2.890625 -4.984375 2.453125 -4.984375 C 2.09375 -4.984375 1.640625 -5.03125 1.109375 -5.21875 C 1.046875 -5.25 1.03125 -5.25 1.015625 -5.25 C 0.875 -5.25 0.875 -5.109375 0.875 -5 L 0.875 -2.65625 C 0.875 -2.5 0.875 -2.375 1.09375 -2.375 C 1.21875 -2.375 1.234375 -2.40625 1.3125 -2.5 C 1.640625 -2.875 2.125 -2.953125 2.4375 -2.953125 C 3.203125 -2.953125 3.203125 -2.21875 3.203125 -1.625 C 3.203125 -1.0625 3.203125 -0.265625 2.171875 -0.265625 C 1.75 -0.265625 1.359375 -0.4375 1.140625 -0.703125 C 1.46875 -0.75 1.640625 -1.015625 1.640625 -1.28125 C 1.640625 -1.640625 1.34375 -1.84375 1.0625 -1.84375 C 0.8125 -1.84375 0.484375 -1.6875 0.484375 -1.265625 C 0.484375 -0.546875 1.15625 0.109375 2.203125 0.109375 C 3.625 0.109375 4.390625 -0.65625 4.390625 -1.609375 Z M 4.390625 -1.609375 "/>
</g>
<g id="glyph-4-11">
<path d="M 4.609375 0 L 4.609375 -0.421875 L 3.78125 -0.421875 L 3.78125 -1.234375 L 4.609375 -1.234375 L 4.609375 -1.640625 L 3.78125 -1.640625 L 3.78125 -4.984375 C 3.78125 -5.234375 3.734375 -5.25 3.5 -5.25 C 3.328125 -5.25 3.28125 -5.25 3.171875 -5.125 L 0.265625 -1.640625 L 0.265625 -1.234375 L 2.71875 -1.234375 L 2.71875 -0.421875 L 1.765625 -0.421875 L 1.765625 0 C 2.0625 -0.03125 2.875 -0.03125 3.21875 -0.03125 C 3.59375 -0.03125 4.25 -0.03125 4.609375 0 Z M 2.828125 -1.640625 L 0.765625 -1.640625 L 2.828125 -4.109375 Z M 2.828125 -1.640625 "/>
</g>
<g id="glyph-4-12">
<path d="M 4.46875 -1.640625 C 4.46875 -2.09375 4.375 -2.5 3.90625 -2.90625 C 3.46875 -3.28125 3.03125 -3.359375 2.53125 -3.359375 C 2.046875 -3.359375 1.71875 -3.046875 1.546875 -2.765625 C 1.546875 -3.21875 1.5625 -3.8125 1.796875 -4.21875 C 2.0625 -4.703125 2.5625 -4.90625 2.96875 -4.90625 C 3.203125 -4.90625 3.390625 -4.859375 3.546875 -4.71875 C 3.359375 -4.671875 3.140625 -4.5 3.140625 -4.1875 C 3.140625 -3.890625 3.375 -3.65625 3.6875 -3.65625 C 4 -3.65625 4.21875 -3.875 4.21875 -4.203125 C 4.21875 -4.6875 3.890625 -5.25 2.96875 -5.25 C 1.71875 -5.25 0.40625 -4.484375 0.40625 -2.53125 C 0.40625 -1.5 0.65625 0.109375 2.46875 0.109375 C 3.65625 0.109375 4.46875 -0.5625 4.46875 -1.640625 Z M 3.328125 -1.640625 C 3.328125 -0.890625 3.328125 -0.265625 2.46875 -0.265625 C 2.078125 -0.265625 1.8125 -0.484375 1.703125 -0.734375 C 1.5625 -1.015625 1.5625 -1.65625 1.5625 -1.6875 C 1.5625 -2.40625 1.875 -3.015625 2.515625 -3.015625 C 3.328125 -3.015625 3.328125 -2.40625 3.328125 -1.640625 Z M 3.328125 -1.640625 "/>
</g>
<g id="glyph-4-13">
<path d="M 4.875 -2.015625 L 4.875 -2.34375 L 0 -2.34375 L 0 -2.015625 Z M 4.875 -2.015625 "/>
</g>
<g id="glyph-4-14">
<path d="M 4.390625 -1.8125 L 3.9375 -1.8125 C 3.875 -1.296875 3.78125 -1.125 3.734375 -1.109375 C 3.640625 -1.0625 3.03125 -1.0625 2.890625 -1.0625 L 1.796875 -1.0625 C 2.859375 -1.890625 3.296875 -2.140625 3.640625 -2.40625 C 4.1875 -2.84375 4.390625 -3.234375 4.390625 -3.6875 C 4.390625 -4.625 3.515625 -5.25 2.3125 -5.25 C 1.296875 -5.25 0.484375 -4.796875 0.484375 -4.046875 C 0.484375 -3.5625 0.875 -3.421875 1.09375 -3.421875 C 1.375 -3.421875 1.703125 -3.625 1.703125 -4.03125 C 1.703125 -4.40625 1.4375 -4.5625 1.328125 -4.59375 C 1.546875 -4.765625 1.875 -4.828125 2.125 -4.828125 C 2.84375 -4.828125 3.234375 -4.296875 3.234375 -3.6875 C 3.234375 -3.03125 2.8125 -2.5 2.34375 -2.0625 L 0.578125 -0.421875 C 0.5 -0.328125 0.484375 -0.328125 0.484375 -0.171875 L 0.484375 0 L 4.125 0 Z M 4.390625 -1.8125 "/>
</g>
<g id="glyph-4-15">
<path d="M 4.46875 -1.484375 C 4.46875 -2.375 3.703125 -2.78125 3.390625 -2.953125 C 3.71875 -3.125 4.203125 -3.421875 4.203125 -4.046875 C 4.203125 -5.15625 2.9375 -5.25 2.453125 -5.25 C 1.265625 -5.25 0.671875 -4.609375 0.671875 -3.828125 C 0.671875 -3.296875 1.015625 -2.875 1.4375 -2.625 C 0.609375 -2.265625 0.40625 -1.765625 0.40625 -1.28125 C 0.40625 -0.28125 1.3125 0.109375 2.421875 0.109375 C 3.796875 0.109375 4.46875 -0.59375 4.46875 -1.484375 Z M 3.53125 -4.046875 C 3.53125 -3.75 3.40625 -3.4375 2.96875 -3.171875 L 1.71875 -3.828125 C 1.5625 -3.90625 1.34375 -4.046875 1.34375 -4.296875 C 1.34375 -4.796875 1.9375 -4.90625 2.421875 -4.90625 C 3.140625 -4.90625 3.53125 -4.578125 3.53125 -4.046875 Z M 3.71875 -1.046875 C 3.71875 -0.375 2.9375 -0.265625 2.453125 -0.265625 C 1.6875 -0.265625 1.15625 -0.609375 1.15625 -1.28125 C 1.15625 -2.078125 1.890625 -2.375 1.890625 -2.375 L 2.3125 -2.171875 L 3.21875 -1.6875 C 3.34375 -1.625 3.71875 -1.421875 3.71875 -1.046875 Z M 3.71875 -1.046875 "/>
</g>
</g>
</defs>
<g fill="rgb(0.39978%, 12.89978%, 41.19873%)" fill-opacity="1">
<use xlink:href="#glyph-0-0" x="89.306" y="14.518"/>
<use xlink:href="#glyph-0-1" x="97.259197" y="14.518"/>
<use xlink:href="#glyph-0-2" x="102.127952" y="14.518"/>
<use xlink:href="#glyph-0-1" x="106.315261" y="14.518"/>
<use xlink:href="#glyph-0-3" x="111.184016" y="14.518"/>
<use xlink:href="#glyph-0-4" x="116.339696" y="14.518"/>
<use xlink:href="#glyph-0-5" x="120.715299" y="14.518"/>
</g>
<g fill="rgb(0.39978%, 12.89978%, 41.19873%)" fill-opacity="1">
<use xlink:href="#glyph-0-6" x="125.144701" y="14.518"/>
</g>
<g fill="rgb(0.39978%, 12.89978%, 41.19873%)" fill-opacity="1">
<use xlink:href="#glyph-0-7" x="91.243" y="152.764"/>
<use xlink:href="#glyph-0-4" x="98.487851" y="152.764"/>
<use xlink:href="#glyph-0-8" x="102.863454" y="152.764"/>
</g>
<g fill="rgb(0.39978%, 12.89978%, 41.19873%)" fill-opacity="1">
<use xlink:href="#glyph-0-9" x="108.467454" y="152.764"/>
<use xlink:href="#glyph-0-10" x="114.358379" y="152.764"/>
<use xlink:href="#glyph-0-5" x="120.249304" y="152.764"/>
<use xlink:href="#glyph-0-11" x="124.96563" y="152.764"/>
</g>
<g fill="rgb(0.39978%, 12.89978%, 41.19873%)" fill-opacity="1">
<use xlink:href="#glyph-1-0" x="19.366" y="93.182"/>
<use xlink:href="#glyph-1-1" x="19.366" y="85.641258"/>
<use xlink:href="#glyph-1-2" x="19.366" y="79.750333"/>
<use xlink:href="#glyph-1-3" x="19.366" y="76.800387"/>
<use xlink:href="#glyph-1-4" x="19.366" y="73.850442"/>
</g>
<g fill="rgb(0.39978%, 12.89978%, 41.19873%)" fill-opacity="1">
<use xlink:href="#glyph-2-0" x="201.81" y="61.974"/>
<use xlink:href="#glyph-2-1" x="201.81" y="69.980995"/>
<use xlink:href="#glyph-2-2" x="201.81" y="75.87192"/>
<use xlink:href="#glyph-2-3" x="201.81" y="81.0276"/>
<use xlink:href="#glyph-2-4" x="201.81" y="83.977546"/>
<use xlink:href="#glyph-2-5" x="201.81" y="89.581546"/>
<use xlink:href="#glyph-2-6" x="201.81" y="94.297872"/>
</g>
<path fill="none" stroke-width="0.79701" stroke-linecap="butt" stroke-linejoin="miter" stroke="rgb(84.999084%, 84.999084%, 84.999084%)" stroke-opacity="1" stroke-miterlimit="10" d="M 0.000625 63.893687 L 182.551406 63.893687 " transform="matrix(1, 0, 0, -1, 18.89, 144.464)"/>
<path fill="none" stroke-width="0.79701" stroke-linecap="butt" stroke-linejoin="miter" stroke="rgb(84.999084%, 84.999084%, 84.999084%)" stroke-opacity="1" stroke-miterlimit="10" d="M 91.277969 -0.00084375 L 91.277969 127.788219 " transform="matrix(1, 0, 0, -1, 18.89, 144.464)"/>
<path fill-rule="nonzero" fill="rgb(90.979004%, 92.939758%, 96.076965%)" fill-opacity="1" stroke-width="0.3985" stroke-linecap="butt" stroke-linejoin="miter" stroke="rgb(0.390625%, 12.940979%, 41.175842%)" stroke-opacity="1" stroke-miterlimit="10" d="M 83.094375 126.256969 L 0.356094 126.256969 C -1.843125 126.256969 -3.628281 124.471812 -3.628281 122.272594 L -3.628281 70.714 C -3.628281 68.510875 -1.843125 66.729625 0.356094 66.729625 L 83.094375 66.729625 C 85.2975 66.729625 87.082656 68.510875 87.082656 70.714 L 87.082656 122.272594 C 87.082656 124.471812 85.2975 126.256969 83.094375 126.256969 Z M 83.094375 126.256969 " transform="matrix(1, 0, 0, -1, 18.89, 144.464)"/>
<g fill="rgb(0.39978%, 12.89978%, 41.19873%)" fill-opacity="1">
<use xlink:href="#glyph-0-12" x="8.302" y="36.704"/>
<use xlink:href="#glyph-0-13" x="18.362301" y="36.704"/>
</g>
<g fill="rgb(0.39978%, 12.89978%, 41.19873%)" fill-opacity="1">
<use xlink:href="#glyph-0-0" x="28.270173" y="36.704"/>
<use xlink:href="#glyph-0-1" x="36.22337" y="36.704"/>
<use xlink:href="#glyph-0-2" x="41.092125" y="36.704"/>
<use xlink:href="#glyph-0-1" x="45.279434" y="36.704"/>
<use xlink:href="#glyph-0-3" x="50.148189" y="36.704"/>
<use xlink:href="#glyph-0-4" x="55.303869" y="36.704"/>
<use xlink:href="#glyph-0-5" x="59.679472" y="36.704"/>
</g>
<g fill="rgb(0.39978%, 12.89978%, 41.19873%)" fill-opacity="1">
<use xlink:href="#glyph-0-6" x="64.108874" y="36.704"/>
</g>
<g fill="rgb(0.39978%, 12.89978%, 41.19873%)" fill-opacity="1">
<use xlink:href="#glyph-0-14" x="73.523594" y="36.704"/>
<use xlink:href="#glyph-0-5" x="79.414518" y="36.704"/>
<use xlink:href="#glyph-0-15" x="84.130845" y="36.704"/>
<use xlink:href="#glyph-0-1" x="87.08079" y="36.704"/>
<use xlink:href="#glyph-0-16" x="91.949546" y="36.704"/>
</g>
<g fill="rgb(0.39978%, 12.89978%, 41.19873%)" fill-opacity="1">
<use xlink:href="#glyph-0-11" x="97.553546" y="36.704"/>
<use xlink:href="#glyph-0-15" x="101.67809" y="36.704"/>
<use xlink:href="#glyph-0-2" x="104.628035" y="36.704"/>
<use xlink:href="#glyph-0-11" x="108.815344" y="36.704"/>
</g>
<g fill="rgb(0%, 0%, 0%)" fill-opacity="1">
<use xlink:href="#glyph-3-0" x="35.629" y="44.368"/>
</g>
<g fill="rgb(0%, 0%, 0%)" fill-opacity="1">
<use xlink:href="#glyph-3-1" x="43.61504" y="44.368"/>
<use xlink:href="#glyph-3-2" x="46.914662" y="44.368"/>
<use xlink:href="#glyph-3-3" x="49.265841" y="44.368"/>
<use xlink:href="#glyph-3-4" x="52.557492" y="44.368"/>
</g>
<g fill="rgb(0%, 0%, 0%)" fill-opacity="1">
<use xlink:href="#glyph-3-5" x="58.973423" y="44.368"/>
<use xlink:href="#glyph-3-6" x="63.675782" y="44.368"/>
<use xlink:href="#glyph-3-5" x="67.907905" y="44.368"/>
</g>
<g fill="rgb(0%, 0%, 0%)" fill-opacity="1">
<use xlink:href="#glyph-3-4" x="72.849367" y="44.368"/>
<use xlink:href="#glyph-3-1" x="76.611254" y="44.368"/>
<use xlink:href="#glyph-3-7" x="79.910876" y="44.368"/>
<use xlink:href="#glyph-3-8" x="83.250348" y="44.368"/>
</g>
<g fill="rgb(0%, 0%, 0%)" fill-opacity="1">
<use xlink:href="#glyph-3-1" x="29.512" y="53.833"/>
<use xlink:href="#glyph-3-9" x="32.811621" y="53.833"/>
<use xlink:href="#glyph-3-10" x="37.51398" y="53.833"/>
</g>
<g fill="rgb(0%, 0%, 0%)" fill-opacity="1">
<use xlink:href="#glyph-3-4" x="44.870383" y="53.833"/>
<use xlink:href="#glyph-3-11" x="48.63227" y="53.833"/>
<use xlink:href="#glyph-3-5" x="53.103496" y="53.833"/>
</g>
<g fill="rgb(0%, 0%, 0%)" fill-opacity="1">
<use xlink:href="#glyph-3-4" x="58.044958" y="53.833"/>
<use xlink:href="#glyph-3-1" x="61.806845" y="53.833"/>
<use xlink:href="#glyph-3-2" x="65.106467" y="53.833"/>
<use xlink:href="#glyph-3-12" x="67.457646" y="53.833"/>
<use xlink:href="#glyph-3-4" x="74.511185" y="53.833"/>
<use xlink:href="#glyph-3-10" x="78.273072" y="53.833"/>
</g>
<g fill="rgb(0%, 0%, 0%)" fill-opacity="1">
<use xlink:href="#glyph-3-3" x="82.744298" y="53.833"/>
<use xlink:href="#glyph-3-7" x="86.035949" y="53.833"/>
<use xlink:href="#glyph-3-8" x="89.375421" y="53.833"/>
</g>
<g fill="rgb(0%, 0%, 0%)" fill-opacity="1">
<use xlink:href="#glyph-3-5" x="39.048" y="63.297"/>
<use xlink:href="#glyph-3-9" x="43.750359" y="63.297"/>
<use xlink:href="#glyph-3-7" x="48.452718" y="63.297"/>
<use xlink:href="#glyph-3-13" x="51.79219" y="63.297"/>
</g>
<g fill="rgb(0%, 0%, 0%)" fill-opacity="1">
<use xlink:href="#glyph-3-14" x="59.148592" y="63.297"/>
<use xlink:href="#glyph-3-15" x="63.850951" y="63.297"/>
<use xlink:href="#glyph-3-16" x="70.434254" y="63.297"/>
</g>
<g fill="rgb(0%, 0%, 0%)" fill-opacity="1">
<use xlink:href="#glyph-3-17" x="75.845952" y="63.297"/>
</g>
<g fill="rgb(8.198547%, 50.19989%, 23.899841%)" fill-opacity="1">
<use xlink:href="#glyph-4-0" x="29.947" y="68.993"/>
<use xlink:href="#glyph-4-1" x="34.832671" y="68.993"/>
<use xlink:href="#glyph-4-2" x="39.718343" y="68.993"/>
<use xlink:href="#glyph-4-1" x="44.604014" y="68.993"/>
<use xlink:href="#glyph-4-3" x="49.489685" y="68.993"/>
</g>
<g fill="rgb(8.198547%, 50.19989%, 23.899841%)" fill-opacity="1">
<use xlink:href="#glyph-4-4" x="60.360902" y="68.993"/>
<use xlink:href="#glyph-4-5" x="68.498374" y="68.993"/>
<use xlink:href="#glyph-4-6" x="72.9696" y="68.993"/>
<use xlink:href="#glyph-4-7" x="78.397238" y="68.993"/>
<use xlink:href="#glyph-4-8" x="81.107072" y="68.993"/>
<use xlink:href="#glyph-4-9" x="85.857252" y="68.993"/>
</g>
<path fill-rule="nonzero" fill="rgb(97.802734%, 96.737671%, 94.854736%)" fill-opacity="1" stroke-width="0.3985" stroke-linecap="butt" stroke-linejoin="miter" stroke="rgb(72.549438%, 59.214783%, 35.68573%)" stroke-opacity="1" stroke-miterlimit="10" d="M 182.195938 126.256969 L 99.457656 126.256969 C 97.254531 126.256969 95.473281 124.471812 95.473281 122.272594 L 95.473281 70.714 C 95.473281 68.510875 97.254531 66.729625 99.457656 66.729625 L 182.195938 66.729625 C 184.399063 66.729625 186.180313 68.510875 186.180313 70.714 L 186.180313 122.272594 C 186.180313 124.471812 184.399063 126.256969 182.195938 126.256969 Z M 182.195938 126.256969 " transform="matrix(1, 0, 0, -1, 18.89, 144.464)"/>
<g fill="rgb(72.599792%, 59.199524%, 35.699463%)" fill-opacity="1">
<use xlink:href="#glyph-0-17" x="126.962" y="36.704"/>
<use xlink:href="#glyph-0-3" x="135.094525" y="36.704"/>
<use xlink:href="#glyph-0-11" x="140.250205" y="36.704"/>
<use xlink:href="#glyph-0-3" x="144.374749" y="36.704"/>
</g>
<g fill="rgb(72.599792%, 59.199524%, 35.699463%)" fill-opacity="1">
<use xlink:href="#glyph-0-14" x="153.06319" y="36.704"/>
<use xlink:href="#glyph-0-5" x="158.954115" y="36.704"/>
<use xlink:href="#glyph-0-15" x="163.670442" y="36.704"/>
<use xlink:href="#glyph-0-1" x="166.620387" y="36.704"/>
<use xlink:href="#glyph-0-16" x="171.489142" y="36.704"/>
</g>
<g fill="rgb(72.599792%, 59.199524%, 35.699463%)" fill-opacity="1">
<use xlink:href="#glyph-0-11" x="177.093142" y="36.704"/>
<use xlink:href="#glyph-0-15" x="181.217686" y="36.704"/>
<use xlink:href="#glyph-0-2" x="184.167632" y="36.704"/>
<use xlink:href="#glyph-0-11" x="188.354941" y="36.704"/>
</g>
<g fill="rgb(0%, 0%, 0%)" fill-opacity="1">
<use xlink:href="#glyph-3-18" x="123.556" y="49.877"/>
<use xlink:href="#glyph-3-2" x="129.079279" y="49.877"/>
<use xlink:href="#glyph-3-10" x="131.430459" y="49.877"/>
<use xlink:href="#glyph-3-19" x="136.132818" y="49.877"/>
</g>
<g fill="rgb(0%, 0%, 0%)" fill-opacity="1">
<use xlink:href="#glyph-3-7" x="143.48922" y="49.877"/>
<use xlink:href="#glyph-3-2" x="146.828692" y="49.877"/>
<use xlink:href="#glyph-3-20" x="149.179872" y="49.877"/>
<use xlink:href="#glyph-3-10" x="153.411995" y="49.877"/>
<use xlink:href="#glyph-3-6" x="158.114354" y="49.877"/>
<use xlink:href="#glyph-3-21" x="162.346477" y="49.877"/>
</g>
<g fill="rgb(0%, 0%, 0%)" fill-opacity="1">
<use xlink:href="#glyph-3-2" x="167.3517" y="49.877"/>
<use xlink:href="#glyph-3-10" x="169.702879" y="49.877"/>
</g>
<g fill="rgb(0%, 0%, 0%)" fill-opacity="1">
<use xlink:href="#glyph-3-19" x="177.059281" y="49.877"/>
<use xlink:href="#glyph-3-6" x="181.76164" y="49.877"/>
<use xlink:href="#glyph-3-3" x="185.993763" y="49.877"/>
<use xlink:href="#glyph-3-6" x="189.285415" y="49.877"/>
<use xlink:href="#glyph-3-8" x="193.517538" y="49.877"/>
</g>
<g fill="rgb(0%, 0%, 0%)" fill-opacity="1">
<use xlink:href="#glyph-3-2" x="130.002" y="59.342"/>
<use xlink:href="#glyph-3-10" x="132.35318" y="59.342"/>
<use xlink:href="#glyph-3-22" x="137.055539" y="59.342"/>
<use xlink:href="#glyph-3-23" x="139.645821" y="59.342"/>
<use xlink:href="#glyph-3-1" x="143.877944" y="59.342"/>
<use xlink:href="#glyph-3-12" x="147.177566" y="59.342"/>
</g>
<g fill="rgb(0%, 0%, 0%)" fill-opacity="1">
<use xlink:href="#glyph-3-19" x="156.885147" y="59.342"/>
<use xlink:href="#glyph-3-4" x="161.587506" y="59.342"/>
<use xlink:href="#glyph-3-24" x="165.349394" y="59.342"/>
<use xlink:href="#glyph-3-2" x="169.111281" y="59.342"/>
<use xlink:href="#glyph-3-7" x="171.46246" y="59.342"/>
<use xlink:href="#glyph-3-2" x="174.801932" y="59.342"/>
<use xlink:href="#glyph-3-23" x="177.153112" y="59.342"/>
<use xlink:href="#glyph-3-10" x="181.385235" y="59.342"/>
<use xlink:href="#glyph-3-7" x="186.087594" y="59.342"/>
</g>
<g fill="rgb(8.198547%, 50.19989%, 23.899841%)" fill-opacity="1">
<use xlink:href="#glyph-4-0" x="129.047" y="68.993"/>
<use xlink:href="#glyph-4-1" x="133.932671" y="68.993"/>
<use xlink:href="#glyph-4-10" x="138.818343" y="68.993"/>
<use xlink:href="#glyph-4-11" x="143.704014" y="68.993"/>
<use xlink:href="#glyph-4-3" x="148.589685" y="68.993"/>
</g>
<g fill="rgb(8.198547%, 50.19989%, 23.899841%)" fill-opacity="1">
<use xlink:href="#glyph-4-4" x="159.460902" y="68.993"/>
<use xlink:href="#glyph-4-5" x="167.598374" y="68.993"/>
<use xlink:href="#glyph-4-6" x="172.0696" y="68.993"/>
<use xlink:href="#glyph-4-7" x="177.497238" y="68.993"/>
<use xlink:href="#glyph-4-8" x="180.207072" y="68.993"/>
<use xlink:href="#glyph-4-9" x="184.957251" y="68.993"/>
</g>
<path fill-rule="nonzero" fill="rgb(92.03186%, 93.035889%, 95.292664%)" fill-opacity="1" stroke-width="0.3985" stroke-linecap="butt" stroke-linejoin="miter" stroke="rgb(0.390625%, 12.940979%, 41.175842%)" stroke-opacity="1" stroke-miterlimit="10" d="M 83.094375 61.05775 L 0.356094 61.05775 C -1.843125 61.05775 -3.628281 59.2765 -3.628281 57.073375 L -3.628281 5.514781 C -3.628281 3.315562 -1.843125 1.530406 0.356094 1.530406 L 83.094375 1.530406 C 85.2975 1.530406 87.082656 3.315562 87.082656 5.514781 L 87.082656 57.073375 C 87.082656 59.2765 85.2975 61.05775 83.094375 61.05775 Z M 83.094375 61.05775 " transform="matrix(1, 0, 0, -1, 18.89, 144.464)"/>
<g fill="rgb(0.39978%, 12.89978%, 41.19873%)" fill-opacity="1">
<use xlink:href="#glyph-0-12" x="17.882" y="101.067"/>
<use xlink:href="#glyph-0-13" x="27.942301" y="101.067"/>
</g>
<g fill="rgb(0.39978%, 12.89978%, 41.19873%)" fill-opacity="1">
<use xlink:href="#glyph-0-18" x="37.850173" y="101.067"/>
</g>
<g fill="rgb(0.39978%, 12.89978%, 41.19873%)" fill-opacity="1">
<use xlink:href="#glyph-0-19" x="46.691043" y="101.067"/>
<use xlink:href="#glyph-0-20" x="54.698038" y="101.067"/>
</g>
<g fill="rgb(0.39978%, 12.89978%, 41.19873%)" fill-opacity="1">
<use xlink:href="#glyph-0-21" x="62.229814" y="101.067"/>
<use xlink:href="#glyph-0-16" x="69.196707" y="101.067"/>
<use xlink:href="#glyph-0-22" x="75.087632" y="101.067"/>
<use xlink:href="#glyph-0-15" x="80.395741" y="101.067"/>
<use xlink:href="#glyph-0-16" x="83.345686" y="101.067"/>
<use xlink:href="#glyph-0-1" x="89.236611" y="101.067"/>
<use xlink:href="#glyph-0-1" x="94.105366" y="101.067"/>
<use xlink:href="#glyph-0-4" x="98.974122" y="101.067"/>
</g>
<g fill="rgb(0%, 0%, 0%)" fill-opacity="1">
<use xlink:href="#glyph-3-14" x="33.129" y="112.257"/>
<use xlink:href="#glyph-3-13" x="37.831359" y="112.257"/>
<use xlink:href="#glyph-3-2" x="42.533718" y="112.257"/>
<use xlink:href="#glyph-3-5" x="44.884898" y="112.257"/>
</g>
<g fill="rgb(0%, 0%, 0%)" fill-opacity="1">
<use xlink:href="#glyph-3-12" x="52.2413" y="112.257"/>
<use xlink:href="#glyph-3-23" x="59.294838" y="112.257"/>
</g>
<g fill="rgb(0%, 0%, 0%)" fill-opacity="1">
<use xlink:href="#glyph-3-19" x="63.766064" y="112.257"/>
<use xlink:href="#glyph-3-4" x="68.468423" y="112.257"/>
<use xlink:href="#glyph-3-21" x="72.230311" y="112.257"/>
<use xlink:href="#glyph-3-7" x="74.58149" y="112.257"/>
</g>
<g fill="rgb(0%, 0%, 0%)" fill-opacity="1">
<use xlink:href="#glyph-3-3" x="80.575005" y="112.257"/>
<use xlink:href="#glyph-3-23" x="83.866657" y="112.257"/>
</g>
<g fill="rgb(0%, 0%, 0%)" fill-opacity="1">
<use xlink:href="#glyph-3-5" x="39.332" y="121.722"/>
<use xlink:href="#glyph-3-1" x="44.034359" y="121.722"/>
<use xlink:href="#glyph-3-23" x="47.33398" y="121.722"/>
</g>
<g fill="rgb(0%, 0%, 0%)" fill-opacity="1">
<use xlink:href="#glyph-3-19" x="51.805207" y="121.722"/>
<use xlink:href="#glyph-3-9" x="56.507566" y="121.722"/>
<use xlink:href="#glyph-3-24" x="61.209925" y="121.722"/>
<use xlink:href="#glyph-3-3" x="64.971812" y="121.722"/>
<use xlink:href="#glyph-3-2" x="68.263463" y="121.722"/>
<use xlink:href="#glyph-3-23" x="70.614643" y="121.722"/>
<use xlink:href="#glyph-3-10" x="74.846766" y="121.722"/>
<use xlink:href="#glyph-3-8" x="79.549125" y="121.722"/>
</g>
<g fill="rgb(0%, 0%, 0%)" fill-opacity="1">
<use xlink:href="#glyph-3-23" x="30.216" y="131.186"/>
</g>
<g fill="rgb(0%, 0%, 0%)" fill-opacity="1">
<use xlink:href="#glyph-3-25" x="34.20902" y="131.186"/>
<use xlink:href="#glyph-3-10" x="40.322087" y="131.186"/>
</g>
<g fill="rgb(0%, 0%, 0%)" fill-opacity="1">
<use xlink:href="#glyph-3-3" x="47.678489" y="131.186"/>
<use xlink:href="#glyph-3-13" x="50.97014" y="131.186"/>
<use xlink:href="#glyph-3-4" x="55.672499" y="131.186"/>
</g>
<g fill="rgb(0%, 0%, 0%)" fill-opacity="1">
<use xlink:href="#glyph-3-5" x="62.08843" y="131.186"/>
<use xlink:href="#glyph-3-2" x="66.790789" y="131.186"/>
<use xlink:href="#glyph-3-5" x="69.141968" y="131.186"/>
</g>
<g fill="rgb(0%, 0%, 0%)" fill-opacity="1">
<use xlink:href="#glyph-3-4" x="74.08343" y="131.186"/>
<use xlink:href="#glyph-3-21" x="77.845318" y="131.186"/>
<use xlink:href="#glyph-3-2" x="80.196497" y="131.186"/>
<use xlink:href="#glyph-3-10" x="82.547677" y="131.186"/>
<use xlink:href="#glyph-3-4" x="87.250036" y="131.186"/>
</g>
<g fill="rgb(8.198547%, 50.19989%, 23.899841%)" fill-opacity="1">
<use xlink:href="#glyph-4-0" x="31.011" y="136.798"/>
<use xlink:href="#glyph-4-1" x="35.896671" y="136.798"/>
<use xlink:href="#glyph-4-12" x="40.782343" y="136.798"/>
<use xlink:href="#glyph-4-10" x="45.668014" y="136.798"/>
<use xlink:href="#glyph-4-3" x="50.553685" y="136.798"/>
<use xlink:href="#glyph-4-13" x="58.173101" y="136.798"/>
<use xlink:href="#glyph-4-0" x="63.058772" y="136.798"/>
<use xlink:href="#glyph-4-14" x="67.944443" y="136.798"/>
<use xlink:href="#glyph-4-11" x="72.830115" y="136.798"/>
<use xlink:href="#glyph-4-10" x="77.715786" y="136.798"/>
<use xlink:href="#glyph-4-3" x="82.601457" y="136.798"/>
</g>
<path fill-rule="nonzero" fill="rgb(95.881653%, 93.882751%, 90.351868%)" fill-opacity="1" stroke-width="0.3985" stroke-linecap="butt" stroke-linejoin="miter" stroke="rgb(72.549438%, 59.214783%, 35.68573%)" stroke-opacity="1" stroke-miterlimit="10" d="M 182.195938 61.05775 L 99.457656 61.05775 C 97.254531 61.05775 95.473281 59.2765 95.473281 57.073375 L 95.473281 5.514781 C 95.473281 3.315562 97.254531 1.530406 99.457656 1.530406 L 182.195938 1.530406 C 184.399063 1.530406 186.180313 3.315562 186.180313 5.514781 L 186.180313 57.073375 C 186.180313 59.2765 184.399063 61.05775 182.195938 61.05775 Z M 182.195938 61.05775 " transform="matrix(1, 0, 0, -1, 18.89, 144.464)"/>
<g fill="rgb(72.599792%, 59.199524%, 35.699463%)" fill-opacity="1">
<use xlink:href="#glyph-0-19" x="110.849" y="101.063"/>
<use xlink:href="#glyph-0-20" x="118.855995" y="101.063"/>
</g>
<g fill="rgb(72.599792%, 59.199524%, 35.699463%)" fill-opacity="1">
<use xlink:href="#glyph-0-7" x="126.387771" y="101.063"/>
<use xlink:href="#glyph-0-4" x="133.632622" y="101.063"/>
<use xlink:href="#glyph-0-8" x="138.008226" y="101.063"/>
</g>
<g fill="rgb(72.599792%, 59.199524%, 35.699463%)" fill-opacity="1">
<use xlink:href="#glyph-0-9" x="143.612226" y="101.063"/>
<use xlink:href="#glyph-0-10" x="149.50315" y="101.063"/>
<use xlink:href="#glyph-0-5" x="155.394075" y="101.063"/>
<use xlink:href="#glyph-0-11" x="160.110402" y="101.063"/>
</g>
<g fill="rgb(72.599792%, 59.199524%, 35.699463%)" fill-opacity="1">
<use xlink:href="#glyph-0-12" x="167.767707" y="101.063"/>
<use xlink:href="#glyph-0-3" x="177.828008" y="101.063"/>
<use xlink:href="#glyph-0-16" x="182.983688" y="101.063"/>
<use xlink:href="#glyph-0-3" x="188.874613" y="101.063"/>
<use xlink:href="#glyph-0-22" x="194.030293" y="101.063"/>
<use xlink:href="#glyph-0-1" x="199.338402" y="101.063"/>
<use xlink:href="#glyph-0-4" x="204.207157" y="101.063"/>
</g>
<g fill="rgb(0%, 0%, 0%)" fill-opacity="1">
<use xlink:href="#glyph-3-26" x="121.699" y="116.949"/>
<use xlink:href="#glyph-3-4" x="128.162751" y="116.949"/>
<use xlink:href="#glyph-3-27" x="131.924638" y="116.949"/>
<use xlink:href="#glyph-3-10" x="136.626997" y="116.949"/>
<use xlink:href="#glyph-3-4" x="141.329356" y="116.949"/>
</g>
<g fill="rgb(0%, 0%, 0%)" fill-opacity="1">
<use xlink:href="#glyph-3-25" x="147.745287" y="116.949"/>
<use xlink:href="#glyph-3-13" x="153.858354" y="116.949"/>
<use xlink:href="#glyph-3-6" x="158.560713" y="116.949"/>
<use xlink:href="#glyph-3-3" x="162.792836" y="116.949"/>
</g>
<g fill="rgb(0%, 0%, 0%)" fill-opacity="1">
<use xlink:href="#glyph-3-3" x="168.73853" y="116.949"/>
<use xlink:href="#glyph-3-23" x="172.030182" y="116.949"/>
</g>
<g fill="rgb(0%, 0%, 0%)" fill-opacity="1">
<use xlink:href="#glyph-3-28" x="178.916348" y="116.949"/>
<use xlink:href="#glyph-3-9" x="183.618707" y="116.949"/>
<use xlink:href="#glyph-3-2" x="188.321066" y="116.949"/>
<use xlink:href="#glyph-3-21" x="190.672245" y="116.949"/>
<use xlink:href="#glyph-3-19" x="193.023425" y="116.949"/>
</g>
<g fill="rgb(0%, 0%, 0%)" fill-opacity="1">
<use xlink:href="#glyph-3-6" x="144.046" y="126.414"/>
<use xlink:href="#glyph-3-10" x="148.278123" y="126.414"/>
<use xlink:href="#glyph-3-19" x="152.980482" y="126.414"/>
</g>
<g fill="rgb(0%, 0%, 0%)" fill-opacity="1">
<use xlink:href="#glyph-3-25" x="160.336884" y="126.414"/>
<use xlink:href="#glyph-3-13" x="166.449951" y="126.414"/>
</g>
<g fill="rgb(0%, 0%, 0%)" fill-opacity="1">
<use xlink:href="#glyph-3-29" x="170.921177" y="126.414"/>
</g>
<g fill="rgb(8.198547%, 50.19989%, 23.899841%)" fill-opacity="1">
<use xlink:href="#glyph-4-0" x="129.047" y="136.798"/>
<use xlink:href="#glyph-4-1" x="133.932671" y="136.798"/>
<use xlink:href="#glyph-4-2" x="138.818343" y="136.798"/>
<use xlink:href="#glyph-4-15" x="143.704014" y="136.798"/>
<use xlink:href="#glyph-4-3" x="148.589685" y="136.798"/>
</g>
<g fill="rgb(8.198547%, 50.19989%, 23.899841%)" fill-opacity="1">
<use xlink:href="#glyph-4-4" x="159.460902" y="136.798"/>
<use xlink:href="#glyph-4-5" x="167.598374" y="136.798"/>
<use xlink:href="#glyph-4-6" x="172.0696" y="136.798"/>
<use xlink:href="#glyph-4-7" x="177.497238" y="136.798"/>
<use xlink:href="#glyph-4-8" x="180.207072" y="136.798"/>
<use xlink:href="#glyph-4-9" x="184.957251" y="136.798"/>
</g>
</svg>
