<svg xmlns="http://www.w3.org/2000/svg" id="w06-wm-world-model-1" viewBox="0 0 1200 530" role="img" aria-labelledby="w06-wm-world-model-1-title w06-wm-world-model-1-desc"><title id="w06-wm-world-model-1-title">Predict what an action will change</title><desc id="w06-wm-world-model-1-desc">Own large-type reconstruction after Hyeongmin Lee, DGIST 2026 slide31, using the established drawer example. Predicted scene is illustrative, not empirical model output.</desc><style>#w06-wm-world-model-1 text{font-family:"Source Sans Pro","Pretendard",Arial,sans-serif} #w06-wm-world-model-1 *{vector-effect:non-scaling-stroke}</style><rect width="1200" height="530" fill="white"/><text x="190" y="74" font-size="45" fill="#356FC4" font-weight="600" text-anchor="middle">Now</text><text x="600" y="74" font-size="45" fill="#012169" font-weight="600" text-anchor="middle">World model</text><text x="1010" y="74" font-size="43" fill="#287B83" font-weight="600" text-anchor="middle">Predicted next</text><g xmlns="http://www.w3.org/2000/svg" transform="translate(45 125) scale(0.43)" data-objects="cup drawer"><path d="M 26 101 L 338 101 L 389 137 L 69 137 Z" stroke="#012169" stroke-width="3" fill="#F4F6FA" stroke-linecap="round" stroke-linejoin="round" /><path d="M 69 137 L 389 137 L 389 288 L 69 288 Z" stroke="#012169" stroke-width="4" fill="white" stroke-linecap="round" stroke-linejoin="round" /><path d="M 26 101 L 69 137 L 69 288 L 26 251 Z" stroke="#012169" stroke-width="3" fill="#E8EDF5" stroke-linecap="round" stroke-linejoin="round" /><rect x="91" y="158" width="271" height="102" rx="3" fill="white" stroke="#012169" stroke-width="3" /><rect x="184" y="197" width="84" height="12" rx="5" fill="#E8EDF5" stroke="#012169" stroke-width="3" /><g transform="translate(301 55) scale(0.67)"><path d="M 0 0 L 8 74 Q 40 88 72 74 L 80 0 Z" stroke="#012169" stroke-width="4" fill="white" stroke-linecap="round" stroke-linejoin="round" /><path d="M 80 14 C 116 8 119 63 78 61" stroke="#012169" stroke-width="4" fill="none" stroke-linecap="round" stroke-linejoin="round" /><path d="M 0 0 Q 40 -9 80 0" stroke="#012169" stroke-width="4" fill="none" stroke-linecap="round" stroke-linejoin="round" /></g></g><g xmlns="http://www.w3.org/2000/svg" transform="translate(861 125) scale(0.43)"><path d="M 26 101 L 338 101 L 389 137 L 69 137 Z" stroke="#012169" stroke-width="3" fill="#F4F6FA" stroke-linecap="round" stroke-linejoin="round" /><path d="M 69 137 L 389 137 L 389 288 L 69 288 Z" stroke="#012169" stroke-width="4" fill="white" stroke-linecap="round" stroke-linejoin="round" /><path d="M 26 101 L 69 137 L 69 288 L 26 251 Z" stroke="#012169" stroke-width="3" fill="#E8EDF5" stroke-linecap="round" stroke-linejoin="round" /><rect x="91" y="158" width="271" height="102" rx="3" fill="#E8EDF5" stroke="#012169" stroke-width="3" /><path d="M 91 159 L 70 234 L 350 234 L 362 159" stroke="#012169" stroke-width="3" fill="#F4F6FA" stroke-linecap="round" stroke-linejoin="round" /><rect x="70" y="234" width="280" height="63" rx="3" fill="white" stroke="#012169" stroke-width="3" /><rect x="165" y="258" width="86" height="11" rx="4" fill="#E8EDF5" stroke="#012169" stroke-width="3" /><g transform="translate(301 37) scale(0.67)"><path d="M 0 0 L 8 74 Q 40 88 72 74 L 80 0 Z" stroke="#012169" stroke-width="4" fill="white" stroke-linecap="round" stroke-linejoin="round" /><path d="M 80 14 C 116 8 119 63 78 61" stroke="#012169" stroke-width="4" fill="none" stroke-linecap="round" stroke-linejoin="round" /><path d="M 0 0 Q 40 -9 80 0" stroke="#012169" stroke-width="4" fill="none" stroke-linecap="round" stroke-linejoin="round" /></g></g><rect x="444" y="182" width="312" height="146" rx="12" fill="#E8EDF5" stroke="#012169" stroke-width="3"/><text x="600" y="243" font-size="43" fill="#012169" font-weight="400" text-anchor="middle">Predict a</text><text x="600" y="293" font-size="41" fill="#012169" font-weight="400" text-anchor="middle">possible future</text><path d="M332 252L416 252" stroke="#012169" stroke-width="4" fill="none"/><path d="M402 243L416 252L402 261" fill="none" stroke="#012169" stroke-width="4"/><path d="M782 252L840 252" stroke="#287B83" stroke-width="4" fill="none"/><path d="M826 243L840 252L826 261" fill="none" stroke="#287B83" stroke-width="4"/><text x="185" y="388" font-size="38" fill="#287B83" font-weight="400" text-anchor="middle">+ action: pull</text><text x="1010" y="388" font-size="38" fill="#287B83" font-weight="400" text-anchor="middle">Drawer opens</text><text x="600" y="494" font-size="39" fill="#012169" font-weight="600" text-anchor="middle">Compare possible actions before acting.</text></svg>
